<mxfile host="app.diagrams.net" modified="2021-03-11T11:20:39.068Z" agent="5.0 (Macintosh; Intel Mac OS X 10_15_4) AppleWebKit/537.36 (KHTML, like Gecko) Chrome/88.0.4324.192 Safari/537.36" etag="3EvYyXdlqjtYz3rrk0rm" version="14.4.3" type="github">
  <diagram id="8eJdLD5Aibn1qpK40uhk" name="Page-1">
    <mxGraphModel dx="3089" dy="1939" grid="1" gridSize="10" guides="1" tooltips="1" connect="1" arrows="1" fold="1" page="1" pageScale="1" pageWidth="827" pageHeight="1169" math="0" shadow="0">
      <root>
        <mxCell id="0" />
        <mxCell id="1" parent="0" />
        <mxCell id="MG6lyERmRnh1HpZcy8s1-1" value="A" style="ellipse;whiteSpace=wrap;html=1;aspect=fixed;" vertex="1" parent="1">
          <mxGeometry x="180" y="10" width="40" height="40" as="geometry" />
        </mxCell>
        <mxCell id="MG6lyERmRnh1HpZcy8s1-2" value="" style="endArrow=none;html=1;entryX=0;entryY=1;entryDx=0;entryDy=0;exitX=0.5;exitY=0;exitDx=0;exitDy=0;" edge="1" parent="1" source="MG6lyERmRnh1HpZcy8s1-5" target="MG6lyERmRnh1HpZcy8s1-1">
          <mxGeometry width="50" height="50" relative="1" as="geometry">
            <mxPoint x="150" y="90" as="sourcePoint" />
            <mxPoint x="180" y="40" as="targetPoint" />
          </mxGeometry>
        </mxCell>
        <mxCell id="MG6lyERmRnh1HpZcy8s1-5" value="B" style="ellipse;whiteSpace=wrap;html=1;aspect=fixed;" vertex="1" parent="1">
          <mxGeometry x="100" y="90" width="40" height="40" as="geometry" />
        </mxCell>
        <mxCell id="MG6lyERmRnh1HpZcy8s1-6" value="C" style="ellipse;whiteSpace=wrap;html=1;aspect=fixed;" vertex="1" parent="1">
          <mxGeometry x="270" y="90" width="40" height="40" as="geometry" />
        </mxCell>
        <mxCell id="MG6lyERmRnh1HpZcy8s1-7" value="" style="endArrow=none;html=1;entryX=1;entryY=1;entryDx=0;entryDy=0;" edge="1" parent="1" target="MG6lyERmRnh1HpZcy8s1-1">
          <mxGeometry width="50" height="50" relative="1" as="geometry">
            <mxPoint x="280" y="89" as="sourcePoint" />
            <mxPoint x="195.85786437626894" y="54.142135623731065" as="targetPoint" />
          </mxGeometry>
        </mxCell>
        <mxCell id="MG6lyERmRnh1HpZcy8s1-8" value="D" style="ellipse;whiteSpace=wrap;html=1;aspect=fixed;" vertex="1" parent="1">
          <mxGeometry x="50" y="160" width="40" height="40" as="geometry" />
        </mxCell>
        <mxCell id="MG6lyERmRnh1HpZcy8s1-9" value="E" style="ellipse;whiteSpace=wrap;html=1;aspect=fixed;" vertex="1" parent="1">
          <mxGeometry x="140" y="160" width="40" height="40" as="geometry" />
        </mxCell>
        <mxCell id="MG6lyERmRnh1HpZcy8s1-10" value="F" style="ellipse;whiteSpace=wrap;html=1;aspect=fixed;" vertex="1" parent="1">
          <mxGeometry x="230" y="160" width="40" height="40" as="geometry" />
        </mxCell>
        <mxCell id="MG6lyERmRnh1HpZcy8s1-11" value="G" style="ellipse;whiteSpace=wrap;html=1;aspect=fixed;" vertex="1" parent="1">
          <mxGeometry x="320" y="160" width="40" height="40" as="geometry" />
        </mxCell>
        <mxCell id="MG6lyERmRnh1HpZcy8s1-13" value="" style="endArrow=none;html=1;entryX=0;entryY=1;entryDx=0;entryDy=0;" edge="1" parent="1" target="MG6lyERmRnh1HpZcy8s1-5">
          <mxGeometry width="50" height="50" relative="1" as="geometry">
            <mxPoint x="80" y="160" as="sourcePoint" />
            <mxPoint x="120" y="130" as="targetPoint" />
          </mxGeometry>
        </mxCell>
        <mxCell id="MG6lyERmRnh1HpZcy8s1-14" value="" style="endArrow=none;html=1;entryX=1;entryY=1;entryDx=0;entryDy=0;exitX=0.325;exitY=-0.075;exitDx=0;exitDy=0;exitPerimeter=0;" edge="1" parent="1" source="MG6lyERmRnh1HpZcy8s1-9" target="MG6lyERmRnh1HpZcy8s1-5">
          <mxGeometry width="50" height="50" relative="1" as="geometry">
            <mxPoint x="90" y="170" as="sourcePoint" />
            <mxPoint x="115.85786437626894" y="134.14213562373106" as="targetPoint" />
          </mxGeometry>
        </mxCell>
        <mxCell id="MG6lyERmRnh1HpZcy8s1-15" value="" style="endArrow=none;html=1;entryX=0;entryY=1;entryDx=0;entryDy=0;exitX=0.25;exitY=0;exitDx=0;exitDy=0;exitPerimeter=0;" edge="1" parent="1" source="MG6lyERmRnh1HpZcy8s1-11">
          <mxGeometry width="50" height="50" relative="1" as="geometry">
            <mxPoint x="277.07" y="160" as="sourcePoint" />
            <mxPoint x="302.92786437626893" y="124.14213562373106" as="targetPoint" />
          </mxGeometry>
        </mxCell>
        <mxCell id="MG6lyERmRnh1HpZcy8s1-16" value="" style="endArrow=none;html=1;entryX=0;entryY=1;entryDx=0;entryDy=0;exitX=0.5;exitY=0;exitDx=0;exitDy=0;" edge="1" parent="1" source="MG6lyERmRnh1HpZcy8s1-10" target="MG6lyERmRnh1HpZcy8s1-6">
          <mxGeometry width="50" height="50" relative="1" as="geometry">
            <mxPoint x="110" y="190" as="sourcePoint" />
            <mxPoint x="135.85786437626894" y="154.14213562373106" as="targetPoint" />
          </mxGeometry>
        </mxCell>
        <mxCell id="MG6lyERmRnh1HpZcy8s1-17" value="" style="shape=table;html=1;whiteSpace=wrap;startSize=0;container=1;collapsible=0;childLayout=tableLayout;" vertex="1" parent="1">
          <mxGeometry x="-6" y="270" width="420" height="40" as="geometry" />
        </mxCell>
        <mxCell id="MG6lyERmRnh1HpZcy8s1-18" value="" style="shape=partialRectangle;html=1;whiteSpace=wrap;collapsible=0;dropTarget=0;pointerEvents=0;fillColor=none;top=0;left=0;bottom=0;right=0;points=[[0,0.5],[1,0.5]];portConstraint=eastwest;" vertex="1" parent="MG6lyERmRnh1HpZcy8s1-17">
          <mxGeometry width="420" height="40" as="geometry" />
        </mxCell>
        <mxCell id="MG6lyERmRnh1HpZcy8s1-19" value="A" style="shape=partialRectangle;html=1;whiteSpace=wrap;connectable=0;overflow=hidden;fillColor=none;top=0;left=0;bottom=0;right=0;" vertex="1" parent="MG6lyERmRnh1HpZcy8s1-18">
          <mxGeometry width="60" height="40" as="geometry" />
        </mxCell>
        <mxCell id="MG6lyERmRnh1HpZcy8s1-20" value="B" style="shape=partialRectangle;html=1;whiteSpace=wrap;connectable=0;overflow=hidden;fillColor=none;top=0;left=0;bottom=0;right=0;" vertex="1" parent="MG6lyERmRnh1HpZcy8s1-18">
          <mxGeometry x="60" width="60" height="40" as="geometry" />
        </mxCell>
        <mxCell id="MG6lyERmRnh1HpZcy8s1-21" value="C" style="shape=partialRectangle;html=1;whiteSpace=wrap;connectable=0;overflow=hidden;fillColor=none;top=0;left=0;bottom=0;right=0;" vertex="1" parent="MG6lyERmRnh1HpZcy8s1-18">
          <mxGeometry x="120" width="60" height="40" as="geometry" />
        </mxCell>
        <mxCell id="MG6lyERmRnh1HpZcy8s1-22" value="D" style="shape=partialRectangle;html=1;whiteSpace=wrap;connectable=0;overflow=hidden;fillColor=none;top=0;left=0;bottom=0;right=0;" vertex="1" parent="MG6lyERmRnh1HpZcy8s1-18">
          <mxGeometry x="180" width="60" height="40" as="geometry" />
        </mxCell>
        <mxCell id="MG6lyERmRnh1HpZcy8s1-23" value="E" style="shape=partialRectangle;html=1;whiteSpace=wrap;connectable=0;overflow=hidden;fillColor=none;top=0;left=0;bottom=0;right=0;" vertex="1" parent="MG6lyERmRnh1HpZcy8s1-18">
          <mxGeometry x="240" width="60" height="40" as="geometry" />
        </mxCell>
        <mxCell id="MG6lyERmRnh1HpZcy8s1-24" value="F" style="shape=partialRectangle;html=1;whiteSpace=wrap;connectable=0;overflow=hidden;fillColor=none;top=0;left=0;bottom=0;right=0;" vertex="1" parent="MG6lyERmRnh1HpZcy8s1-18">
          <mxGeometry x="300" width="60" height="40" as="geometry" />
        </mxCell>
        <mxCell id="MG6lyERmRnh1HpZcy8s1-25" value="G" style="shape=partialRectangle;html=1;whiteSpace=wrap;connectable=0;overflow=hidden;fillColor=none;top=0;left=0;bottom=0;right=0;" vertex="1" parent="MG6lyERmRnh1HpZcy8s1-18">
          <mxGeometry x="360" width="60" height="40" as="geometry" />
        </mxCell>
        <mxCell id="MG6lyERmRnh1HpZcy8s1-26" value="1" style="text;html=1;align=center;verticalAlign=middle;resizable=0;points=[];autosize=1;" vertex="1" parent="1">
          <mxGeometry x="10" y="320" width="20" height="20" as="geometry" />
        </mxCell>
        <mxCell id="MG6lyERmRnh1HpZcy8s1-27" value="2" style="text;html=1;align=center;verticalAlign=middle;resizable=0;points=[];autosize=1;" vertex="1" parent="1">
          <mxGeometry x="70" y="320" width="20" height="20" as="geometry" />
        </mxCell>
        <mxCell id="MG6lyERmRnh1HpZcy8s1-28" value="3" style="text;html=1;align=center;verticalAlign=middle;resizable=0;points=[];autosize=1;" vertex="1" parent="1">
          <mxGeometry x="130" y="320" width="20" height="20" as="geometry" />
        </mxCell>
        <mxCell id="MG6lyERmRnh1HpZcy8s1-29" value="4" style="text;html=1;align=center;verticalAlign=middle;resizable=0;points=[];autosize=1;" vertex="1" parent="1">
          <mxGeometry x="190" y="320" width="20" height="20" as="geometry" />
        </mxCell>
        <mxCell id="MG6lyERmRnh1HpZcy8s1-30" value="5" style="text;html=1;align=center;verticalAlign=middle;resizable=0;points=[];autosize=1;" vertex="1" parent="1">
          <mxGeometry x="250" y="320" width="20" height="20" as="geometry" />
        </mxCell>
        <mxCell id="MG6lyERmRnh1HpZcy8s1-31" value="6" style="text;html=1;align=center;verticalAlign=middle;resizable=0;points=[];autosize=1;" vertex="1" parent="1">
          <mxGeometry x="310" y="320" width="20" height="20" as="geometry" />
        </mxCell>
        <mxCell id="MG6lyERmRnh1HpZcy8s1-32" value="7" style="text;html=1;align=center;verticalAlign=middle;resizable=0;points=[];autosize=1;" vertex="1" parent="1">
          <mxGeometry x="370" y="320" width="20" height="20" as="geometry" />
        </mxCell>
        <mxCell id="MG6lyERmRnh1HpZcy8s1-120" value="A" style="ellipse;whiteSpace=wrap;html=1;aspect=fixed;" vertex="1" parent="1">
          <mxGeometry x="336" y="480" width="40" height="40" as="geometry" />
        </mxCell>
        <mxCell id="MG6lyERmRnh1HpZcy8s1-121" value="" style="endArrow=none;html=1;entryX=0;entryY=1;entryDx=0;entryDy=0;exitX=0.5;exitY=0;exitDx=0;exitDy=0;" edge="1" source="MG6lyERmRnh1HpZcy8s1-122" target="MG6lyERmRnh1HpZcy8s1-120" parent="1">
          <mxGeometry width="50" height="50" relative="1" as="geometry">
            <mxPoint x="306" y="560" as="sourcePoint" />
            <mxPoint x="336" y="510" as="targetPoint" />
          </mxGeometry>
        </mxCell>
        <mxCell id="MG6lyERmRnh1HpZcy8s1-122" value="B" style="ellipse;whiteSpace=wrap;html=1;aspect=fixed;" vertex="1" parent="1">
          <mxGeometry x="256" y="560" width="40" height="40" as="geometry" />
        </mxCell>
        <mxCell id="MG6lyERmRnh1HpZcy8s1-123" value="C" style="ellipse;whiteSpace=wrap;html=1;aspect=fixed;" vertex="1" parent="1">
          <mxGeometry x="426" y="560" width="40" height="40" as="geometry" />
        </mxCell>
        <mxCell id="MG6lyERmRnh1HpZcy8s1-124" value="" style="endArrow=none;html=1;entryX=1;entryY=1;entryDx=0;entryDy=0;" edge="1" target="MG6lyERmRnh1HpZcy8s1-120" parent="1">
          <mxGeometry width="50" height="50" relative="1" as="geometry">
            <mxPoint x="436" y="559" as="sourcePoint" />
            <mxPoint x="351.85786437626894" y="524.1421356237311" as="targetPoint" />
          </mxGeometry>
        </mxCell>
        <mxCell id="MG6lyERmRnh1HpZcy8s1-127" value="D" style="ellipse;whiteSpace=wrap;html=1;aspect=fixed;" vertex="1" parent="1">
          <mxGeometry x="386" y="630" width="40" height="40" as="geometry" />
        </mxCell>
        <mxCell id="MG6lyERmRnh1HpZcy8s1-128" value="E" style="ellipse;whiteSpace=wrap;html=1;aspect=fixed;" vertex="1" parent="1">
          <mxGeometry x="476" y="630" width="40" height="40" as="geometry" />
        </mxCell>
        <mxCell id="MG6lyERmRnh1HpZcy8s1-131" value="" style="endArrow=none;html=1;entryX=0;entryY=1;entryDx=0;entryDy=0;exitX=0.25;exitY=0;exitDx=0;exitDy=0;exitPerimeter=0;" edge="1" source="MG6lyERmRnh1HpZcy8s1-128" parent="1">
          <mxGeometry width="50" height="50" relative="1" as="geometry">
            <mxPoint x="433.07" y="630" as="sourcePoint" />
            <mxPoint x="458.9278643762691" y="594.1421356237311" as="targetPoint" />
          </mxGeometry>
        </mxCell>
        <mxCell id="MG6lyERmRnh1HpZcy8s1-132" value="" style="endArrow=none;html=1;entryX=0;entryY=1;entryDx=0;entryDy=0;exitX=0.5;exitY=0;exitDx=0;exitDy=0;" edge="1" source="MG6lyERmRnh1HpZcy8s1-127" target="MG6lyERmRnh1HpZcy8s1-123" parent="1">
          <mxGeometry width="50" height="50" relative="1" as="geometry">
            <mxPoint x="266" y="660" as="sourcePoint" />
            <mxPoint x="291.85786437626894" y="624.1421356237311" as="targetPoint" />
          </mxGeometry>
        </mxCell>
        <mxCell id="MG6lyERmRnh1HpZcy8s1-133" value="" style="shape=table;html=1;whiteSpace=wrap;startSize=0;container=1;collapsible=0;childLayout=tableLayout;" vertex="1" parent="1">
          <mxGeometry x="150" y="740" width="420" height="40" as="geometry" />
        </mxCell>
        <mxCell id="MG6lyERmRnh1HpZcy8s1-134" value="" style="shape=partialRectangle;html=1;whiteSpace=wrap;collapsible=0;dropTarget=0;pointerEvents=0;fillColor=none;top=0;left=0;bottom=0;right=0;points=[[0,0.5],[1,0.5]];portConstraint=eastwest;" vertex="1" parent="MG6lyERmRnh1HpZcy8s1-133">
          <mxGeometry width="420" height="40" as="geometry" />
        </mxCell>
        <mxCell id="MG6lyERmRnh1HpZcy8s1-135" value="A" style="shape=partialRectangle;html=1;whiteSpace=wrap;connectable=0;overflow=hidden;fillColor=none;top=0;left=0;bottom=0;right=0;" vertex="1" parent="MG6lyERmRnh1HpZcy8s1-134">
          <mxGeometry width="60" height="40" as="geometry" />
        </mxCell>
        <mxCell id="MG6lyERmRnh1HpZcy8s1-136" value="B" style="shape=partialRectangle;html=1;whiteSpace=wrap;connectable=0;overflow=hidden;fillColor=none;top=0;left=0;bottom=0;right=0;" vertex="1" parent="MG6lyERmRnh1HpZcy8s1-134">
          <mxGeometry x="60" width="60" height="40" as="geometry" />
        </mxCell>
        <mxCell id="MG6lyERmRnh1HpZcy8s1-137" value="C" style="shape=partialRectangle;html=1;whiteSpace=wrap;connectable=0;overflow=hidden;fillColor=none;top=0;left=0;bottom=0;right=0;" vertex="1" parent="MG6lyERmRnh1HpZcy8s1-134">
          <mxGeometry x="120" width="60" height="40" as="geometry" />
        </mxCell>
        <mxCell id="MG6lyERmRnh1HpZcy8s1-138" value="#" style="shape=partialRectangle;html=1;whiteSpace=wrap;connectable=0;overflow=hidden;fillColor=none;top=0;left=0;bottom=0;right=0;" vertex="1" parent="MG6lyERmRnh1HpZcy8s1-134">
          <mxGeometry x="180" width="60" height="40" as="geometry" />
        </mxCell>
        <mxCell id="MG6lyERmRnh1HpZcy8s1-139" value="#" style="shape=partialRectangle;html=1;whiteSpace=wrap;connectable=0;overflow=hidden;fillColor=none;top=0;left=0;bottom=0;right=0;" vertex="1" parent="MG6lyERmRnh1HpZcy8s1-134">
          <mxGeometry x="240" width="60" height="40" as="geometry" />
        </mxCell>
        <mxCell id="MG6lyERmRnh1HpZcy8s1-140" value="D" style="shape=partialRectangle;html=1;whiteSpace=wrap;connectable=0;overflow=hidden;fillColor=none;top=0;left=0;bottom=0;right=0;" vertex="1" parent="MG6lyERmRnh1HpZcy8s1-134">
          <mxGeometry x="300" width="60" height="40" as="geometry" />
        </mxCell>
        <mxCell id="MG6lyERmRnh1HpZcy8s1-141" value="E" style="shape=partialRectangle;html=1;whiteSpace=wrap;connectable=0;overflow=hidden;fillColor=none;top=0;left=0;bottom=0;right=0;" vertex="1" parent="MG6lyERmRnh1HpZcy8s1-134">
          <mxGeometry x="360" width="60" height="40" as="geometry" />
        </mxCell>
        <mxCell id="MG6lyERmRnh1HpZcy8s1-142" value="1" style="text;html=1;align=center;verticalAlign=middle;resizable=0;points=[];autosize=1;" vertex="1" parent="1">
          <mxGeometry x="166" y="790" width="20" height="20" as="geometry" />
        </mxCell>
        <mxCell id="MG6lyERmRnh1HpZcy8s1-143" value="2" style="text;html=1;align=center;verticalAlign=middle;resizable=0;points=[];autosize=1;" vertex="1" parent="1">
          <mxGeometry x="226" y="790" width="20" height="20" as="geometry" />
        </mxCell>
        <mxCell id="MG6lyERmRnh1HpZcy8s1-144" value="3" style="text;html=1;align=center;verticalAlign=middle;resizable=0;points=[];autosize=1;" vertex="1" parent="1">
          <mxGeometry x="286" y="790" width="20" height="20" as="geometry" />
        </mxCell>
        <mxCell id="MG6lyERmRnh1HpZcy8s1-145" value="4" style="text;html=1;align=center;verticalAlign=middle;resizable=0;points=[];autosize=1;" vertex="1" parent="1">
          <mxGeometry x="346" y="790" width="20" height="20" as="geometry" />
        </mxCell>
        <mxCell id="MG6lyERmRnh1HpZcy8s1-146" value="5" style="text;html=1;align=center;verticalAlign=middle;resizable=0;points=[];autosize=1;" vertex="1" parent="1">
          <mxGeometry x="406" y="790" width="20" height="20" as="geometry" />
        </mxCell>
        <mxCell id="MG6lyERmRnh1HpZcy8s1-147" value="6" style="text;html=1;align=center;verticalAlign=middle;resizable=0;points=[];autosize=1;" vertex="1" parent="1">
          <mxGeometry x="466" y="790" width="20" height="20" as="geometry" />
        </mxCell>
        <mxCell id="MG6lyERmRnh1HpZcy8s1-148" value="7" style="text;html=1;align=center;verticalAlign=middle;resizable=0;points=[];autosize=1;" vertex="1" parent="1">
          <mxGeometry x="526" y="790" width="20" height="20" as="geometry" />
        </mxCell>
        <mxCell id="MG6lyERmRnh1HpZcy8s1-150" value="50" style="ellipse;whiteSpace=wrap;html=1;aspect=fixed;" vertex="1" parent="1">
          <mxGeometry x="-720" y="10" width="40" height="40" as="geometry" />
        </mxCell>
        <mxCell id="MG6lyERmRnh1HpZcy8s1-151" value="" style="endArrow=none;html=1;entryX=0;entryY=1;entryDx=0;entryDy=0;exitX=0.5;exitY=0;exitDx=0;exitDy=0;" edge="1" source="MG6lyERmRnh1HpZcy8s1-152" target="MG6lyERmRnh1HpZcy8s1-150" parent="1">
          <mxGeometry width="50" height="50" relative="1" as="geometry">
            <mxPoint x="-750" y="90" as="sourcePoint" />
            <mxPoint x="-720" y="40" as="targetPoint" />
          </mxGeometry>
        </mxCell>
        <mxCell id="MG6lyERmRnh1HpZcy8s1-152" value="30" style="ellipse;whiteSpace=wrap;html=1;aspect=fixed;" vertex="1" parent="1">
          <mxGeometry x="-800" y="90" width="40" height="40" as="geometry" />
        </mxCell>
        <mxCell id="MG6lyERmRnh1HpZcy8s1-153" value="20" style="ellipse;whiteSpace=wrap;html=1;aspect=fixed;" vertex="1" parent="1">
          <mxGeometry x="-630" y="90" width="40" height="40" as="geometry" />
        </mxCell>
        <mxCell id="MG6lyERmRnh1HpZcy8s1-154" value="" style="endArrow=none;html=1;entryX=1;entryY=1;entryDx=0;entryDy=0;exitX=0.5;exitY=0;exitDx=0;exitDy=0;exitPerimeter=0;" edge="1" target="MG6lyERmRnh1HpZcy8s1-150" parent="1" source="MG6lyERmRnh1HpZcy8s1-153">
          <mxGeometry width="50" height="50" relative="1" as="geometry">
            <mxPoint x="-610" y="100" as="sourcePoint" />
            <mxPoint x="-704.1421356237311" y="54.142135623731065" as="targetPoint" />
          </mxGeometry>
        </mxCell>
        <mxCell id="MG6lyERmRnh1HpZcy8s1-155" value="15" style="ellipse;whiteSpace=wrap;html=1;aspect=fixed;" vertex="1" parent="1">
          <mxGeometry x="-850" y="160" width="40" height="40" as="geometry" />
        </mxCell>
        <mxCell id="MG6lyERmRnh1HpZcy8s1-156" value="10" style="ellipse;whiteSpace=wrap;html=1;aspect=fixed;" vertex="1" parent="1">
          <mxGeometry x="-760" y="160" width="40" height="40" as="geometry" />
        </mxCell>
        <mxCell id="MG6lyERmRnh1HpZcy8s1-157" value="8" style="ellipse;whiteSpace=wrap;html=1;aspect=fixed;" vertex="1" parent="1">
          <mxGeometry x="-670" y="160" width="40" height="40" as="geometry" />
        </mxCell>
        <mxCell id="MG6lyERmRnh1HpZcy8s1-158" value="16" style="ellipse;whiteSpace=wrap;html=1;aspect=fixed;" vertex="1" parent="1">
          <mxGeometry x="-580" y="160" width="40" height="40" as="geometry" />
        </mxCell>
        <mxCell id="MG6lyERmRnh1HpZcy8s1-159" value="" style="endArrow=none;html=1;entryX=0;entryY=1;entryDx=0;entryDy=0;" edge="1" target="MG6lyERmRnh1HpZcy8s1-152" parent="1">
          <mxGeometry width="50" height="50" relative="1" as="geometry">
            <mxPoint x="-820" y="160" as="sourcePoint" />
            <mxPoint x="-780" y="130" as="targetPoint" />
          </mxGeometry>
        </mxCell>
        <mxCell id="MG6lyERmRnh1HpZcy8s1-160" value="" style="endArrow=none;html=1;entryX=1;entryY=1;entryDx=0;entryDy=0;exitX=0.325;exitY=-0.075;exitDx=0;exitDy=0;exitPerimeter=0;" edge="1" source="MG6lyERmRnh1HpZcy8s1-156" target="MG6lyERmRnh1HpZcy8s1-152" parent="1">
          <mxGeometry width="50" height="50" relative="1" as="geometry">
            <mxPoint x="-810" y="170" as="sourcePoint" />
            <mxPoint x="-784.1421356237311" y="134.14213562373106" as="targetPoint" />
          </mxGeometry>
        </mxCell>
        <mxCell id="MG6lyERmRnh1HpZcy8s1-161" value="" style="endArrow=none;html=1;entryX=0;entryY=1;entryDx=0;entryDy=0;exitX=0.25;exitY=0;exitDx=0;exitDy=0;exitPerimeter=0;" edge="1" source="MG6lyERmRnh1HpZcy8s1-158" parent="1">
          <mxGeometry width="50" height="50" relative="1" as="geometry">
            <mxPoint x="-622.9300000000001" y="160" as="sourcePoint" />
            <mxPoint x="-597.0721356237309" y="124.14213562373106" as="targetPoint" />
          </mxGeometry>
        </mxCell>
        <mxCell id="MG6lyERmRnh1HpZcy8s1-162" value="" style="endArrow=none;html=1;entryX=0;entryY=1;entryDx=0;entryDy=0;exitX=0.5;exitY=0;exitDx=0;exitDy=0;" edge="1" source="MG6lyERmRnh1HpZcy8s1-157" target="MG6lyERmRnh1HpZcy8s1-153" parent="1">
          <mxGeometry width="50" height="50" relative="1" as="geometry">
            <mxPoint x="-790" y="190" as="sourcePoint" />
            <mxPoint x="-764.1421356237311" y="154.14213562373106" as="targetPoint" />
          </mxGeometry>
        </mxCell>
        <mxCell id="MG6lyERmRnh1HpZcy8s1-175" value="" style="shape=table;html=1;whiteSpace=wrap;startSize=0;container=1;collapsible=0;childLayout=tableLayout;" vertex="1" parent="1">
          <mxGeometry x="-910" y="250" width="420" height="40" as="geometry" />
        </mxCell>
        <mxCell id="MG6lyERmRnh1HpZcy8s1-176" value="" style="shape=partialRectangle;html=1;whiteSpace=wrap;collapsible=0;dropTarget=0;pointerEvents=0;fillColor=none;top=0;left=0;bottom=0;right=0;points=[[0,0.5],[1,0.5]];portConstraint=eastwest;" vertex="1" parent="MG6lyERmRnh1HpZcy8s1-175">
          <mxGeometry width="420" height="40" as="geometry" />
        </mxCell>
        <mxCell id="MG6lyERmRnh1HpZcy8s1-177" value="50" style="shape=partialRectangle;html=1;whiteSpace=wrap;connectable=0;overflow=hidden;fillColor=none;top=0;left=0;bottom=0;right=0;" vertex="1" parent="MG6lyERmRnh1HpZcy8s1-176">
          <mxGeometry width="60" height="40" as="geometry" />
        </mxCell>
        <mxCell id="MG6lyERmRnh1HpZcy8s1-178" value="30" style="shape=partialRectangle;html=1;whiteSpace=wrap;connectable=0;overflow=hidden;fillColor=none;top=0;left=0;bottom=0;right=0;" vertex="1" parent="MG6lyERmRnh1HpZcy8s1-176">
          <mxGeometry x="60" width="60" height="40" as="geometry" />
        </mxCell>
        <mxCell id="MG6lyERmRnh1HpZcy8s1-179" value="20" style="shape=partialRectangle;html=1;whiteSpace=wrap;connectable=0;overflow=hidden;fillColor=none;top=0;left=0;bottom=0;right=0;" vertex="1" parent="MG6lyERmRnh1HpZcy8s1-176">
          <mxGeometry x="120" width="60" height="40" as="geometry" />
        </mxCell>
        <mxCell id="MG6lyERmRnh1HpZcy8s1-180" value="15" style="shape=partialRectangle;html=1;whiteSpace=wrap;connectable=0;overflow=hidden;fillColor=none;top=0;left=0;bottom=0;right=0;" vertex="1" parent="MG6lyERmRnh1HpZcy8s1-176">
          <mxGeometry x="180" width="60" height="40" as="geometry" />
        </mxCell>
        <mxCell id="MG6lyERmRnh1HpZcy8s1-181" value="10" style="shape=partialRectangle;html=1;whiteSpace=wrap;connectable=0;overflow=hidden;fillColor=none;top=0;left=0;bottom=0;right=0;" vertex="1" parent="MG6lyERmRnh1HpZcy8s1-176">
          <mxGeometry x="240" width="60" height="40" as="geometry" />
        </mxCell>
        <mxCell id="MG6lyERmRnh1HpZcy8s1-182" value="8" style="shape=partialRectangle;html=1;whiteSpace=wrap;connectable=0;overflow=hidden;fillColor=none;top=0;left=0;bottom=0;right=0;" vertex="1" parent="MG6lyERmRnh1HpZcy8s1-176">
          <mxGeometry x="300" width="60" height="40" as="geometry" />
        </mxCell>
        <mxCell id="MG6lyERmRnh1HpZcy8s1-183" value="16" style="shape=partialRectangle;html=1;whiteSpace=wrap;connectable=0;overflow=hidden;fillColor=none;top=0;left=0;bottom=0;right=0;" vertex="1" parent="MG6lyERmRnh1HpZcy8s1-176">
          <mxGeometry x="360" width="60" height="40" as="geometry" />
        </mxCell>
        <mxCell id="MG6lyERmRnh1HpZcy8s1-184" value="1" style="text;html=1;align=center;verticalAlign=middle;resizable=0;points=[];autosize=1;" vertex="1" parent="1">
          <mxGeometry x="-894" y="300" width="20" height="20" as="geometry" />
        </mxCell>
        <mxCell id="MG6lyERmRnh1HpZcy8s1-185" value="2" style="text;html=1;align=center;verticalAlign=middle;resizable=0;points=[];autosize=1;" vertex="1" parent="1">
          <mxGeometry x="-834" y="300" width="20" height="20" as="geometry" />
        </mxCell>
        <mxCell id="MG6lyERmRnh1HpZcy8s1-186" value="3" style="text;html=1;align=center;verticalAlign=middle;resizable=0;points=[];autosize=1;" vertex="1" parent="1">
          <mxGeometry x="-774" y="300" width="20" height="20" as="geometry" />
        </mxCell>
        <mxCell id="MG6lyERmRnh1HpZcy8s1-187" value="4" style="text;html=1;align=center;verticalAlign=middle;resizable=0;points=[];autosize=1;" vertex="1" parent="1">
          <mxGeometry x="-714" y="300" width="20" height="20" as="geometry" />
        </mxCell>
        <mxCell id="MG6lyERmRnh1HpZcy8s1-188" value="5" style="text;html=1;align=center;verticalAlign=middle;resizable=0;points=[];autosize=1;" vertex="1" parent="1">
          <mxGeometry x="-654" y="300" width="20" height="20" as="geometry" />
        </mxCell>
        <mxCell id="MG6lyERmRnh1HpZcy8s1-189" value="6" style="text;html=1;align=center;verticalAlign=middle;resizable=0;points=[];autosize=1;" vertex="1" parent="1">
          <mxGeometry x="-594" y="300" width="20" height="20" as="geometry" />
        </mxCell>
        <mxCell id="MG6lyERmRnh1HpZcy8s1-190" value="7" style="text;html=1;align=center;verticalAlign=middle;resizable=0;points=[];autosize=1;" vertex="1" parent="1">
          <mxGeometry x="-534" y="300" width="20" height="20" as="geometry" />
        </mxCell>
        <mxCell id="MG6lyERmRnh1HpZcy8s1-191" value="8" style="ellipse;whiteSpace=wrap;html=1;aspect=fixed;" vertex="1" parent="1">
          <mxGeometry x="-280" y="10" width="40" height="40" as="geometry" />
        </mxCell>
        <mxCell id="MG6lyERmRnh1HpZcy8s1-192" value="" style="endArrow=none;html=1;entryX=0;entryY=1;entryDx=0;entryDy=0;exitX=0.5;exitY=0;exitDx=0;exitDy=0;" edge="1" source="MG6lyERmRnh1HpZcy8s1-193" target="MG6lyERmRnh1HpZcy8s1-191" parent="1">
          <mxGeometry width="50" height="50" relative="1" as="geometry">
            <mxPoint x="-310" y="90" as="sourcePoint" />
            <mxPoint x="-280" y="40" as="targetPoint" />
          </mxGeometry>
        </mxCell>
        <mxCell id="MG6lyERmRnh1HpZcy8s1-193" value="10" style="ellipse;whiteSpace=wrap;html=1;aspect=fixed;" vertex="1" parent="1">
          <mxGeometry x="-360" y="90" width="40" height="40" as="geometry" />
        </mxCell>
        <mxCell id="MG6lyERmRnh1HpZcy8s1-194" value="16" style="ellipse;whiteSpace=wrap;html=1;aspect=fixed;" vertex="1" parent="1">
          <mxGeometry x="-190" y="90" width="40" height="40" as="geometry" />
        </mxCell>
        <mxCell id="MG6lyERmRnh1HpZcy8s1-195" value="" style="endArrow=none;html=1;entryX=1;entryY=1;entryDx=0;entryDy=0;exitX=0.5;exitY=0;exitDx=0;exitDy=0;exitPerimeter=0;" edge="1" source="MG6lyERmRnh1HpZcy8s1-194" target="MG6lyERmRnh1HpZcy8s1-191" parent="1">
          <mxGeometry width="50" height="50" relative="1" as="geometry">
            <mxPoint x="-170" y="100" as="sourcePoint" />
            <mxPoint x="-264.14213562373106" y="54.142135623731065" as="targetPoint" />
          </mxGeometry>
        </mxCell>
        <mxCell id="MG6lyERmRnh1HpZcy8s1-196" value="15" style="ellipse;whiteSpace=wrap;html=1;aspect=fixed;" vertex="1" parent="1">
          <mxGeometry x="-410" y="160" width="40" height="40" as="geometry" />
        </mxCell>
        <mxCell id="MG6lyERmRnh1HpZcy8s1-197" value="20" style="ellipse;whiteSpace=wrap;html=1;aspect=fixed;" vertex="1" parent="1">
          <mxGeometry x="-320" y="160" width="40" height="40" as="geometry" />
        </mxCell>
        <mxCell id="MG6lyERmRnh1HpZcy8s1-198" value="30" style="ellipse;whiteSpace=wrap;html=1;aspect=fixed;" vertex="1" parent="1">
          <mxGeometry x="-230" y="160" width="40" height="40" as="geometry" />
        </mxCell>
        <mxCell id="MG6lyERmRnh1HpZcy8s1-199" value="50" style="ellipse;whiteSpace=wrap;html=1;aspect=fixed;" vertex="1" parent="1">
          <mxGeometry x="-140" y="160" width="40" height="40" as="geometry" />
        </mxCell>
        <mxCell id="MG6lyERmRnh1HpZcy8s1-200" value="" style="endArrow=none;html=1;entryX=0;entryY=1;entryDx=0;entryDy=0;" edge="1" target="MG6lyERmRnh1HpZcy8s1-193" parent="1">
          <mxGeometry width="50" height="50" relative="1" as="geometry">
            <mxPoint x="-380" y="160" as="sourcePoint" />
            <mxPoint x="-340" y="130" as="targetPoint" />
          </mxGeometry>
        </mxCell>
        <mxCell id="MG6lyERmRnh1HpZcy8s1-201" value="" style="endArrow=none;html=1;entryX=1;entryY=1;entryDx=0;entryDy=0;exitX=0.325;exitY=-0.075;exitDx=0;exitDy=0;exitPerimeter=0;" edge="1" source="MG6lyERmRnh1HpZcy8s1-197" target="MG6lyERmRnh1HpZcy8s1-193" parent="1">
          <mxGeometry width="50" height="50" relative="1" as="geometry">
            <mxPoint x="-370" y="170" as="sourcePoint" />
            <mxPoint x="-344.14213562373106" y="134.14213562373106" as="targetPoint" />
          </mxGeometry>
        </mxCell>
        <mxCell id="MG6lyERmRnh1HpZcy8s1-202" value="" style="endArrow=none;html=1;entryX=0;entryY=1;entryDx=0;entryDy=0;exitX=0.25;exitY=0;exitDx=0;exitDy=0;exitPerimeter=0;" edge="1" source="MG6lyERmRnh1HpZcy8s1-199" parent="1">
          <mxGeometry width="50" height="50" relative="1" as="geometry">
            <mxPoint x="-182.93000000000006" y="160" as="sourcePoint" />
            <mxPoint x="-157.0721356237309" y="124.14213562373106" as="targetPoint" />
          </mxGeometry>
        </mxCell>
        <mxCell id="MG6lyERmRnh1HpZcy8s1-203" value="" style="endArrow=none;html=1;entryX=0;entryY=1;entryDx=0;entryDy=0;exitX=0.5;exitY=0;exitDx=0;exitDy=0;" edge="1" source="MG6lyERmRnh1HpZcy8s1-198" target="MG6lyERmRnh1HpZcy8s1-194" parent="1">
          <mxGeometry width="50" height="50" relative="1" as="geometry">
            <mxPoint x="-350" y="190" as="sourcePoint" />
            <mxPoint x="-324.14213562373106" y="154.14213562373106" as="targetPoint" />
          </mxGeometry>
        </mxCell>
        <mxCell id="MG6lyERmRnh1HpZcy8s1-204" value="" style="shape=table;html=1;whiteSpace=wrap;startSize=0;container=1;collapsible=0;childLayout=tableLayout;" vertex="1" parent="1">
          <mxGeometry x="-454" y="250" width="420" height="40" as="geometry" />
        </mxCell>
        <mxCell id="MG6lyERmRnh1HpZcy8s1-205" value="" style="shape=partialRectangle;html=1;whiteSpace=wrap;collapsible=0;dropTarget=0;pointerEvents=0;fillColor=none;top=0;left=0;bottom=0;right=0;points=[[0,0.5],[1,0.5]];portConstraint=eastwest;" vertex="1" parent="MG6lyERmRnh1HpZcy8s1-204">
          <mxGeometry width="420" height="40" as="geometry" />
        </mxCell>
        <mxCell id="MG6lyERmRnh1HpZcy8s1-206" value="8" style="shape=partialRectangle;html=1;whiteSpace=wrap;connectable=0;overflow=hidden;fillColor=none;top=0;left=0;bottom=0;right=0;" vertex="1" parent="MG6lyERmRnh1HpZcy8s1-205">
          <mxGeometry width="60" height="40" as="geometry" />
        </mxCell>
        <mxCell id="MG6lyERmRnh1HpZcy8s1-207" value="10" style="shape=partialRectangle;html=1;whiteSpace=wrap;connectable=0;overflow=hidden;fillColor=none;top=0;left=0;bottom=0;right=0;" vertex="1" parent="MG6lyERmRnh1HpZcy8s1-205">
          <mxGeometry x="60" width="60" height="40" as="geometry" />
        </mxCell>
        <mxCell id="MG6lyERmRnh1HpZcy8s1-208" value="16" style="shape=partialRectangle;html=1;whiteSpace=wrap;connectable=0;overflow=hidden;fillColor=none;top=0;left=0;bottom=0;right=0;" vertex="1" parent="MG6lyERmRnh1HpZcy8s1-205">
          <mxGeometry x="120" width="60" height="40" as="geometry" />
        </mxCell>
        <mxCell id="MG6lyERmRnh1HpZcy8s1-209" value="15" style="shape=partialRectangle;html=1;whiteSpace=wrap;connectable=0;overflow=hidden;fillColor=none;top=0;left=0;bottom=0;right=0;" vertex="1" parent="MG6lyERmRnh1HpZcy8s1-205">
          <mxGeometry x="180" width="60" height="40" as="geometry" />
        </mxCell>
        <mxCell id="MG6lyERmRnh1HpZcy8s1-210" value="20" style="shape=partialRectangle;html=1;whiteSpace=wrap;connectable=0;overflow=hidden;fillColor=none;top=0;left=0;bottom=0;right=0;" vertex="1" parent="MG6lyERmRnh1HpZcy8s1-205">
          <mxGeometry x="240" width="60" height="40" as="geometry" />
        </mxCell>
        <mxCell id="MG6lyERmRnh1HpZcy8s1-211" value="30" style="shape=partialRectangle;html=1;whiteSpace=wrap;connectable=0;overflow=hidden;fillColor=none;top=0;left=0;bottom=0;right=0;" vertex="1" parent="MG6lyERmRnh1HpZcy8s1-205">
          <mxGeometry x="300" width="60" height="40" as="geometry" />
        </mxCell>
        <mxCell id="MG6lyERmRnh1HpZcy8s1-212" value="50" style="shape=partialRectangle;html=1;whiteSpace=wrap;connectable=0;overflow=hidden;fillColor=none;top=0;left=0;bottom=0;right=0;" vertex="1" parent="MG6lyERmRnh1HpZcy8s1-205">
          <mxGeometry x="360" width="60" height="40" as="geometry" />
        </mxCell>
        <mxCell id="MG6lyERmRnh1HpZcy8s1-213" value="1" style="text;html=1;align=center;verticalAlign=middle;resizable=0;points=[];autosize=1;" vertex="1" parent="1">
          <mxGeometry x="-440" y="300" width="20" height="20" as="geometry" />
        </mxCell>
        <mxCell id="MG6lyERmRnh1HpZcy8s1-214" value="2" style="text;html=1;align=center;verticalAlign=middle;resizable=0;points=[];autosize=1;" vertex="1" parent="1">
          <mxGeometry x="-380" y="300" width="20" height="20" as="geometry" />
        </mxCell>
        <mxCell id="MG6lyERmRnh1HpZcy8s1-215" value="3" style="text;html=1;align=center;verticalAlign=middle;resizable=0;points=[];autosize=1;" vertex="1" parent="1">
          <mxGeometry x="-320" y="300" width="20" height="20" as="geometry" />
        </mxCell>
        <mxCell id="MG6lyERmRnh1HpZcy8s1-216" value="4" style="text;html=1;align=center;verticalAlign=middle;resizable=0;points=[];autosize=1;" vertex="1" parent="1">
          <mxGeometry x="-260" y="300" width="20" height="20" as="geometry" />
        </mxCell>
        <mxCell id="MG6lyERmRnh1HpZcy8s1-217" value="5" style="text;html=1;align=center;verticalAlign=middle;resizable=0;points=[];autosize=1;" vertex="1" parent="1">
          <mxGeometry x="-190" y="300" width="20" height="20" as="geometry" />
        </mxCell>
        <mxCell id="MG6lyERmRnh1HpZcy8s1-218" value="6" style="text;html=1;align=center;verticalAlign=middle;resizable=0;points=[];autosize=1;" vertex="1" parent="1">
          <mxGeometry x="-130" y="300" width="20" height="20" as="geometry" />
        </mxCell>
        <mxCell id="MG6lyERmRnh1HpZcy8s1-219" value="7" style="text;html=1;align=center;verticalAlign=middle;resizable=0;points=[];autosize=1;" vertex="1" parent="1">
          <mxGeometry x="-80" y="300" width="20" height="20" as="geometry" />
        </mxCell>
        <mxCell id="MG6lyERmRnh1HpZcy8s1-220" value="max heap" style="text;html=1;align=center;verticalAlign=middle;resizable=0;points=[];autosize=1;" vertex="1" parent="1">
          <mxGeometry x="-739" y="-30" width="70" height="20" as="geometry" />
        </mxCell>
        <mxCell id="MG6lyERmRnh1HpZcy8s1-221" value="min heap" style="text;html=1;align=center;verticalAlign=middle;resizable=0;points=[];autosize=1;" vertex="1" parent="1">
          <mxGeometry x="-290" y="-30" width="60" height="20" as="geometry" />
        </mxCell>
        <mxCell id="MG6lyERmRnh1HpZcy8s1-222" value="50" style="ellipse;whiteSpace=wrap;html=1;aspect=fixed;" vertex="1" parent="1">
          <mxGeometry x="-664" y="420" width="40" height="40" as="geometry" />
        </mxCell>
        <mxCell id="MG6lyERmRnh1HpZcy8s1-223" value="" style="endArrow=none;html=1;entryX=0;entryY=1;entryDx=0;entryDy=0;exitX=0.5;exitY=0;exitDx=0;exitDy=0;" edge="1" source="MG6lyERmRnh1HpZcy8s1-224" target="MG6lyERmRnh1HpZcy8s1-222" parent="1">
          <mxGeometry width="50" height="50" relative="1" as="geometry">
            <mxPoint x="-694" y="500" as="sourcePoint" />
            <mxPoint x="-664" y="450" as="targetPoint" />
          </mxGeometry>
        </mxCell>
        <mxCell id="MG6lyERmRnh1HpZcy8s1-224" value="30" style="ellipse;whiteSpace=wrap;html=1;aspect=fixed;" vertex="1" parent="1">
          <mxGeometry x="-744" y="500" width="40" height="40" as="geometry" />
        </mxCell>
        <mxCell id="MG6lyERmRnh1HpZcy8s1-225" value="20" style="ellipse;whiteSpace=wrap;html=1;aspect=fixed;" vertex="1" parent="1">
          <mxGeometry x="-574" y="500" width="40" height="40" as="geometry" />
        </mxCell>
        <mxCell id="MG6lyERmRnh1HpZcy8s1-226" value="" style="endArrow=none;html=1;entryX=1;entryY=1;entryDx=0;entryDy=0;exitX=0.5;exitY=0;exitDx=0;exitDy=0;exitPerimeter=0;" edge="1" source="MG6lyERmRnh1HpZcy8s1-225" target="MG6lyERmRnh1HpZcy8s1-222" parent="1">
          <mxGeometry width="50" height="50" relative="1" as="geometry">
            <mxPoint x="-554" y="510" as="sourcePoint" />
            <mxPoint x="-648.1421356237311" y="464.14213562373106" as="targetPoint" />
          </mxGeometry>
        </mxCell>
        <mxCell id="MG6lyERmRnh1HpZcy8s1-227" value="15" style="ellipse;whiteSpace=wrap;html=1;aspect=fixed;" vertex="1" parent="1">
          <mxGeometry x="-794" y="570" width="40" height="40" as="geometry" />
        </mxCell>
        <mxCell id="MG6lyERmRnh1HpZcy8s1-228" value="10" style="ellipse;whiteSpace=wrap;html=1;aspect=fixed;" vertex="1" parent="1">
          <mxGeometry x="-704" y="570" width="40" height="40" as="geometry" />
        </mxCell>
        <mxCell id="MG6lyERmRnh1HpZcy8s1-229" value="8" style="ellipse;whiteSpace=wrap;html=1;aspect=fixed;" vertex="1" parent="1">
          <mxGeometry x="-614" y="570" width="40" height="40" as="geometry" />
        </mxCell>
        <mxCell id="MG6lyERmRnh1HpZcy8s1-230" value="16" style="ellipse;whiteSpace=wrap;html=1;aspect=fixed;" vertex="1" parent="1">
          <mxGeometry x="-524" y="570" width="40" height="40" as="geometry" />
        </mxCell>
        <mxCell id="MG6lyERmRnh1HpZcy8s1-231" value="" style="endArrow=none;html=1;entryX=0;entryY=1;entryDx=0;entryDy=0;" edge="1" target="MG6lyERmRnh1HpZcy8s1-224" parent="1">
          <mxGeometry width="50" height="50" relative="1" as="geometry">
            <mxPoint x="-764" y="570" as="sourcePoint" />
            <mxPoint x="-724" y="540" as="targetPoint" />
          </mxGeometry>
        </mxCell>
        <mxCell id="MG6lyERmRnh1HpZcy8s1-232" value="" style="endArrow=none;html=1;entryX=1;entryY=1;entryDx=0;entryDy=0;exitX=0.325;exitY=-0.075;exitDx=0;exitDy=0;exitPerimeter=0;" edge="1" source="MG6lyERmRnh1HpZcy8s1-228" target="MG6lyERmRnh1HpZcy8s1-224" parent="1">
          <mxGeometry width="50" height="50" relative="1" as="geometry">
            <mxPoint x="-754" y="580" as="sourcePoint" />
            <mxPoint x="-728.1421356237311" y="544.1421356237311" as="targetPoint" />
          </mxGeometry>
        </mxCell>
        <mxCell id="MG6lyERmRnh1HpZcy8s1-233" value="" style="endArrow=none;html=1;entryX=0;entryY=1;entryDx=0;entryDy=0;exitX=0.25;exitY=0;exitDx=0;exitDy=0;exitPerimeter=0;" edge="1" source="MG6lyERmRnh1HpZcy8s1-230" parent="1">
          <mxGeometry width="50" height="50" relative="1" as="geometry">
            <mxPoint x="-566.9300000000001" y="570" as="sourcePoint" />
            <mxPoint x="-541.0721356237309" y="534.1421356237311" as="targetPoint" />
          </mxGeometry>
        </mxCell>
        <mxCell id="MG6lyERmRnh1HpZcy8s1-234" value="" style="endArrow=none;html=1;entryX=0;entryY=1;entryDx=0;entryDy=0;exitX=0.5;exitY=0;exitDx=0;exitDy=0;" edge="1" source="MG6lyERmRnh1HpZcy8s1-229" target="MG6lyERmRnh1HpZcy8s1-225" parent="1">
          <mxGeometry width="50" height="50" relative="1" as="geometry">
            <mxPoint x="-734" y="600" as="sourcePoint" />
            <mxPoint x="-708.1421356237311" y="564.1421356237311" as="targetPoint" />
          </mxGeometry>
        </mxCell>
        <mxCell id="MG6lyERmRnh1HpZcy8s1-235" value="" style="shape=table;html=1;whiteSpace=wrap;startSize=0;container=1;collapsible=0;childLayout=tableLayout;" vertex="1" parent="1">
          <mxGeometry x="-860" y="660" width="480" height="40" as="geometry" />
        </mxCell>
        <mxCell id="MG6lyERmRnh1HpZcy8s1-236" value="" style="shape=partialRectangle;html=1;whiteSpace=wrap;collapsible=0;dropTarget=0;pointerEvents=0;fillColor=none;top=0;left=0;bottom=0;right=0;points=[[0,0.5],[1,0.5]];portConstraint=eastwest;" vertex="1" parent="MG6lyERmRnh1HpZcy8s1-235">
          <mxGeometry width="480" height="40" as="geometry" />
        </mxCell>
        <mxCell id="MG6lyERmRnh1HpZcy8s1-237" value="50" style="shape=partialRectangle;html=1;whiteSpace=wrap;connectable=0;overflow=hidden;fillColor=none;top=0;left=0;bottom=0;right=0;" vertex="1" parent="MG6lyERmRnh1HpZcy8s1-236">
          <mxGeometry width="60" height="40" as="geometry" />
        </mxCell>
        <mxCell id="MG6lyERmRnh1HpZcy8s1-238" value="30" style="shape=partialRectangle;html=1;whiteSpace=wrap;connectable=0;overflow=hidden;fillColor=none;top=0;left=0;bottom=0;right=0;" vertex="1" parent="MG6lyERmRnh1HpZcy8s1-236">
          <mxGeometry x="60" width="60" height="40" as="geometry" />
        </mxCell>
        <mxCell id="MG6lyERmRnh1HpZcy8s1-239" value="20" style="shape=partialRectangle;html=1;whiteSpace=wrap;connectable=0;overflow=hidden;fillColor=none;top=0;left=0;bottom=0;right=0;" vertex="1" parent="MG6lyERmRnh1HpZcy8s1-236">
          <mxGeometry x="120" width="60" height="40" as="geometry" />
        </mxCell>
        <mxCell id="MG6lyERmRnh1HpZcy8s1-240" value="15" style="shape=partialRectangle;html=1;whiteSpace=wrap;connectable=0;overflow=hidden;fillColor=none;top=0;left=0;bottom=0;right=0;" vertex="1" parent="MG6lyERmRnh1HpZcy8s1-236">
          <mxGeometry x="180" width="60" height="40" as="geometry" />
        </mxCell>
        <mxCell id="MG6lyERmRnh1HpZcy8s1-241" value="10" style="shape=partialRectangle;html=1;whiteSpace=wrap;connectable=0;overflow=hidden;fillColor=none;top=0;left=0;bottom=0;right=0;" vertex="1" parent="MG6lyERmRnh1HpZcy8s1-236">
          <mxGeometry x="240" width="60" height="40" as="geometry" />
        </mxCell>
        <mxCell id="MG6lyERmRnh1HpZcy8s1-242" value="8" style="shape=partialRectangle;html=1;whiteSpace=wrap;connectable=0;overflow=hidden;fillColor=none;top=0;left=0;bottom=0;right=0;" vertex="1" parent="MG6lyERmRnh1HpZcy8s1-236">
          <mxGeometry x="300" width="60" height="40" as="geometry" />
        </mxCell>
        <mxCell id="MG6lyERmRnh1HpZcy8s1-243" value="16" style="shape=partialRectangle;html=1;whiteSpace=wrap;connectable=0;overflow=hidden;fillColor=none;top=0;left=0;bottom=0;right=0;" vertex="1" parent="MG6lyERmRnh1HpZcy8s1-236">
          <mxGeometry x="360" width="60" height="40" as="geometry" />
        </mxCell>
        <mxCell id="MG6lyERmRnh1HpZcy8s1-269" style="shape=partialRectangle;html=1;whiteSpace=wrap;connectable=0;overflow=hidden;fillColor=none;top=0;left=0;bottom=0;right=0;" vertex="1" parent="MG6lyERmRnh1HpZcy8s1-236">
          <mxGeometry x="420" width="60" height="40" as="geometry" />
        </mxCell>
        <mxCell id="MG6lyERmRnh1HpZcy8s1-244" value="1" style="text;html=1;align=center;verticalAlign=middle;resizable=0;points=[];autosize=1;" vertex="1" parent="1">
          <mxGeometry x="-838" y="710" width="20" height="20" as="geometry" />
        </mxCell>
        <mxCell id="MG6lyERmRnh1HpZcy8s1-245" value="2" style="text;html=1;align=center;verticalAlign=middle;resizable=0;points=[];autosize=1;" vertex="1" parent="1">
          <mxGeometry x="-778" y="710" width="20" height="20" as="geometry" />
        </mxCell>
        <mxCell id="MG6lyERmRnh1HpZcy8s1-246" value="3" style="text;html=1;align=center;verticalAlign=middle;resizable=0;points=[];autosize=1;" vertex="1" parent="1">
          <mxGeometry x="-718" y="710" width="20" height="20" as="geometry" />
        </mxCell>
        <mxCell id="MG6lyERmRnh1HpZcy8s1-247" value="4" style="text;html=1;align=center;verticalAlign=middle;resizable=0;points=[];autosize=1;" vertex="1" parent="1">
          <mxGeometry x="-658" y="710" width="20" height="20" as="geometry" />
        </mxCell>
        <mxCell id="MG6lyERmRnh1HpZcy8s1-248" value="5" style="text;html=1;align=center;verticalAlign=middle;resizable=0;points=[];autosize=1;" vertex="1" parent="1">
          <mxGeometry x="-598" y="710" width="20" height="20" as="geometry" />
        </mxCell>
        <mxCell id="MG6lyERmRnh1HpZcy8s1-249" value="6" style="text;html=1;align=center;verticalAlign=middle;resizable=0;points=[];autosize=1;" vertex="1" parent="1">
          <mxGeometry x="-538" y="710" width="20" height="20" as="geometry" />
        </mxCell>
        <mxCell id="MG6lyERmRnh1HpZcy8s1-250" value="7" style="text;html=1;align=center;verticalAlign=middle;resizable=0;points=[];autosize=1;" vertex="1" parent="1">
          <mxGeometry x="-478" y="710" width="20" height="20" as="geometry" />
        </mxCell>
        <mxCell id="MG6lyERmRnh1HpZcy8s1-251" value="max heap" style="text;html=1;align=center;verticalAlign=middle;resizable=0;points=[];autosize=1;" vertex="1" parent="1">
          <mxGeometry x="-683" y="380" width="70" height="20" as="geometry" />
        </mxCell>
        <mxCell id="MG6lyERmRnh1HpZcy8s1-252" value="60" style="text;html=1;align=center;verticalAlign=middle;resizable=0;points=[];autosize=1;fontSize=18;" vertex="1" parent="1">
          <mxGeometry x="-725" y="415" width="40" height="30" as="geometry" />
        </mxCell>
        <mxCell id="MG6lyERmRnh1HpZcy8s1-270" value="8" style="text;html=1;align=center;verticalAlign=middle;resizable=0;points=[];autosize=1;" vertex="1" parent="1">
          <mxGeometry x="-420" y="710" width="20" height="20" as="geometry" />
        </mxCell>
        <mxCell id="MG6lyERmRnh1HpZcy8s1-271" value="60" style="ellipse;whiteSpace=wrap;html=1;aspect=fixed;" vertex="1" parent="1">
          <mxGeometry x="-144" y="400" width="40" height="40" as="geometry" />
        </mxCell>
        <mxCell id="MG6lyERmRnh1HpZcy8s1-272" value="" style="endArrow=none;html=1;entryX=0;entryY=1;entryDx=0;entryDy=0;exitX=0.5;exitY=0;exitDx=0;exitDy=0;" edge="1" source="MG6lyERmRnh1HpZcy8s1-273" target="MG6lyERmRnh1HpZcy8s1-271" parent="1">
          <mxGeometry width="50" height="50" relative="1" as="geometry">
            <mxPoint x="-174" y="480" as="sourcePoint" />
            <mxPoint x="-144" y="430" as="targetPoint" />
          </mxGeometry>
        </mxCell>
        <mxCell id="MG6lyERmRnh1HpZcy8s1-273" value="30" style="ellipse;whiteSpace=wrap;html=1;aspect=fixed;" vertex="1" parent="1">
          <mxGeometry x="-224" y="480" width="40" height="40" as="geometry" />
        </mxCell>
        <mxCell id="MG6lyERmRnh1HpZcy8s1-274" value="50" style="ellipse;whiteSpace=wrap;html=1;aspect=fixed;" vertex="1" parent="1">
          <mxGeometry x="-54" y="480" width="40" height="40" as="geometry" />
        </mxCell>
        <mxCell id="MG6lyERmRnh1HpZcy8s1-275" value="" style="endArrow=none;html=1;entryX=1;entryY=1;entryDx=0;entryDy=0;exitX=0.5;exitY=0;exitDx=0;exitDy=0;exitPerimeter=0;" edge="1" source="MG6lyERmRnh1HpZcy8s1-274" target="MG6lyERmRnh1HpZcy8s1-271" parent="1">
          <mxGeometry width="50" height="50" relative="1" as="geometry">
            <mxPoint x="-34" y="490" as="sourcePoint" />
            <mxPoint x="-128.14213562373106" y="444.14213562373106" as="targetPoint" />
          </mxGeometry>
        </mxCell>
        <mxCell id="MG6lyERmRnh1HpZcy8s1-276" value="15" style="ellipse;whiteSpace=wrap;html=1;aspect=fixed;" vertex="1" parent="1">
          <mxGeometry x="-274" y="550" width="40" height="40" as="geometry" />
        </mxCell>
        <mxCell id="MG6lyERmRnh1HpZcy8s1-277" value="10" style="ellipse;whiteSpace=wrap;html=1;aspect=fixed;" vertex="1" parent="1">
          <mxGeometry x="-184" y="550" width="40" height="40" as="geometry" />
        </mxCell>
        <mxCell id="MG6lyERmRnh1HpZcy8s1-278" value="8" style="ellipse;whiteSpace=wrap;html=1;aspect=fixed;" vertex="1" parent="1">
          <mxGeometry x="-94" y="550" width="40" height="40" as="geometry" />
        </mxCell>
        <mxCell id="MG6lyERmRnh1HpZcy8s1-279" value="20" style="ellipse;whiteSpace=wrap;html=1;aspect=fixed;" vertex="1" parent="1">
          <mxGeometry x="-4" y="550" width="40" height="40" as="geometry" />
        </mxCell>
        <mxCell id="MG6lyERmRnh1HpZcy8s1-280" value="" style="endArrow=none;html=1;entryX=0;entryY=1;entryDx=0;entryDy=0;" edge="1" target="MG6lyERmRnh1HpZcy8s1-273" parent="1">
          <mxGeometry width="50" height="50" relative="1" as="geometry">
            <mxPoint x="-244" y="550" as="sourcePoint" />
            <mxPoint x="-204" y="520" as="targetPoint" />
          </mxGeometry>
        </mxCell>
        <mxCell id="MG6lyERmRnh1HpZcy8s1-281" value="" style="endArrow=none;html=1;entryX=1;entryY=1;entryDx=0;entryDy=0;exitX=0.325;exitY=-0.075;exitDx=0;exitDy=0;exitPerimeter=0;" edge="1" source="MG6lyERmRnh1HpZcy8s1-277" target="MG6lyERmRnh1HpZcy8s1-273" parent="1">
          <mxGeometry width="50" height="50" relative="1" as="geometry">
            <mxPoint x="-234" y="560" as="sourcePoint" />
            <mxPoint x="-208.14213562373106" y="524.1421356237311" as="targetPoint" />
          </mxGeometry>
        </mxCell>
        <mxCell id="MG6lyERmRnh1HpZcy8s1-282" value="" style="endArrow=none;html=1;entryX=0;entryY=1;entryDx=0;entryDy=0;exitX=0.25;exitY=0;exitDx=0;exitDy=0;exitPerimeter=0;" edge="1" source="MG6lyERmRnh1HpZcy8s1-279" parent="1">
          <mxGeometry width="50" height="50" relative="1" as="geometry">
            <mxPoint x="-46.930000000000064" y="550" as="sourcePoint" />
            <mxPoint x="-21.0721356237309" y="514.1421356237311" as="targetPoint" />
          </mxGeometry>
        </mxCell>
        <mxCell id="MG6lyERmRnh1HpZcy8s1-283" value="" style="endArrow=none;html=1;entryX=0;entryY=1;entryDx=0;entryDy=0;exitX=0.5;exitY=0;exitDx=0;exitDy=0;" edge="1" source="MG6lyERmRnh1HpZcy8s1-278" target="MG6lyERmRnh1HpZcy8s1-274" parent="1">
          <mxGeometry width="50" height="50" relative="1" as="geometry">
            <mxPoint x="-214" y="580" as="sourcePoint" />
            <mxPoint x="-188.14213562373106" y="544.1421356237311" as="targetPoint" />
          </mxGeometry>
        </mxCell>
        <mxCell id="MG6lyERmRnh1HpZcy8s1-284" value="" style="shape=table;html=1;whiteSpace=wrap;startSize=0;container=1;collapsible=0;childLayout=tableLayout;" vertex="1" parent="1">
          <mxGeometry x="-350" y="660" width="660" height="40" as="geometry" />
        </mxCell>
        <mxCell id="MG6lyERmRnh1HpZcy8s1-285" value="" style="shape=partialRectangle;html=1;whiteSpace=wrap;collapsible=0;dropTarget=0;pointerEvents=0;fillColor=none;top=0;left=0;bottom=0;right=0;points=[[0,0.5],[1,0.5]];portConstraint=eastwest;" vertex="1" parent="MG6lyERmRnh1HpZcy8s1-284">
          <mxGeometry width="660" height="40" as="geometry" />
        </mxCell>
        <mxCell id="MG6lyERmRnh1HpZcy8s1-286" value="60" style="shape=partialRectangle;html=1;whiteSpace=wrap;connectable=0;overflow=hidden;fillColor=none;top=0;left=0;bottom=0;right=0;" vertex="1" parent="MG6lyERmRnh1HpZcy8s1-285">
          <mxGeometry width="60" height="40" as="geometry" />
        </mxCell>
        <mxCell id="MG6lyERmRnh1HpZcy8s1-287" value="30" style="shape=partialRectangle;html=1;whiteSpace=wrap;connectable=0;overflow=hidden;fillColor=none;top=0;left=0;bottom=0;right=0;" vertex="1" parent="MG6lyERmRnh1HpZcy8s1-285">
          <mxGeometry x="60" width="60" height="40" as="geometry" />
        </mxCell>
        <mxCell id="MG6lyERmRnh1HpZcy8s1-288" value="50" style="shape=partialRectangle;html=1;whiteSpace=wrap;connectable=0;overflow=hidden;fillColor=none;top=0;left=0;bottom=0;right=0;" vertex="1" parent="MG6lyERmRnh1HpZcy8s1-285">
          <mxGeometry x="120" width="60" height="40" as="geometry" />
        </mxCell>
        <mxCell id="MG6lyERmRnh1HpZcy8s1-289" value="15" style="shape=partialRectangle;html=1;whiteSpace=wrap;connectable=0;overflow=hidden;fillColor=none;top=0;left=0;bottom=0;right=0;" vertex="1" parent="MG6lyERmRnh1HpZcy8s1-285">
          <mxGeometry x="180" width="60" height="40" as="geometry" />
        </mxCell>
        <mxCell id="MG6lyERmRnh1HpZcy8s1-290" value="10" style="shape=partialRectangle;html=1;whiteSpace=wrap;connectable=0;overflow=hidden;fillColor=none;top=0;left=0;bottom=0;right=0;" vertex="1" parent="MG6lyERmRnh1HpZcy8s1-285">
          <mxGeometry x="240" width="60" height="40" as="geometry" />
        </mxCell>
        <mxCell id="MG6lyERmRnh1HpZcy8s1-291" value="8" style="shape=partialRectangle;html=1;whiteSpace=wrap;connectable=0;overflow=hidden;fillColor=none;top=0;left=0;bottom=0;right=0;" vertex="1" parent="MG6lyERmRnh1HpZcy8s1-285">
          <mxGeometry x="300" width="60" height="40" as="geometry" />
        </mxCell>
        <mxCell id="MG6lyERmRnh1HpZcy8s1-292" value="20" style="shape=partialRectangle;html=1;whiteSpace=wrap;connectable=0;overflow=hidden;fillColor=none;top=0;left=0;bottom=0;right=0;" vertex="1" parent="MG6lyERmRnh1HpZcy8s1-285">
          <mxGeometry x="360" width="60" height="40" as="geometry" />
        </mxCell>
        <mxCell id="MG6lyERmRnh1HpZcy8s1-293" value="#" style="shape=partialRectangle;html=1;whiteSpace=wrap;connectable=0;overflow=hidden;fillColor=none;top=0;left=0;bottom=0;right=0;" vertex="1" parent="MG6lyERmRnh1HpZcy8s1-285">
          <mxGeometry x="420" width="60" height="40" as="geometry" />
        </mxCell>
        <mxCell id="MG6lyERmRnh1HpZcy8s1-309" value="#" style="shape=partialRectangle;html=1;whiteSpace=wrap;connectable=0;overflow=hidden;fillColor=none;top=0;left=0;bottom=0;right=0;" vertex="1" parent="MG6lyERmRnh1HpZcy8s1-285">
          <mxGeometry x="480" width="60" height="40" as="geometry" />
        </mxCell>
        <mxCell id="MG6lyERmRnh1HpZcy8s1-308" value="#" style="shape=partialRectangle;html=1;whiteSpace=wrap;connectable=0;overflow=hidden;fillColor=none;top=0;left=0;bottom=0;right=0;" vertex="1" parent="MG6lyERmRnh1HpZcy8s1-285">
          <mxGeometry x="540" width="60" height="40" as="geometry" />
        </mxCell>
        <mxCell id="MG6lyERmRnh1HpZcy8s1-307" value="#" style="shape=partialRectangle;html=1;whiteSpace=wrap;connectable=0;overflow=hidden;fillColor=none;top=0;left=0;bottom=0;right=0;" vertex="1" parent="MG6lyERmRnh1HpZcy8s1-285">
          <mxGeometry x="600" width="60" height="40" as="geometry" />
        </mxCell>
        <mxCell id="MG6lyERmRnh1HpZcy8s1-294" value="1" style="text;html=1;align=center;verticalAlign=middle;resizable=0;points=[];autosize=1;" vertex="1" parent="1">
          <mxGeometry x="-330" y="710" width="20" height="20" as="geometry" />
        </mxCell>
        <mxCell id="MG6lyERmRnh1HpZcy8s1-295" value="2" style="text;html=1;align=center;verticalAlign=middle;resizable=0;points=[];autosize=1;" vertex="1" parent="1">
          <mxGeometry x="-264" y="710" width="20" height="20" as="geometry" />
        </mxCell>
        <mxCell id="MG6lyERmRnh1HpZcy8s1-296" value="3" style="text;html=1;align=center;verticalAlign=middle;resizable=0;points=[];autosize=1;" vertex="1" parent="1">
          <mxGeometry x="-204" y="710" width="20" height="20" as="geometry" />
        </mxCell>
        <mxCell id="MG6lyERmRnh1HpZcy8s1-297" value="4" style="text;html=1;align=center;verticalAlign=middle;resizable=0;points=[];autosize=1;" vertex="1" parent="1">
          <mxGeometry x="-140" y="710" width="20" height="20" as="geometry" />
        </mxCell>
        <mxCell id="MG6lyERmRnh1HpZcy8s1-298" value="5" style="text;html=1;align=center;verticalAlign=middle;resizable=0;points=[];autosize=1;" vertex="1" parent="1">
          <mxGeometry x="-74" y="710" width="20" height="20" as="geometry" />
        </mxCell>
        <mxCell id="MG6lyERmRnh1HpZcy8s1-299" value="6" style="text;html=1;align=center;verticalAlign=middle;resizable=0;points=[];autosize=1;" vertex="1" parent="1">
          <mxGeometry x="-14" y="710" width="20" height="20" as="geometry" />
        </mxCell>
        <mxCell id="MG6lyERmRnh1HpZcy8s1-300" value="7" style="text;html=1;align=center;verticalAlign=middle;resizable=0;points=[];autosize=1;" vertex="1" parent="1">
          <mxGeometry x="42" y="710" width="20" height="20" as="geometry" />
        </mxCell>
        <mxCell id="MG6lyERmRnh1HpZcy8s1-301" value="max heap" style="text;html=1;align=center;verticalAlign=middle;resizable=0;points=[];autosize=1;" vertex="1" parent="1">
          <mxGeometry x="-155" y="370" width="70" height="20" as="geometry" />
        </mxCell>
        <mxCell id="MG6lyERmRnh1HpZcy8s1-303" value="8" style="text;html=1;align=center;verticalAlign=middle;resizable=0;points=[];autosize=1;" vertex="1" parent="1">
          <mxGeometry x="100" y="710" width="20" height="20" as="geometry" />
        </mxCell>
        <mxCell id="MG6lyERmRnh1HpZcy8s1-304" value="" style="endArrow=none;html=1;entryX=1;entryY=1;entryDx=0;entryDy=0;exitX=0.35;exitY=-0.025;exitDx=0;exitDy=0;exitPerimeter=0;" edge="1" parent="1" source="MG6lyERmRnh1HpZcy8s1-305" target="MG6lyERmRnh1HpZcy8s1-279">
          <mxGeometry width="50" height="50" relative="1" as="geometry">
            <mxPoint x="50" y="620" as="sourcePoint" />
            <mxPoint x="-11.072135623730901" y="524.1421356237311" as="targetPoint" />
          </mxGeometry>
        </mxCell>
        <mxCell id="MG6lyERmRnh1HpZcy8s1-305" value="16" style="ellipse;whiteSpace=wrap;html=1;aspect=fixed;" vertex="1" parent="1">
          <mxGeometry x="42" y="610" width="40" height="40" as="geometry" />
        </mxCell>
        <mxCell id="MG6lyERmRnh1HpZcy8s1-306" value="" style="shape=flexArrow;endArrow=classic;html=1;fontSize=18;" edge="1" parent="1">
          <mxGeometry width="50" height="50" relative="1" as="geometry">
            <mxPoint x="-440" y="500" as="sourcePoint" />
            <mxPoint x="-300" y="500" as="targetPoint" />
          </mxGeometry>
        </mxCell>
        <mxCell id="MG6lyERmRnh1HpZcy8s1-310" value="50" style="ellipse;whiteSpace=wrap;html=1;aspect=fixed;" vertex="1" parent="1">
          <mxGeometry x="-664" y="820" width="40" height="40" as="geometry" />
        </mxCell>
        <mxCell id="MG6lyERmRnh1HpZcy8s1-311" value="" style="endArrow=none;html=1;entryX=0;entryY=1;entryDx=0;entryDy=0;exitX=0.5;exitY=0;exitDx=0;exitDy=0;" edge="1" source="MG6lyERmRnh1HpZcy8s1-312" target="MG6lyERmRnh1HpZcy8s1-310" parent="1">
          <mxGeometry width="50" height="50" relative="1" as="geometry">
            <mxPoint x="-694" y="900" as="sourcePoint" />
            <mxPoint x="-664" y="850" as="targetPoint" />
          </mxGeometry>
        </mxCell>
        <mxCell id="MG6lyERmRnh1HpZcy8s1-312" value="30" style="ellipse;whiteSpace=wrap;html=1;aspect=fixed;" vertex="1" parent="1">
          <mxGeometry x="-744" y="900" width="40" height="40" as="geometry" />
        </mxCell>
        <mxCell id="MG6lyERmRnh1HpZcy8s1-313" value="20" style="ellipse;whiteSpace=wrap;html=1;aspect=fixed;" vertex="1" parent="1">
          <mxGeometry x="-574" y="900" width="40" height="40" as="geometry" />
        </mxCell>
        <mxCell id="MG6lyERmRnh1HpZcy8s1-314" value="" style="endArrow=none;html=1;entryX=1;entryY=1;entryDx=0;entryDy=0;exitX=0.5;exitY=0;exitDx=0;exitDy=0;exitPerimeter=0;" edge="1" source="MG6lyERmRnh1HpZcy8s1-313" target="MG6lyERmRnh1HpZcy8s1-310" parent="1">
          <mxGeometry width="50" height="50" relative="1" as="geometry">
            <mxPoint x="-554" y="910" as="sourcePoint" />
            <mxPoint x="-648.1421356237311" y="864.1421356237311" as="targetPoint" />
          </mxGeometry>
        </mxCell>
        <mxCell id="MG6lyERmRnh1HpZcy8s1-315" value="15" style="ellipse;whiteSpace=wrap;html=1;aspect=fixed;" vertex="1" parent="1">
          <mxGeometry x="-794" y="970" width="40" height="40" as="geometry" />
        </mxCell>
        <mxCell id="MG6lyERmRnh1HpZcy8s1-316" value="10" style="ellipse;whiteSpace=wrap;html=1;aspect=fixed;" vertex="1" parent="1">
          <mxGeometry x="-704" y="970" width="40" height="40" as="geometry" />
        </mxCell>
        <mxCell id="MG6lyERmRnh1HpZcy8s1-317" value="8" style="ellipse;whiteSpace=wrap;html=1;aspect=fixed;" vertex="1" parent="1">
          <mxGeometry x="-614" y="970" width="40" height="40" as="geometry" />
        </mxCell>
        <mxCell id="MG6lyERmRnh1HpZcy8s1-318" value="16" style="ellipse;whiteSpace=wrap;html=1;aspect=fixed;" vertex="1" parent="1">
          <mxGeometry x="-524" y="970" width="40" height="40" as="geometry" />
        </mxCell>
        <mxCell id="MG6lyERmRnh1HpZcy8s1-319" value="" style="endArrow=none;html=1;entryX=0;entryY=1;entryDx=0;entryDy=0;" edge="1" target="MG6lyERmRnh1HpZcy8s1-312" parent="1">
          <mxGeometry width="50" height="50" relative="1" as="geometry">
            <mxPoint x="-764" y="970" as="sourcePoint" />
            <mxPoint x="-724" y="940" as="targetPoint" />
          </mxGeometry>
        </mxCell>
        <mxCell id="MG6lyERmRnh1HpZcy8s1-320" value="" style="endArrow=none;html=1;entryX=1;entryY=1;entryDx=0;entryDy=0;exitX=0.325;exitY=-0.075;exitDx=0;exitDy=0;exitPerimeter=0;" edge="1" source="MG6lyERmRnh1HpZcy8s1-316" target="MG6lyERmRnh1HpZcy8s1-312" parent="1">
          <mxGeometry width="50" height="50" relative="1" as="geometry">
            <mxPoint x="-754" y="980" as="sourcePoint" />
            <mxPoint x="-728.1421356237311" y="944.1421356237311" as="targetPoint" />
          </mxGeometry>
        </mxCell>
        <mxCell id="MG6lyERmRnh1HpZcy8s1-321" value="" style="endArrow=none;html=1;entryX=0;entryY=1;entryDx=0;entryDy=0;exitX=0.25;exitY=0;exitDx=0;exitDy=0;exitPerimeter=0;" edge="1" source="MG6lyERmRnh1HpZcy8s1-318" parent="1">
          <mxGeometry width="50" height="50" relative="1" as="geometry">
            <mxPoint x="-566.9300000000001" y="970" as="sourcePoint" />
            <mxPoint x="-541.0721356237309" y="934.1421356237311" as="targetPoint" />
          </mxGeometry>
        </mxCell>
        <mxCell id="MG6lyERmRnh1HpZcy8s1-322" value="" style="endArrow=none;html=1;entryX=0;entryY=1;entryDx=0;entryDy=0;exitX=0.5;exitY=0;exitDx=0;exitDy=0;" edge="1" source="MG6lyERmRnh1HpZcy8s1-317" target="MG6lyERmRnh1HpZcy8s1-313" parent="1">
          <mxGeometry width="50" height="50" relative="1" as="geometry">
            <mxPoint x="-734" y="1000" as="sourcePoint" />
            <mxPoint x="-708.1421356237311" y="964.1421356237311" as="targetPoint" />
          </mxGeometry>
        </mxCell>
        <mxCell id="MG6lyERmRnh1HpZcy8s1-323" value="" style="shape=table;html=1;whiteSpace=wrap;startSize=0;container=1;collapsible=0;childLayout=tableLayout;" vertex="1" parent="1">
          <mxGeometry x="-866" y="1108" width="480" height="40" as="geometry" />
        </mxCell>
        <mxCell id="MG6lyERmRnh1HpZcy8s1-324" value="" style="shape=partialRectangle;html=1;whiteSpace=wrap;collapsible=0;dropTarget=0;pointerEvents=0;fillColor=none;top=0;left=0;bottom=0;right=0;points=[[0,0.5],[1,0.5]];portConstraint=eastwest;" vertex="1" parent="MG6lyERmRnh1HpZcy8s1-323">
          <mxGeometry width="480" height="40" as="geometry" />
        </mxCell>
        <mxCell id="MG6lyERmRnh1HpZcy8s1-325" value="50" style="shape=partialRectangle;html=1;whiteSpace=wrap;connectable=0;overflow=hidden;fillColor=none;top=0;left=0;bottom=0;right=0;" vertex="1" parent="MG6lyERmRnh1HpZcy8s1-324">
          <mxGeometry width="60" height="40" as="geometry" />
        </mxCell>
        <mxCell id="MG6lyERmRnh1HpZcy8s1-326" value="30" style="shape=partialRectangle;html=1;whiteSpace=wrap;connectable=0;overflow=hidden;fillColor=none;top=0;left=0;bottom=0;right=0;" vertex="1" parent="MG6lyERmRnh1HpZcy8s1-324">
          <mxGeometry x="60" width="60" height="40" as="geometry" />
        </mxCell>
        <mxCell id="MG6lyERmRnh1HpZcy8s1-327" value="20" style="shape=partialRectangle;html=1;whiteSpace=wrap;connectable=0;overflow=hidden;fillColor=none;top=0;left=0;bottom=0;right=0;" vertex="1" parent="MG6lyERmRnh1HpZcy8s1-324">
          <mxGeometry x="120" width="60" height="40" as="geometry" />
        </mxCell>
        <mxCell id="MG6lyERmRnh1HpZcy8s1-328" value="15" style="shape=partialRectangle;html=1;whiteSpace=wrap;connectable=0;overflow=hidden;fillColor=none;top=0;left=0;bottom=0;right=0;" vertex="1" parent="MG6lyERmRnh1HpZcy8s1-324">
          <mxGeometry x="180" width="60" height="40" as="geometry" />
        </mxCell>
        <mxCell id="MG6lyERmRnh1HpZcy8s1-329" value="10" style="shape=partialRectangle;html=1;whiteSpace=wrap;connectable=0;overflow=hidden;fillColor=none;top=0;left=0;bottom=0;right=0;" vertex="1" parent="MG6lyERmRnh1HpZcy8s1-324">
          <mxGeometry x="240" width="60" height="40" as="geometry" />
        </mxCell>
        <mxCell id="MG6lyERmRnh1HpZcy8s1-330" value="8" style="shape=partialRectangle;html=1;whiteSpace=wrap;connectable=0;overflow=hidden;fillColor=none;top=0;left=0;bottom=0;right=0;" vertex="1" parent="MG6lyERmRnh1HpZcy8s1-324">
          <mxGeometry x="300" width="60" height="40" as="geometry" />
        </mxCell>
        <mxCell id="MG6lyERmRnh1HpZcy8s1-331" value="16" style="shape=partialRectangle;html=1;whiteSpace=wrap;connectable=0;overflow=hidden;fillColor=none;top=0;left=0;bottom=0;right=0;" vertex="1" parent="MG6lyERmRnh1HpZcy8s1-324">
          <mxGeometry x="360" width="60" height="40" as="geometry" />
        </mxCell>
        <mxCell id="MG6lyERmRnh1HpZcy8s1-332" value="&lt;font style=&quot;font-size: 18px&quot;&gt;60&lt;/font&gt;" style="shape=partialRectangle;html=1;whiteSpace=wrap;connectable=0;overflow=hidden;fillColor=none;top=0;left=0;bottom=0;right=0;" vertex="1" parent="MG6lyERmRnh1HpZcy8s1-324">
          <mxGeometry x="420" width="60" height="40" as="geometry" />
        </mxCell>
        <mxCell id="MG6lyERmRnh1HpZcy8s1-387" value="" style="curved=1;endArrow=classic;html=1;fontSize=18;entryX=0.185;entryY=0.025;entryDx=0;entryDy=0;entryPerimeter=0;exitX=0.435;exitY=0.025;exitDx=0;exitDy=0;exitPerimeter=0;" edge="1" parent="MG6lyERmRnh1HpZcy8s1-323" source="MG6lyERmRnh1HpZcy8s1-324" target="MG6lyERmRnh1HpZcy8s1-324">
          <mxGeometry width="50" height="50" relative="1" as="geometry">
            <mxPoint x="456" y="2" as="sourcePoint" />
            <mxPoint x="223.1199999999999" y="10" as="targetPoint" />
            <Array as="points">
              <mxPoint x="216" y="-48" />
              <mxPoint x="136" y="-38" />
            </Array>
          </mxGeometry>
        </mxCell>
        <mxCell id="MG6lyERmRnh1HpZcy8s1-333" value="1" style="text;html=1;align=center;verticalAlign=middle;resizable=0;points=[];autosize=1;" vertex="1" parent="1">
          <mxGeometry x="-844" y="1155" width="20" height="20" as="geometry" />
        </mxCell>
        <mxCell id="MG6lyERmRnh1HpZcy8s1-334" value="2" style="text;html=1;align=center;verticalAlign=middle;resizable=0;points=[];autosize=1;" vertex="1" parent="1">
          <mxGeometry x="-784" y="1155" width="20" height="20" as="geometry" />
        </mxCell>
        <mxCell id="MG6lyERmRnh1HpZcy8s1-335" value="3" style="text;html=1;align=center;verticalAlign=middle;resizable=0;points=[];autosize=1;" vertex="1" parent="1">
          <mxGeometry x="-724" y="1155" width="20" height="20" as="geometry" />
        </mxCell>
        <mxCell id="MG6lyERmRnh1HpZcy8s1-336" value="4" style="text;html=1;align=center;verticalAlign=middle;resizable=0;points=[];autosize=1;" vertex="1" parent="1">
          <mxGeometry x="-664" y="1155" width="20" height="20" as="geometry" />
        </mxCell>
        <mxCell id="MG6lyERmRnh1HpZcy8s1-337" value="5" style="text;html=1;align=center;verticalAlign=middle;resizable=0;points=[];autosize=1;" vertex="1" parent="1">
          <mxGeometry x="-604" y="1155" width="20" height="20" as="geometry" />
        </mxCell>
        <mxCell id="MG6lyERmRnh1HpZcy8s1-338" value="6" style="text;html=1;align=center;verticalAlign=middle;resizable=0;points=[];autosize=1;" vertex="1" parent="1">
          <mxGeometry x="-544" y="1155" width="20" height="20" as="geometry" />
        </mxCell>
        <mxCell id="MG6lyERmRnh1HpZcy8s1-339" value="7" style="text;html=1;align=center;verticalAlign=middle;resizable=0;points=[];autosize=1;" vertex="1" parent="1">
          <mxGeometry x="-484" y="1155" width="20" height="20" as="geometry" />
        </mxCell>
        <mxCell id="MG6lyERmRnh1HpZcy8s1-340" value="max heap" style="text;html=1;align=center;verticalAlign=middle;resizable=0;points=[];autosize=1;" vertex="1" parent="1">
          <mxGeometry x="-683" y="780" width="70" height="20" as="geometry" />
        </mxCell>
        <mxCell id="MG6lyERmRnh1HpZcy8s1-342" value="8" style="text;html=1;align=center;verticalAlign=middle;resizable=0;points=[];autosize=1;" vertex="1" parent="1">
          <mxGeometry x="-426" y="1155" width="20" height="20" as="geometry" />
        </mxCell>
        <mxCell id="MG6lyERmRnh1HpZcy8s1-343" value="" style="endArrow=none;html=1;entryX=0;entryY=1;entryDx=0;entryDy=0;" edge="1" parent="1" target="MG6lyERmRnh1HpZcy8s1-315">
          <mxGeometry width="50" height="50" relative="1" as="geometry">
            <mxPoint x="-810" y="1040" as="sourcePoint" />
            <mxPoint x="-728.1421356237311" y="944.1421356237311" as="targetPoint" />
          </mxGeometry>
        </mxCell>
        <mxCell id="MG6lyERmRnh1HpZcy8s1-344" value="60" style="ellipse;whiteSpace=wrap;html=1;aspect=fixed;" vertex="1" parent="1">
          <mxGeometry x="-840" y="1040" width="40" height="40" as="geometry" />
        </mxCell>
        <mxCell id="MG6lyERmRnh1HpZcy8s1-345" value="" style="curved=1;endArrow=classic;html=1;fontSize=18;exitX=0;exitY=0;exitDx=0;exitDy=0;entryX=0.05;entryY=0.35;entryDx=0;entryDy=0;entryPerimeter=0;" edge="1" parent="1" source="MG6lyERmRnh1HpZcy8s1-344" target="MG6lyERmRnh1HpZcy8s1-315">
          <mxGeometry width="50" height="50" relative="1" as="geometry">
            <mxPoint x="-910" y="1060" as="sourcePoint" />
            <mxPoint x="-860" y="1010" as="targetPoint" />
            <Array as="points">
              <mxPoint x="-850" y="1030" />
              <mxPoint x="-840" y="990" />
            </Array>
          </mxGeometry>
        </mxCell>
        <mxCell id="MG6lyERmRnh1HpZcy8s1-346" value="" style="curved=1;endArrow=classic;html=1;fontSize=18;exitX=0;exitY=0;exitDx=0;exitDy=0;entryX=0.05;entryY=0.35;entryDx=0;entryDy=0;entryPerimeter=0;" edge="1" parent="1">
          <mxGeometry width="50" height="50" relative="1" as="geometry">
            <mxPoint x="-786.1421356237311" y="971.8578643762689" as="sourcePoint" />
            <mxPoint x="-744" y="910" as="targetPoint" />
            <Array as="points">
              <mxPoint x="-802" y="956" />
              <mxPoint x="-792" y="916" />
            </Array>
          </mxGeometry>
        </mxCell>
        <mxCell id="MG6lyERmRnh1HpZcy8s1-347" value="" style="curved=1;endArrow=classic;html=1;fontSize=18;exitX=0;exitY=0;exitDx=0;exitDy=0;entryX=0;entryY=0.325;entryDx=0;entryDy=0;entryPerimeter=0;" edge="1" parent="1" target="MG6lyERmRnh1HpZcy8s1-310">
          <mxGeometry width="50" height="50" relative="1" as="geometry">
            <mxPoint x="-736.1421356237311" y="901.8578643762689" as="sourcePoint" />
            <mxPoint x="-694" y="840" as="targetPoint" />
            <Array as="points">
              <mxPoint x="-752" y="886" />
              <mxPoint x="-742" y="846" />
            </Array>
          </mxGeometry>
        </mxCell>
        <mxCell id="MG6lyERmRnh1HpZcy8s1-349" value="60" style="ellipse;whiteSpace=wrap;html=1;aspect=fixed;" vertex="1" parent="1">
          <mxGeometry x="-139" y="820" width="40" height="40" as="geometry" />
        </mxCell>
        <mxCell id="MG6lyERmRnh1HpZcy8s1-350" value="" style="endArrow=none;html=1;entryX=0;entryY=1;entryDx=0;entryDy=0;exitX=0.5;exitY=0;exitDx=0;exitDy=0;" edge="1" source="MG6lyERmRnh1HpZcy8s1-351" target="MG6lyERmRnh1HpZcy8s1-349" parent="1">
          <mxGeometry width="50" height="50" relative="1" as="geometry">
            <mxPoint x="-169" y="900" as="sourcePoint" />
            <mxPoint x="-139" y="850" as="targetPoint" />
          </mxGeometry>
        </mxCell>
        <mxCell id="MG6lyERmRnh1HpZcy8s1-351" value="50" style="ellipse;whiteSpace=wrap;html=1;aspect=fixed;" vertex="1" parent="1">
          <mxGeometry x="-219" y="900" width="40" height="40" as="geometry" />
        </mxCell>
        <mxCell id="MG6lyERmRnh1HpZcy8s1-352" value="20" style="ellipse;whiteSpace=wrap;html=1;aspect=fixed;" vertex="1" parent="1">
          <mxGeometry x="-49" y="900" width="40" height="40" as="geometry" />
        </mxCell>
        <mxCell id="MG6lyERmRnh1HpZcy8s1-353" value="" style="endArrow=none;html=1;entryX=1;entryY=1;entryDx=0;entryDy=0;exitX=0.5;exitY=0;exitDx=0;exitDy=0;exitPerimeter=0;" edge="1" source="MG6lyERmRnh1HpZcy8s1-352" target="MG6lyERmRnh1HpZcy8s1-349" parent="1">
          <mxGeometry width="50" height="50" relative="1" as="geometry">
            <mxPoint x="-29" y="910" as="sourcePoint" />
            <mxPoint x="-123.14213562373106" y="864.1421356237311" as="targetPoint" />
          </mxGeometry>
        </mxCell>
        <mxCell id="MG6lyERmRnh1HpZcy8s1-354" value="30" style="ellipse;whiteSpace=wrap;html=1;aspect=fixed;" vertex="1" parent="1">
          <mxGeometry x="-269" y="970" width="40" height="40" as="geometry" />
        </mxCell>
        <mxCell id="MG6lyERmRnh1HpZcy8s1-355" value="10" style="ellipse;whiteSpace=wrap;html=1;aspect=fixed;" vertex="1" parent="1">
          <mxGeometry x="-179" y="970" width="40" height="40" as="geometry" />
        </mxCell>
        <mxCell id="MG6lyERmRnh1HpZcy8s1-356" value="8" style="ellipse;whiteSpace=wrap;html=1;aspect=fixed;" vertex="1" parent="1">
          <mxGeometry x="-89" y="970" width="40" height="40" as="geometry" />
        </mxCell>
        <mxCell id="MG6lyERmRnh1HpZcy8s1-357" value="16" style="ellipse;whiteSpace=wrap;html=1;aspect=fixed;" vertex="1" parent="1">
          <mxGeometry x="1" y="970" width="40" height="40" as="geometry" />
        </mxCell>
        <mxCell id="MG6lyERmRnh1HpZcy8s1-358" value="" style="endArrow=none;html=1;entryX=0;entryY=1;entryDx=0;entryDy=0;" edge="1" target="MG6lyERmRnh1HpZcy8s1-351" parent="1">
          <mxGeometry width="50" height="50" relative="1" as="geometry">
            <mxPoint x="-239" y="970" as="sourcePoint" />
            <mxPoint x="-199" y="940" as="targetPoint" />
          </mxGeometry>
        </mxCell>
        <mxCell id="MG6lyERmRnh1HpZcy8s1-359" value="" style="endArrow=none;html=1;entryX=1;entryY=1;entryDx=0;entryDy=0;exitX=0.325;exitY=-0.075;exitDx=0;exitDy=0;exitPerimeter=0;" edge="1" source="MG6lyERmRnh1HpZcy8s1-355" target="MG6lyERmRnh1HpZcy8s1-351" parent="1">
          <mxGeometry width="50" height="50" relative="1" as="geometry">
            <mxPoint x="-229" y="980" as="sourcePoint" />
            <mxPoint x="-203.14213562373106" y="944.1421356237311" as="targetPoint" />
          </mxGeometry>
        </mxCell>
        <mxCell id="MG6lyERmRnh1HpZcy8s1-360" value="" style="endArrow=none;html=1;entryX=0;entryY=1;entryDx=0;entryDy=0;exitX=0.25;exitY=0;exitDx=0;exitDy=0;exitPerimeter=0;" edge="1" source="MG6lyERmRnh1HpZcy8s1-357" parent="1">
          <mxGeometry width="50" height="50" relative="1" as="geometry">
            <mxPoint x="-41.930000000000064" y="970" as="sourcePoint" />
            <mxPoint x="-16.0721356237309" y="934.1421356237311" as="targetPoint" />
          </mxGeometry>
        </mxCell>
        <mxCell id="MG6lyERmRnh1HpZcy8s1-361" value="" style="endArrow=none;html=1;entryX=0;entryY=1;entryDx=0;entryDy=0;exitX=0.5;exitY=0;exitDx=0;exitDy=0;" edge="1" source="MG6lyERmRnh1HpZcy8s1-356" target="MG6lyERmRnh1HpZcy8s1-352" parent="1">
          <mxGeometry width="50" height="50" relative="1" as="geometry">
            <mxPoint x="-209" y="1000" as="sourcePoint" />
            <mxPoint x="-183.14213562373106" y="964.1421356237311" as="targetPoint" />
          </mxGeometry>
        </mxCell>
        <mxCell id="MG6lyERmRnh1HpZcy8s1-362" value="" style="shape=table;html=1;whiteSpace=wrap;startSize=0;container=1;collapsible=0;childLayout=tableLayout;" vertex="1" parent="1">
          <mxGeometry x="-341" y="1108" width="480" height="40" as="geometry" />
        </mxCell>
        <mxCell id="MG6lyERmRnh1HpZcy8s1-363" value="" style="shape=partialRectangle;html=1;whiteSpace=wrap;collapsible=0;dropTarget=0;pointerEvents=0;fillColor=none;top=0;left=0;bottom=0;right=0;points=[[0,0.5],[1,0.5]];portConstraint=eastwest;" vertex="1" parent="MG6lyERmRnh1HpZcy8s1-362">
          <mxGeometry width="480" height="40" as="geometry" />
        </mxCell>
        <mxCell id="MG6lyERmRnh1HpZcy8s1-364" value="60" style="shape=partialRectangle;html=1;whiteSpace=wrap;connectable=0;overflow=hidden;fillColor=none;top=0;left=0;bottom=0;right=0;" vertex="1" parent="MG6lyERmRnh1HpZcy8s1-363">
          <mxGeometry width="60" height="40" as="geometry" />
        </mxCell>
        <mxCell id="MG6lyERmRnh1HpZcy8s1-365" value="50" style="shape=partialRectangle;html=1;whiteSpace=wrap;connectable=0;overflow=hidden;fillColor=none;top=0;left=0;bottom=0;right=0;" vertex="1" parent="MG6lyERmRnh1HpZcy8s1-363">
          <mxGeometry x="60" width="60" height="40" as="geometry" />
        </mxCell>
        <mxCell id="MG6lyERmRnh1HpZcy8s1-366" value="20" style="shape=partialRectangle;html=1;whiteSpace=wrap;connectable=0;overflow=hidden;fillColor=none;top=0;left=0;bottom=0;right=0;" vertex="1" parent="MG6lyERmRnh1HpZcy8s1-363">
          <mxGeometry x="120" width="60" height="40" as="geometry" />
        </mxCell>
        <mxCell id="MG6lyERmRnh1HpZcy8s1-367" value="30" style="shape=partialRectangle;html=1;whiteSpace=wrap;connectable=0;overflow=hidden;fillColor=none;top=0;left=0;bottom=0;right=0;" vertex="1" parent="MG6lyERmRnh1HpZcy8s1-363">
          <mxGeometry x="180" width="60" height="40" as="geometry" />
        </mxCell>
        <mxCell id="MG6lyERmRnh1HpZcy8s1-368" value="10" style="shape=partialRectangle;html=1;whiteSpace=wrap;connectable=0;overflow=hidden;fillColor=none;top=0;left=0;bottom=0;right=0;" vertex="1" parent="MG6lyERmRnh1HpZcy8s1-363">
          <mxGeometry x="240" width="60" height="40" as="geometry" />
        </mxCell>
        <mxCell id="MG6lyERmRnh1HpZcy8s1-369" value="8" style="shape=partialRectangle;html=1;whiteSpace=wrap;connectable=0;overflow=hidden;fillColor=none;top=0;left=0;bottom=0;right=0;" vertex="1" parent="MG6lyERmRnh1HpZcy8s1-363">
          <mxGeometry x="300" width="60" height="40" as="geometry" />
        </mxCell>
        <mxCell id="MG6lyERmRnh1HpZcy8s1-370" value="16" style="shape=partialRectangle;html=1;whiteSpace=wrap;connectable=0;overflow=hidden;fillColor=none;top=0;left=0;bottom=0;right=0;" vertex="1" parent="MG6lyERmRnh1HpZcy8s1-363">
          <mxGeometry x="360" width="60" height="40" as="geometry" />
        </mxCell>
        <mxCell id="MG6lyERmRnh1HpZcy8s1-371" value="&lt;font style=&quot;font-size: 18px&quot;&gt;15&lt;/font&gt;" style="shape=partialRectangle;html=1;whiteSpace=wrap;connectable=0;overflow=hidden;fillColor=none;top=0;left=0;bottom=0;right=0;" vertex="1" parent="MG6lyERmRnh1HpZcy8s1-363">
          <mxGeometry x="420" width="60" height="40" as="geometry" />
        </mxCell>
        <mxCell id="MG6lyERmRnh1HpZcy8s1-372" value="1" style="text;html=1;align=center;verticalAlign=middle;resizable=0;points=[];autosize=1;" vertex="1" parent="1">
          <mxGeometry x="-319" y="1155" width="20" height="20" as="geometry" />
        </mxCell>
        <mxCell id="MG6lyERmRnh1HpZcy8s1-373" value="2" style="text;html=1;align=center;verticalAlign=middle;resizable=0;points=[];autosize=1;" vertex="1" parent="1">
          <mxGeometry x="-259" y="1155" width="20" height="20" as="geometry" />
        </mxCell>
        <mxCell id="MG6lyERmRnh1HpZcy8s1-374" value="3" style="text;html=1;align=center;verticalAlign=middle;resizable=0;points=[];autosize=1;" vertex="1" parent="1">
          <mxGeometry x="-199" y="1155" width="20" height="20" as="geometry" />
        </mxCell>
        <mxCell id="MG6lyERmRnh1HpZcy8s1-375" value="4" style="text;html=1;align=center;verticalAlign=middle;resizable=0;points=[];autosize=1;" vertex="1" parent="1">
          <mxGeometry x="-139" y="1155" width="20" height="20" as="geometry" />
        </mxCell>
        <mxCell id="MG6lyERmRnh1HpZcy8s1-376" value="5" style="text;html=1;align=center;verticalAlign=middle;resizable=0;points=[];autosize=1;" vertex="1" parent="1">
          <mxGeometry x="-79" y="1155" width="20" height="20" as="geometry" />
        </mxCell>
        <mxCell id="MG6lyERmRnh1HpZcy8s1-377" value="6" style="text;html=1;align=center;verticalAlign=middle;resizable=0;points=[];autosize=1;" vertex="1" parent="1">
          <mxGeometry x="-19" y="1155" width="20" height="20" as="geometry" />
        </mxCell>
        <mxCell id="MG6lyERmRnh1HpZcy8s1-378" value="7" style="text;html=1;align=center;verticalAlign=middle;resizable=0;points=[];autosize=1;" vertex="1" parent="1">
          <mxGeometry x="41" y="1155" width="20" height="20" as="geometry" />
        </mxCell>
        <mxCell id="MG6lyERmRnh1HpZcy8s1-379" value="max heap" style="text;html=1;align=center;verticalAlign=middle;resizable=0;points=[];autosize=1;" vertex="1" parent="1">
          <mxGeometry x="-158" y="780" width="70" height="20" as="geometry" />
        </mxCell>
        <mxCell id="MG6lyERmRnh1HpZcy8s1-380" value="8" style="text;html=1;align=center;verticalAlign=middle;resizable=0;points=[];autosize=1;" vertex="1" parent="1">
          <mxGeometry x="99" y="1155" width="20" height="20" as="geometry" />
        </mxCell>
        <mxCell id="MG6lyERmRnh1HpZcy8s1-381" value="" style="endArrow=none;html=1;entryX=0;entryY=1;entryDx=0;entryDy=0;" edge="1" target="MG6lyERmRnh1HpZcy8s1-354" parent="1">
          <mxGeometry width="50" height="50" relative="1" as="geometry">
            <mxPoint x="-285" y="1040" as="sourcePoint" />
            <mxPoint x="-203.14213562373106" y="944.1421356237311" as="targetPoint" />
          </mxGeometry>
        </mxCell>
        <mxCell id="MG6lyERmRnh1HpZcy8s1-382" value="15" style="ellipse;whiteSpace=wrap;html=1;aspect=fixed;" vertex="1" parent="1">
          <mxGeometry x="-315" y="1040" width="40" height="40" as="geometry" />
        </mxCell>
        <mxCell id="MG6lyERmRnh1HpZcy8s1-386" value="" style="curved=1;endArrow=classic;html=1;fontSize=18;entryX=0.444;entryY=0;entryDx=0;entryDy=0;entryPerimeter=0;" edge="1" parent="1" target="MG6lyERmRnh1HpZcy8s1-324">
          <mxGeometry width="50" height="50" relative="1" as="geometry">
            <mxPoint x="-420" y="1100" as="sourcePoint" />
            <mxPoint x="-410" y="950" as="targetPoint" />
            <Array as="points">
              <mxPoint x="-410" y="1000" />
            </Array>
          </mxGeometry>
        </mxCell>
        <mxCell id="MG6lyERmRnh1HpZcy8s1-389" value="" style="curved=1;endArrow=classic;html=1;fontSize=18;entryX=0.058;entryY=0;entryDx=0;entryDy=0;entryPerimeter=0;exitX=0.435;exitY=0.025;exitDx=0;exitDy=0;exitPerimeter=0;" edge="1" parent="1" target="MG6lyERmRnh1HpZcy8s1-324">
          <mxGeometry width="50" height="50" relative="1" as="geometry">
            <mxPoint x="-771.5999999999998" y="1108" as="sourcePoint" />
            <mxPoint x="-891.5999999999998" y="1108" as="targetPoint" />
            <Array as="points">
              <mxPoint x="-764.4" y="1059" />
              <mxPoint x="-800" y="1090" />
            </Array>
          </mxGeometry>
        </mxCell>
        <mxCell id="MG6lyERmRnh1HpZcy8s1-390" value="" style="shape=flexArrow;endArrow=classic;html=1;fontSize=18;" edge="1" parent="1">
          <mxGeometry width="50" height="50" relative="1" as="geometry">
            <mxPoint x="-410" y="950" as="sourcePoint" />
            <mxPoint x="-330" y="950" as="targetPoint" />
          </mxGeometry>
        </mxCell>
        <mxCell id="MG6lyERmRnh1HpZcy8s1-391" value="" style="ellipse;whiteSpace=wrap;html=1;aspect=fixed;" vertex="1" parent="1">
          <mxGeometry x="-684" y="1280" width="40" height="40" as="geometry" />
        </mxCell>
        <mxCell id="MG6lyERmRnh1HpZcy8s1-392" value="" style="endArrow=none;html=1;entryX=0;entryY=1;entryDx=0;entryDy=0;exitX=0.5;exitY=0;exitDx=0;exitDy=0;" edge="1" source="MG6lyERmRnh1HpZcy8s1-393" target="MG6lyERmRnh1HpZcy8s1-391" parent="1">
          <mxGeometry width="50" height="50" relative="1" as="geometry">
            <mxPoint x="-714" y="1360" as="sourcePoint" />
            <mxPoint x="-684" y="1310" as="targetPoint" />
          </mxGeometry>
        </mxCell>
        <mxCell id="MG6lyERmRnh1HpZcy8s1-393" value="30" style="ellipse;whiteSpace=wrap;html=1;aspect=fixed;" vertex="1" parent="1">
          <mxGeometry x="-764" y="1360" width="40" height="40" as="geometry" />
        </mxCell>
        <mxCell id="MG6lyERmRnh1HpZcy8s1-394" value="20" style="ellipse;whiteSpace=wrap;html=1;aspect=fixed;" vertex="1" parent="1">
          <mxGeometry x="-594" y="1360" width="40" height="40" as="geometry" />
        </mxCell>
        <mxCell id="MG6lyERmRnh1HpZcy8s1-395" value="" style="endArrow=none;html=1;entryX=1;entryY=1;entryDx=0;entryDy=0;exitX=0.5;exitY=0;exitDx=0;exitDy=0;exitPerimeter=0;" edge="1" source="MG6lyERmRnh1HpZcy8s1-394" target="MG6lyERmRnh1HpZcy8s1-391" parent="1">
          <mxGeometry width="50" height="50" relative="1" as="geometry">
            <mxPoint x="-574" y="1370" as="sourcePoint" />
            <mxPoint x="-668.1421356237311" y="1324.142135623731" as="targetPoint" />
          </mxGeometry>
        </mxCell>
        <mxCell id="MG6lyERmRnh1HpZcy8s1-396" value="15" style="ellipse;whiteSpace=wrap;html=1;aspect=fixed;" vertex="1" parent="1">
          <mxGeometry x="-814" y="1430" width="40" height="40" as="geometry" />
        </mxCell>
        <mxCell id="MG6lyERmRnh1HpZcy8s1-397" value="10" style="ellipse;whiteSpace=wrap;html=1;aspect=fixed;" vertex="1" parent="1">
          <mxGeometry x="-724" y="1430" width="40" height="40" as="geometry" />
        </mxCell>
        <mxCell id="MG6lyERmRnh1HpZcy8s1-398" value="8" style="ellipse;whiteSpace=wrap;html=1;aspect=fixed;" vertex="1" parent="1">
          <mxGeometry x="-634" y="1430" width="40" height="40" as="geometry" />
        </mxCell>
        <mxCell id="MG6lyERmRnh1HpZcy8s1-399" value="16" style="ellipse;whiteSpace=wrap;html=1;aspect=fixed;" vertex="1" parent="1">
          <mxGeometry x="-544" y="1430" width="40" height="40" as="geometry" />
        </mxCell>
        <mxCell id="MG6lyERmRnh1HpZcy8s1-400" value="" style="endArrow=none;html=1;entryX=0;entryY=1;entryDx=0;entryDy=0;" edge="1" target="MG6lyERmRnh1HpZcy8s1-393" parent="1">
          <mxGeometry width="50" height="50" relative="1" as="geometry">
            <mxPoint x="-784" y="1430" as="sourcePoint" />
            <mxPoint x="-744" y="1400" as="targetPoint" />
          </mxGeometry>
        </mxCell>
        <mxCell id="MG6lyERmRnh1HpZcy8s1-401" value="" style="endArrow=none;html=1;entryX=1;entryY=1;entryDx=0;entryDy=0;exitX=0.325;exitY=-0.075;exitDx=0;exitDy=0;exitPerimeter=0;" edge="1" source="MG6lyERmRnh1HpZcy8s1-397" target="MG6lyERmRnh1HpZcy8s1-393" parent="1">
          <mxGeometry width="50" height="50" relative="1" as="geometry">
            <mxPoint x="-774" y="1440" as="sourcePoint" />
            <mxPoint x="-748.1421356237311" y="1404.142135623731" as="targetPoint" />
          </mxGeometry>
        </mxCell>
        <mxCell id="MG6lyERmRnh1HpZcy8s1-402" value="" style="endArrow=none;html=1;entryX=0;entryY=1;entryDx=0;entryDy=0;exitX=0.25;exitY=0;exitDx=0;exitDy=0;exitPerimeter=0;" edge="1" source="MG6lyERmRnh1HpZcy8s1-399" parent="1">
          <mxGeometry width="50" height="50" relative="1" as="geometry">
            <mxPoint x="-586.9300000000001" y="1430" as="sourcePoint" />
            <mxPoint x="-561.0721356237309" y="1394.142135623731" as="targetPoint" />
          </mxGeometry>
        </mxCell>
        <mxCell id="MG6lyERmRnh1HpZcy8s1-403" value="" style="endArrow=none;html=1;entryX=0;entryY=1;entryDx=0;entryDy=0;exitX=0.5;exitY=0;exitDx=0;exitDy=0;" edge="1" source="MG6lyERmRnh1HpZcy8s1-398" target="MG6lyERmRnh1HpZcy8s1-394" parent="1">
          <mxGeometry width="50" height="50" relative="1" as="geometry">
            <mxPoint x="-754" y="1460" as="sourcePoint" />
            <mxPoint x="-728.1421356237311" y="1424.142135623731" as="targetPoint" />
          </mxGeometry>
        </mxCell>
        <mxCell id="MG6lyERmRnh1HpZcy8s1-404" value="" style="shape=table;html=1;whiteSpace=wrap;startSize=0;container=1;collapsible=0;childLayout=tableLayout;" vertex="1" parent="1">
          <mxGeometry x="-874" y="1520" width="420" height="40" as="geometry" />
        </mxCell>
        <mxCell id="MG6lyERmRnh1HpZcy8s1-405" value="" style="shape=partialRectangle;html=1;whiteSpace=wrap;collapsible=0;dropTarget=0;pointerEvents=0;fillColor=none;top=0;left=0;bottom=0;right=0;points=[[0,0.5],[1,0.5]];portConstraint=eastwest;" vertex="1" parent="MG6lyERmRnh1HpZcy8s1-404">
          <mxGeometry width="420" height="40" as="geometry" />
        </mxCell>
        <mxCell id="MG6lyERmRnh1HpZcy8s1-406" value="" style="shape=partialRectangle;html=1;whiteSpace=wrap;connectable=0;overflow=hidden;fillColor=none;top=0;left=0;bottom=0;right=0;" vertex="1" parent="MG6lyERmRnh1HpZcy8s1-405">
          <mxGeometry width="60" height="40" as="geometry" />
        </mxCell>
        <mxCell id="MG6lyERmRnh1HpZcy8s1-407" value="30" style="shape=partialRectangle;html=1;whiteSpace=wrap;connectable=0;overflow=hidden;fillColor=none;top=0;left=0;bottom=0;right=0;" vertex="1" parent="MG6lyERmRnh1HpZcy8s1-405">
          <mxGeometry x="60" width="60" height="40" as="geometry" />
        </mxCell>
        <mxCell id="MG6lyERmRnh1HpZcy8s1-408" value="20" style="shape=partialRectangle;html=1;whiteSpace=wrap;connectable=0;overflow=hidden;fillColor=none;top=0;left=0;bottom=0;right=0;" vertex="1" parent="MG6lyERmRnh1HpZcy8s1-405">
          <mxGeometry x="120" width="60" height="40" as="geometry" />
        </mxCell>
        <mxCell id="MG6lyERmRnh1HpZcy8s1-409" value="15" style="shape=partialRectangle;html=1;whiteSpace=wrap;connectable=0;overflow=hidden;fillColor=none;top=0;left=0;bottom=0;right=0;" vertex="1" parent="MG6lyERmRnh1HpZcy8s1-405">
          <mxGeometry x="180" width="60" height="40" as="geometry" />
        </mxCell>
        <mxCell id="MG6lyERmRnh1HpZcy8s1-410" value="10" style="shape=partialRectangle;html=1;whiteSpace=wrap;connectable=0;overflow=hidden;fillColor=none;top=0;left=0;bottom=0;right=0;" vertex="1" parent="MG6lyERmRnh1HpZcy8s1-405">
          <mxGeometry x="240" width="60" height="40" as="geometry" />
        </mxCell>
        <mxCell id="MG6lyERmRnh1HpZcy8s1-411" value="8" style="shape=partialRectangle;html=1;whiteSpace=wrap;connectable=0;overflow=hidden;fillColor=none;top=0;left=0;bottom=0;right=0;" vertex="1" parent="MG6lyERmRnh1HpZcy8s1-405">
          <mxGeometry x="300" width="60" height="40" as="geometry" />
        </mxCell>
        <mxCell id="MG6lyERmRnh1HpZcy8s1-412" value="16" style="shape=partialRectangle;html=1;whiteSpace=wrap;connectable=0;overflow=hidden;fillColor=none;top=0;left=0;bottom=0;right=0;" vertex="1" parent="MG6lyERmRnh1HpZcy8s1-405">
          <mxGeometry x="360" width="60" height="40" as="geometry" />
        </mxCell>
        <mxCell id="MG6lyERmRnh1HpZcy8s1-413" value="1" style="text;html=1;align=center;verticalAlign=middle;resizable=0;points=[];autosize=1;" vertex="1" parent="1">
          <mxGeometry x="-858" y="1570" width="20" height="20" as="geometry" />
        </mxCell>
        <mxCell id="MG6lyERmRnh1HpZcy8s1-414" value="2" style="text;html=1;align=center;verticalAlign=middle;resizable=0;points=[];autosize=1;" vertex="1" parent="1">
          <mxGeometry x="-798" y="1570" width="20" height="20" as="geometry" />
        </mxCell>
        <mxCell id="MG6lyERmRnh1HpZcy8s1-415" value="3" style="text;html=1;align=center;verticalAlign=middle;resizable=0;points=[];autosize=1;" vertex="1" parent="1">
          <mxGeometry x="-738" y="1570" width="20" height="20" as="geometry" />
        </mxCell>
        <mxCell id="MG6lyERmRnh1HpZcy8s1-416" value="4" style="text;html=1;align=center;verticalAlign=middle;resizable=0;points=[];autosize=1;" vertex="1" parent="1">
          <mxGeometry x="-678" y="1570" width="20" height="20" as="geometry" />
        </mxCell>
        <mxCell id="MG6lyERmRnh1HpZcy8s1-417" value="5" style="text;html=1;align=center;verticalAlign=middle;resizable=0;points=[];autosize=1;" vertex="1" parent="1">
          <mxGeometry x="-618" y="1570" width="20" height="20" as="geometry" />
        </mxCell>
        <mxCell id="MG6lyERmRnh1HpZcy8s1-418" value="6" style="text;html=1;align=center;verticalAlign=middle;resizable=0;points=[];autosize=1;" vertex="1" parent="1">
          <mxGeometry x="-558" y="1570" width="20" height="20" as="geometry" />
        </mxCell>
        <mxCell id="MG6lyERmRnh1HpZcy8s1-419" value="7" style="text;html=1;align=center;verticalAlign=middle;resizable=0;points=[];autosize=1;" vertex="1" parent="1">
          <mxGeometry x="-498" y="1570" width="20" height="20" as="geometry" />
        </mxCell>
        <mxCell id="MG6lyERmRnh1HpZcy8s1-420" value="max heap" style="text;html=1;align=center;verticalAlign=middle;resizable=0;points=[];autosize=1;" vertex="1" parent="1">
          <mxGeometry x="-703" y="1240" width="70" height="20" as="geometry" />
        </mxCell>
        <mxCell id="MG6lyERmRnh1HpZcy8s1-421" value="50" style="text;html=1;align=center;verticalAlign=middle;resizable=0;points=[];autosize=1;fontSize=18;" vertex="1" parent="1">
          <mxGeometry x="-784" y="1280" width="40" height="30" as="geometry" />
        </mxCell>
        <mxCell id="MG6lyERmRnh1HpZcy8s1-422" value="30" style="ellipse;whiteSpace=wrap;html=1;aspect=fixed;" vertex="1" parent="1">
          <mxGeometry x="-120" y="1280" width="40" height="40" as="geometry" />
        </mxCell>
        <mxCell id="MG6lyERmRnh1HpZcy8s1-423" value="" style="endArrow=none;html=1;entryX=0;entryY=1;entryDx=0;entryDy=0;exitX=0.5;exitY=0;exitDx=0;exitDy=0;" edge="1" source="MG6lyERmRnh1HpZcy8s1-424" target="MG6lyERmRnh1HpZcy8s1-422" parent="1">
          <mxGeometry width="50" height="50" relative="1" as="geometry">
            <mxPoint x="-150" y="1360" as="sourcePoint" />
            <mxPoint x="-120" y="1310" as="targetPoint" />
          </mxGeometry>
        </mxCell>
        <mxCell id="MG6lyERmRnh1HpZcy8s1-424" value="15" style="ellipse;whiteSpace=wrap;html=1;aspect=fixed;" vertex="1" parent="1">
          <mxGeometry x="-200" y="1360" width="40" height="40" as="geometry" />
        </mxCell>
        <mxCell id="MG6lyERmRnh1HpZcy8s1-425" value="20" style="ellipse;whiteSpace=wrap;html=1;aspect=fixed;" vertex="1" parent="1">
          <mxGeometry x="-30" y="1360" width="40" height="40" as="geometry" />
        </mxCell>
        <mxCell id="MG6lyERmRnh1HpZcy8s1-426" value="" style="endArrow=none;html=1;entryX=1;entryY=1;entryDx=0;entryDy=0;exitX=0.5;exitY=0;exitDx=0;exitDy=0;exitPerimeter=0;" edge="1" source="MG6lyERmRnh1HpZcy8s1-425" target="MG6lyERmRnh1HpZcy8s1-422" parent="1">
          <mxGeometry width="50" height="50" relative="1" as="geometry">
            <mxPoint x="-10" y="1370" as="sourcePoint" />
            <mxPoint x="-104.14213562373106" y="1324.142135623731" as="targetPoint" />
          </mxGeometry>
        </mxCell>
        <mxCell id="MG6lyERmRnh1HpZcy8s1-428" value="10" style="ellipse;whiteSpace=wrap;html=1;aspect=fixed;" vertex="1" parent="1">
          <mxGeometry x="-160" y="1430" width="40" height="40" as="geometry" />
        </mxCell>
        <mxCell id="MG6lyERmRnh1HpZcy8s1-429" value="8" style="ellipse;whiteSpace=wrap;html=1;aspect=fixed;" vertex="1" parent="1">
          <mxGeometry x="-70" y="1430" width="40" height="40" as="geometry" />
        </mxCell>
        <mxCell id="MG6lyERmRnh1HpZcy8s1-430" value="16" style="ellipse;whiteSpace=wrap;html=1;aspect=fixed;" vertex="1" parent="1">
          <mxGeometry x="20" y="1430" width="40" height="40" as="geometry" />
        </mxCell>
        <mxCell id="MG6lyERmRnh1HpZcy8s1-432" value="" style="endArrow=none;html=1;entryX=1;entryY=1;entryDx=0;entryDy=0;exitX=0.325;exitY=-0.075;exitDx=0;exitDy=0;exitPerimeter=0;" edge="1" source="MG6lyERmRnh1HpZcy8s1-428" target="MG6lyERmRnh1HpZcy8s1-424" parent="1">
          <mxGeometry width="50" height="50" relative="1" as="geometry">
            <mxPoint x="-210" y="1440" as="sourcePoint" />
            <mxPoint x="-184.14213562373106" y="1404.142135623731" as="targetPoint" />
          </mxGeometry>
        </mxCell>
        <mxCell id="MG6lyERmRnh1HpZcy8s1-433" value="" style="endArrow=none;html=1;entryX=0;entryY=1;entryDx=0;entryDy=0;exitX=0.25;exitY=0;exitDx=0;exitDy=0;exitPerimeter=0;" edge="1" source="MG6lyERmRnh1HpZcy8s1-430" parent="1">
          <mxGeometry width="50" height="50" relative="1" as="geometry">
            <mxPoint x="-22.930000000000064" y="1430" as="sourcePoint" />
            <mxPoint x="2.927864376269099" y="1394.142135623731" as="targetPoint" />
          </mxGeometry>
        </mxCell>
        <mxCell id="MG6lyERmRnh1HpZcy8s1-434" value="" style="endArrow=none;html=1;entryX=0;entryY=1;entryDx=0;entryDy=0;exitX=0.5;exitY=0;exitDx=0;exitDy=0;" edge="1" source="MG6lyERmRnh1HpZcy8s1-429" target="MG6lyERmRnh1HpZcy8s1-425" parent="1">
          <mxGeometry width="50" height="50" relative="1" as="geometry">
            <mxPoint x="-190" y="1460" as="sourcePoint" />
            <mxPoint x="-164.14213562373106" y="1424.142135623731" as="targetPoint" />
          </mxGeometry>
        </mxCell>
        <mxCell id="MG6lyERmRnh1HpZcy8s1-435" value="" style="shape=table;html=1;whiteSpace=wrap;startSize=0;container=1;collapsible=0;childLayout=tableLayout;" vertex="1" parent="1">
          <mxGeometry x="-310" y="1520" width="420" height="40" as="geometry" />
        </mxCell>
        <mxCell id="MG6lyERmRnh1HpZcy8s1-436" value="" style="shape=partialRectangle;html=1;whiteSpace=wrap;collapsible=0;dropTarget=0;pointerEvents=0;fillColor=none;top=0;left=0;bottom=0;right=0;points=[[0,0.5],[1,0.5]];portConstraint=eastwest;" vertex="1" parent="MG6lyERmRnh1HpZcy8s1-435">
          <mxGeometry width="420" height="40" as="geometry" />
        </mxCell>
        <mxCell id="MG6lyERmRnh1HpZcy8s1-437" value="" style="shape=partialRectangle;html=1;whiteSpace=wrap;connectable=0;overflow=hidden;fillColor=none;top=0;left=0;bottom=0;right=0;" vertex="1" parent="MG6lyERmRnh1HpZcy8s1-436">
          <mxGeometry width="60" height="40" as="geometry" />
        </mxCell>
        <mxCell id="MG6lyERmRnh1HpZcy8s1-438" value="30" style="shape=partialRectangle;html=1;whiteSpace=wrap;connectable=0;overflow=hidden;fillColor=none;top=0;left=0;bottom=0;right=0;" vertex="1" parent="MG6lyERmRnh1HpZcy8s1-436">
          <mxGeometry x="60" width="60" height="40" as="geometry" />
        </mxCell>
        <mxCell id="MG6lyERmRnh1HpZcy8s1-439" value="20" style="shape=partialRectangle;html=1;whiteSpace=wrap;connectable=0;overflow=hidden;fillColor=none;top=0;left=0;bottom=0;right=0;" vertex="1" parent="MG6lyERmRnh1HpZcy8s1-436">
          <mxGeometry x="120" width="60" height="40" as="geometry" />
        </mxCell>
        <mxCell id="MG6lyERmRnh1HpZcy8s1-440" value="15" style="shape=partialRectangle;html=1;whiteSpace=wrap;connectable=0;overflow=hidden;fillColor=none;top=0;left=0;bottom=0;right=0;" vertex="1" parent="MG6lyERmRnh1HpZcy8s1-436">
          <mxGeometry x="180" width="60" height="40" as="geometry" />
        </mxCell>
        <mxCell id="MG6lyERmRnh1HpZcy8s1-441" value="10" style="shape=partialRectangle;html=1;whiteSpace=wrap;connectable=0;overflow=hidden;fillColor=none;top=0;left=0;bottom=0;right=0;" vertex="1" parent="MG6lyERmRnh1HpZcy8s1-436">
          <mxGeometry x="240" width="60" height="40" as="geometry" />
        </mxCell>
        <mxCell id="MG6lyERmRnh1HpZcy8s1-442" value="8" style="shape=partialRectangle;html=1;whiteSpace=wrap;connectable=0;overflow=hidden;fillColor=none;top=0;left=0;bottom=0;right=0;" vertex="1" parent="MG6lyERmRnh1HpZcy8s1-436">
          <mxGeometry x="300" width="60" height="40" as="geometry" />
        </mxCell>
        <mxCell id="MG6lyERmRnh1HpZcy8s1-443" value="16" style="shape=partialRectangle;html=1;whiteSpace=wrap;connectable=0;overflow=hidden;fillColor=none;top=0;left=0;bottom=0;right=0;" vertex="1" parent="MG6lyERmRnh1HpZcy8s1-436">
          <mxGeometry x="360" width="60" height="40" as="geometry" />
        </mxCell>
        <mxCell id="MG6lyERmRnh1HpZcy8s1-444" value="1" style="text;html=1;align=center;verticalAlign=middle;resizable=0;points=[];autosize=1;" vertex="1" parent="1">
          <mxGeometry x="-294" y="1570" width="20" height="20" as="geometry" />
        </mxCell>
        <mxCell id="MG6lyERmRnh1HpZcy8s1-445" value="2" style="text;html=1;align=center;verticalAlign=middle;resizable=0;points=[];autosize=1;" vertex="1" parent="1">
          <mxGeometry x="-234" y="1570" width="20" height="20" as="geometry" />
        </mxCell>
        <mxCell id="MG6lyERmRnh1HpZcy8s1-446" value="3" style="text;html=1;align=center;verticalAlign=middle;resizable=0;points=[];autosize=1;" vertex="1" parent="1">
          <mxGeometry x="-174" y="1570" width="20" height="20" as="geometry" />
        </mxCell>
        <mxCell id="MG6lyERmRnh1HpZcy8s1-447" value="4" style="text;html=1;align=center;verticalAlign=middle;resizable=0;points=[];autosize=1;" vertex="1" parent="1">
          <mxGeometry x="-114" y="1570" width="20" height="20" as="geometry" />
        </mxCell>
        <mxCell id="MG6lyERmRnh1HpZcy8s1-448" value="5" style="text;html=1;align=center;verticalAlign=middle;resizable=0;points=[];autosize=1;" vertex="1" parent="1">
          <mxGeometry x="-54" y="1570" width="20" height="20" as="geometry" />
        </mxCell>
        <mxCell id="MG6lyERmRnh1HpZcy8s1-449" value="6" style="text;html=1;align=center;verticalAlign=middle;resizable=0;points=[];autosize=1;" vertex="1" parent="1">
          <mxGeometry x="6" y="1570" width="20" height="20" as="geometry" />
        </mxCell>
        <mxCell id="MG6lyERmRnh1HpZcy8s1-450" value="7" style="text;html=1;align=center;verticalAlign=middle;resizable=0;points=[];autosize=1;" vertex="1" parent="1">
          <mxGeometry x="66" y="1570" width="20" height="20" as="geometry" />
        </mxCell>
        <mxCell id="MG6lyERmRnh1HpZcy8s1-451" value="max heap" style="text;html=1;align=center;verticalAlign=middle;resizable=0;points=[];autosize=1;" vertex="1" parent="1">
          <mxGeometry x="-139" y="1240" width="70" height="20" as="geometry" />
        </mxCell>
        <mxCell id="MG6lyERmRnh1HpZcy8s1-452" value="50" style="text;html=1;align=center;verticalAlign=middle;resizable=0;points=[];autosize=1;fontSize=18;" vertex="1" parent="1">
          <mxGeometry x="-190" y="1280" width="40" height="30" as="geometry" />
        </mxCell>
        <mxCell id="MG6lyERmRnh1HpZcy8s1-453" value="" style="curved=1;endArrow=classic;html=1;fontSize=18;exitX=0;exitY=0;exitDx=0;exitDy=0;entryX=0.05;entryY=0.35;entryDx=0;entryDy=0;entryPerimeter=0;" edge="1" parent="1">
          <mxGeometry width="50" height="50" relative="1" as="geometry">
            <mxPoint x="-802.1421356237311" y="1431.857864376269" as="sourcePoint" />
            <mxPoint x="-760" y="1370" as="targetPoint" />
            <Array as="points">
              <mxPoint x="-818" y="1416" />
              <mxPoint x="-808" y="1376" />
            </Array>
          </mxGeometry>
        </mxCell>
        <mxCell id="MG6lyERmRnh1HpZcy8s1-454" value="" style="curved=1;endArrow=classic;html=1;fontSize=18;exitX=0;exitY=0;exitDx=0;exitDy=0;" edge="1" parent="1">
          <mxGeometry width="50" height="50" relative="1" as="geometry">
            <mxPoint x="-756.1421356237311" y="1361.857864376269" as="sourcePoint" />
            <mxPoint x="-690" y="1300" as="targetPoint" />
            <Array as="points">
              <mxPoint x="-772" y="1346" />
              <mxPoint x="-762" y="1306" />
            </Array>
          </mxGeometry>
        </mxCell>
        <mxCell id="MG6lyERmRnh1HpZcy8s1-456" value="" style="shape=flexArrow;endArrow=classic;html=1;fontSize=18;" edge="1" parent="1">
          <mxGeometry width="50" height="50" relative="1" as="geometry">
            <mxPoint x="-420" y="1379.5" as="sourcePoint" />
            <mxPoint x="-340" y="1379.5" as="targetPoint" />
          </mxGeometry>
        </mxCell>
        <mxCell id="MG6lyERmRnh1HpZcy8s1-457" value="" style="ellipse;whiteSpace=wrap;html=1;aspect=fixed;" vertex="1" parent="1">
          <mxGeometry x="-670" y="1740" width="40" height="40" as="geometry" />
        </mxCell>
        <mxCell id="MG6lyERmRnh1HpZcy8s1-458" value="" style="endArrow=none;html=1;entryX=0;entryY=1;entryDx=0;entryDy=0;exitX=0.5;exitY=0;exitDx=0;exitDy=0;" edge="1" source="MG6lyERmRnh1HpZcy8s1-459" target="MG6lyERmRnh1HpZcy8s1-457" parent="1">
          <mxGeometry width="50" height="50" relative="1" as="geometry">
            <mxPoint x="-700" y="1820" as="sourcePoint" />
            <mxPoint x="-670" y="1770" as="targetPoint" />
          </mxGeometry>
        </mxCell>
        <mxCell id="MG6lyERmRnh1HpZcy8s1-459" value="30" style="ellipse;whiteSpace=wrap;html=1;aspect=fixed;" vertex="1" parent="1">
          <mxGeometry x="-750" y="1820" width="40" height="40" as="geometry" />
        </mxCell>
        <mxCell id="MG6lyERmRnh1HpZcy8s1-460" value="20" style="ellipse;whiteSpace=wrap;html=1;aspect=fixed;" vertex="1" parent="1">
          <mxGeometry x="-580" y="1820" width="40" height="40" as="geometry" />
        </mxCell>
        <mxCell id="MG6lyERmRnh1HpZcy8s1-461" value="" style="endArrow=none;html=1;entryX=1;entryY=1;entryDx=0;entryDy=0;exitX=0.5;exitY=0;exitDx=0;exitDy=0;exitPerimeter=0;" edge="1" source="MG6lyERmRnh1HpZcy8s1-460" target="MG6lyERmRnh1HpZcy8s1-457" parent="1">
          <mxGeometry width="50" height="50" relative="1" as="geometry">
            <mxPoint x="-560" y="1830" as="sourcePoint" />
            <mxPoint x="-654.1421356237311" y="1784.142135623731" as="targetPoint" />
          </mxGeometry>
        </mxCell>
        <mxCell id="MG6lyERmRnh1HpZcy8s1-462" value="15" style="ellipse;whiteSpace=wrap;html=1;aspect=fixed;" vertex="1" parent="1">
          <mxGeometry x="-800" y="1890" width="40" height="40" as="geometry" />
        </mxCell>
        <mxCell id="MG6lyERmRnh1HpZcy8s1-463" value="10" style="ellipse;whiteSpace=wrap;html=1;aspect=fixed;" vertex="1" parent="1">
          <mxGeometry x="-710" y="1890" width="40" height="40" as="geometry" />
        </mxCell>
        <mxCell id="MG6lyERmRnh1HpZcy8s1-464" value="8" style="ellipse;whiteSpace=wrap;html=1;aspect=fixed;" vertex="1" parent="1">
          <mxGeometry x="-620" y="1890" width="40" height="40" as="geometry" />
        </mxCell>
        <mxCell id="MG6lyERmRnh1HpZcy8s1-465" value="16" style="ellipse;whiteSpace=wrap;html=1;aspect=fixed;" vertex="1" parent="1">
          <mxGeometry x="-530" y="1890" width="40" height="40" as="geometry" />
        </mxCell>
        <mxCell id="MG6lyERmRnh1HpZcy8s1-466" value="" style="endArrow=none;html=1;entryX=0;entryY=1;entryDx=0;entryDy=0;" edge="1" target="MG6lyERmRnh1HpZcy8s1-459" parent="1">
          <mxGeometry width="50" height="50" relative="1" as="geometry">
            <mxPoint x="-770" y="1890" as="sourcePoint" />
            <mxPoint x="-730" y="1860" as="targetPoint" />
          </mxGeometry>
        </mxCell>
        <mxCell id="MG6lyERmRnh1HpZcy8s1-467" value="" style="endArrow=none;html=1;entryX=1;entryY=1;entryDx=0;entryDy=0;exitX=0.325;exitY=-0.075;exitDx=0;exitDy=0;exitPerimeter=0;" edge="1" source="MG6lyERmRnh1HpZcy8s1-463" target="MG6lyERmRnh1HpZcy8s1-459" parent="1">
          <mxGeometry width="50" height="50" relative="1" as="geometry">
            <mxPoint x="-760" y="1900" as="sourcePoint" />
            <mxPoint x="-734.1421356237311" y="1864.142135623731" as="targetPoint" />
          </mxGeometry>
        </mxCell>
        <mxCell id="MG6lyERmRnh1HpZcy8s1-468" value="" style="endArrow=none;html=1;entryX=0;entryY=1;entryDx=0;entryDy=0;exitX=0.25;exitY=0;exitDx=0;exitDy=0;exitPerimeter=0;" edge="1" source="MG6lyERmRnh1HpZcy8s1-465" parent="1">
          <mxGeometry width="50" height="50" relative="1" as="geometry">
            <mxPoint x="-572.9300000000001" y="1890" as="sourcePoint" />
            <mxPoint x="-547.0721356237309" y="1854.142135623731" as="targetPoint" />
          </mxGeometry>
        </mxCell>
        <mxCell id="MG6lyERmRnh1HpZcy8s1-469" value="" style="endArrow=none;html=1;entryX=0;entryY=1;entryDx=0;entryDy=0;exitX=0.5;exitY=0;exitDx=0;exitDy=0;" edge="1" source="MG6lyERmRnh1HpZcy8s1-464" target="MG6lyERmRnh1HpZcy8s1-460" parent="1">
          <mxGeometry width="50" height="50" relative="1" as="geometry">
            <mxPoint x="-740" y="1920" as="sourcePoint" />
            <mxPoint x="-714.1421356237311" y="1884.142135623731" as="targetPoint" />
          </mxGeometry>
        </mxCell>
        <mxCell id="MG6lyERmRnh1HpZcy8s1-470" value="" style="shape=table;html=1;whiteSpace=wrap;startSize=0;container=1;collapsible=0;childLayout=tableLayout;" vertex="1" parent="1">
          <mxGeometry x="-860" y="1980" width="420" height="40" as="geometry" />
        </mxCell>
        <mxCell id="MG6lyERmRnh1HpZcy8s1-471" value="" style="shape=partialRectangle;html=1;whiteSpace=wrap;collapsible=0;dropTarget=0;pointerEvents=0;fillColor=none;top=0;left=0;bottom=0;right=0;points=[[0,0.5],[1,0.5]];portConstraint=eastwest;" vertex="1" parent="MG6lyERmRnh1HpZcy8s1-470">
          <mxGeometry width="420" height="40" as="geometry" />
        </mxCell>
        <mxCell id="MG6lyERmRnh1HpZcy8s1-472" value="16" style="shape=partialRectangle;html=1;whiteSpace=wrap;connectable=0;overflow=hidden;fillColor=none;top=0;left=0;bottom=0;right=0;" vertex="1" parent="MG6lyERmRnh1HpZcy8s1-471">
          <mxGeometry width="60" height="40" as="geometry" />
        </mxCell>
        <mxCell id="MG6lyERmRnh1HpZcy8s1-473" value="30" style="shape=partialRectangle;html=1;whiteSpace=wrap;connectable=0;overflow=hidden;fillColor=none;top=0;left=0;bottom=0;right=0;" vertex="1" parent="MG6lyERmRnh1HpZcy8s1-471">
          <mxGeometry x="60" width="60" height="40" as="geometry" />
        </mxCell>
        <mxCell id="MG6lyERmRnh1HpZcy8s1-474" value="20" style="shape=partialRectangle;html=1;whiteSpace=wrap;connectable=0;overflow=hidden;fillColor=none;top=0;left=0;bottom=0;right=0;" vertex="1" parent="MG6lyERmRnh1HpZcy8s1-471">
          <mxGeometry x="120" width="60" height="40" as="geometry" />
        </mxCell>
        <mxCell id="MG6lyERmRnh1HpZcy8s1-475" value="15" style="shape=partialRectangle;html=1;whiteSpace=wrap;connectable=0;overflow=hidden;fillColor=none;top=0;left=0;bottom=0;right=0;" vertex="1" parent="MG6lyERmRnh1HpZcy8s1-471">
          <mxGeometry x="180" width="60" height="40" as="geometry" />
        </mxCell>
        <mxCell id="MG6lyERmRnh1HpZcy8s1-476" value="10" style="shape=partialRectangle;html=1;whiteSpace=wrap;connectable=0;overflow=hidden;fillColor=none;top=0;left=0;bottom=0;right=0;" vertex="1" parent="MG6lyERmRnh1HpZcy8s1-471">
          <mxGeometry x="240" width="60" height="40" as="geometry" />
        </mxCell>
        <mxCell id="MG6lyERmRnh1HpZcy8s1-477" value="8" style="shape=partialRectangle;html=1;whiteSpace=wrap;connectable=0;overflow=hidden;fillColor=none;top=0;left=0;bottom=0;right=0;" vertex="1" parent="MG6lyERmRnh1HpZcy8s1-471">
          <mxGeometry x="300" width="60" height="40" as="geometry" />
        </mxCell>
        <mxCell id="MG6lyERmRnh1HpZcy8s1-478" value="" style="shape=partialRectangle;html=1;whiteSpace=wrap;connectable=0;overflow=hidden;fillColor=none;top=0;left=0;bottom=0;right=0;" vertex="1" parent="MG6lyERmRnh1HpZcy8s1-471">
          <mxGeometry x="360" width="60" height="40" as="geometry" />
        </mxCell>
        <mxCell id="MG6lyERmRnh1HpZcy8s1-479" value="max heap" style="text;html=1;align=center;verticalAlign=middle;resizable=0;points=[];autosize=1;" vertex="1" parent="1">
          <mxGeometry x="-689" y="1700" width="70" height="20" as="geometry" />
        </mxCell>
        <mxCell id="MG6lyERmRnh1HpZcy8s1-480" value="50" style="text;html=1;align=center;verticalAlign=middle;resizable=0;points=[];autosize=1;fontSize=18;" vertex="1" parent="1">
          <mxGeometry x="-770" y="1740" width="40" height="30" as="geometry" />
        </mxCell>
        <mxCell id="MG6lyERmRnh1HpZcy8s1-483" value="" style="curved=1;endArrow=classic;html=1;fontSize=18;entryX=1;entryY=0.5;entryDx=0;entryDy=0;" edge="1" parent="1" target="MG6lyERmRnh1HpZcy8s1-457">
          <mxGeometry width="50" height="50" relative="1" as="geometry">
            <mxPoint x="-500" y="1896" as="sourcePoint" />
            <mxPoint x="-446" y="1850" as="targetPoint" />
            <Array as="points">
              <mxPoint x="-504" y="1896" />
              <mxPoint x="-460" y="1820" />
              <mxPoint x="-510" y="1800" />
            </Array>
          </mxGeometry>
        </mxCell>
        <mxCell id="MG6lyERmRnh1HpZcy8s1-484" value="1" style="text;html=1;align=center;verticalAlign=middle;resizable=0;points=[];autosize=1;" vertex="1" parent="1">
          <mxGeometry x="-844" y="2030" width="20" height="20" as="geometry" />
        </mxCell>
        <mxCell id="MG6lyERmRnh1HpZcy8s1-485" value="2" style="text;html=1;align=center;verticalAlign=middle;resizable=0;points=[];autosize=1;" vertex="1" parent="1">
          <mxGeometry x="-784" y="2030" width="20" height="20" as="geometry" />
        </mxCell>
        <mxCell id="MG6lyERmRnh1HpZcy8s1-486" value="3" style="text;html=1;align=center;verticalAlign=middle;resizable=0;points=[];autosize=1;" vertex="1" parent="1">
          <mxGeometry x="-724" y="2030" width="20" height="20" as="geometry" />
        </mxCell>
        <mxCell id="MG6lyERmRnh1HpZcy8s1-487" value="4" style="text;html=1;align=center;verticalAlign=middle;resizable=0;points=[];autosize=1;" vertex="1" parent="1">
          <mxGeometry x="-664" y="2030" width="20" height="20" as="geometry" />
        </mxCell>
        <mxCell id="MG6lyERmRnh1HpZcy8s1-488" value="5" style="text;html=1;align=center;verticalAlign=middle;resizable=0;points=[];autosize=1;" vertex="1" parent="1">
          <mxGeometry x="-604" y="2030" width="20" height="20" as="geometry" />
        </mxCell>
        <mxCell id="MG6lyERmRnh1HpZcy8s1-489" value="6" style="text;html=1;align=center;verticalAlign=middle;resizable=0;points=[];autosize=1;" vertex="1" parent="1">
          <mxGeometry x="-544" y="2030" width="20" height="20" as="geometry" />
        </mxCell>
        <mxCell id="MG6lyERmRnh1HpZcy8s1-490" value="7" style="text;html=1;align=center;verticalAlign=middle;resizable=0;points=[];autosize=1;" vertex="1" parent="1">
          <mxGeometry x="-484" y="2030" width="20" height="20" as="geometry" />
        </mxCell>
        <mxCell id="MG6lyERmRnh1HpZcy8s1-491" value="16" style="ellipse;whiteSpace=wrap;html=1;aspect=fixed;" vertex="1" parent="1">
          <mxGeometry x="-213" y="1739" width="40" height="40" as="geometry" />
        </mxCell>
        <mxCell id="MG6lyERmRnh1HpZcy8s1-492" value="" style="endArrow=none;html=1;entryX=0;entryY=1;entryDx=0;entryDy=0;exitX=0.5;exitY=0;exitDx=0;exitDy=0;" edge="1" source="MG6lyERmRnh1HpZcy8s1-493" target="MG6lyERmRnh1HpZcy8s1-491" parent="1">
          <mxGeometry width="50" height="50" relative="1" as="geometry">
            <mxPoint x="-243" y="1819" as="sourcePoint" />
            <mxPoint x="-213" y="1769" as="targetPoint" />
          </mxGeometry>
        </mxCell>
        <mxCell id="MG6lyERmRnh1HpZcy8s1-493" value="30" style="ellipse;whiteSpace=wrap;html=1;aspect=fixed;" vertex="1" parent="1">
          <mxGeometry x="-293" y="1819" width="40" height="40" as="geometry" />
        </mxCell>
        <mxCell id="MG6lyERmRnh1HpZcy8s1-494" value="20" style="ellipse;whiteSpace=wrap;html=1;aspect=fixed;" vertex="1" parent="1">
          <mxGeometry x="-123" y="1819" width="40" height="40" as="geometry" />
        </mxCell>
        <mxCell id="MG6lyERmRnh1HpZcy8s1-495" value="" style="endArrow=none;html=1;entryX=1;entryY=1;entryDx=0;entryDy=0;exitX=0.5;exitY=0;exitDx=0;exitDy=0;exitPerimeter=0;" edge="1" source="MG6lyERmRnh1HpZcy8s1-494" target="MG6lyERmRnh1HpZcy8s1-491" parent="1">
          <mxGeometry width="50" height="50" relative="1" as="geometry">
            <mxPoint x="-103" y="1829" as="sourcePoint" />
            <mxPoint x="-197.14213562373106" y="1783.142135623731" as="targetPoint" />
          </mxGeometry>
        </mxCell>
        <mxCell id="MG6lyERmRnh1HpZcy8s1-496" value="15" style="ellipse;whiteSpace=wrap;html=1;aspect=fixed;" vertex="1" parent="1">
          <mxGeometry x="-343" y="1889" width="40" height="40" as="geometry" />
        </mxCell>
        <mxCell id="MG6lyERmRnh1HpZcy8s1-497" value="10" style="ellipse;whiteSpace=wrap;html=1;aspect=fixed;" vertex="1" parent="1">
          <mxGeometry x="-253" y="1889" width="40" height="40" as="geometry" />
        </mxCell>
        <mxCell id="MG6lyERmRnh1HpZcy8s1-498" value="8" style="ellipse;whiteSpace=wrap;html=1;aspect=fixed;" vertex="1" parent="1">
          <mxGeometry x="-163" y="1889" width="40" height="40" as="geometry" />
        </mxCell>
        <mxCell id="MG6lyERmRnh1HpZcy8s1-500" value="" style="endArrow=none;html=1;entryX=0;entryY=1;entryDx=0;entryDy=0;" edge="1" target="MG6lyERmRnh1HpZcy8s1-493" parent="1">
          <mxGeometry width="50" height="50" relative="1" as="geometry">
            <mxPoint x="-313" y="1889" as="sourcePoint" />
            <mxPoint x="-273" y="1859" as="targetPoint" />
          </mxGeometry>
        </mxCell>
        <mxCell id="MG6lyERmRnh1HpZcy8s1-501" value="" style="endArrow=none;html=1;entryX=1;entryY=1;entryDx=0;entryDy=0;exitX=0.325;exitY=-0.075;exitDx=0;exitDy=0;exitPerimeter=0;" edge="1" source="MG6lyERmRnh1HpZcy8s1-497" target="MG6lyERmRnh1HpZcy8s1-493" parent="1">
          <mxGeometry width="50" height="50" relative="1" as="geometry">
            <mxPoint x="-303" y="1899" as="sourcePoint" />
            <mxPoint x="-277.14213562373106" y="1863.142135623731" as="targetPoint" />
          </mxGeometry>
        </mxCell>
        <mxCell id="MG6lyERmRnh1HpZcy8s1-503" value="" style="endArrow=none;html=1;entryX=0;entryY=1;entryDx=0;entryDy=0;exitX=0.5;exitY=0;exitDx=0;exitDy=0;" edge="1" source="MG6lyERmRnh1HpZcy8s1-498" target="MG6lyERmRnh1HpZcy8s1-494" parent="1">
          <mxGeometry width="50" height="50" relative="1" as="geometry">
            <mxPoint x="-283" y="1919" as="sourcePoint" />
            <mxPoint x="-257.14213562373106" y="1883.142135623731" as="targetPoint" />
          </mxGeometry>
        </mxCell>
        <mxCell id="MG6lyERmRnh1HpZcy8s1-504" value="" style="shape=table;html=1;whiteSpace=wrap;startSize=0;container=1;collapsible=0;childLayout=tableLayout;" vertex="1" parent="1">
          <mxGeometry x="-403" y="1979" width="420" height="40" as="geometry" />
        </mxCell>
        <mxCell id="MG6lyERmRnh1HpZcy8s1-505" value="" style="shape=partialRectangle;html=1;whiteSpace=wrap;collapsible=0;dropTarget=0;pointerEvents=0;fillColor=none;top=0;left=0;bottom=0;right=0;points=[[0,0.5],[1,0.5]];portConstraint=eastwest;" vertex="1" parent="MG6lyERmRnh1HpZcy8s1-504">
          <mxGeometry width="420" height="40" as="geometry" />
        </mxCell>
        <mxCell id="MG6lyERmRnh1HpZcy8s1-506" value="16" style="shape=partialRectangle;html=1;whiteSpace=wrap;connectable=0;overflow=hidden;fillColor=none;top=0;left=0;bottom=0;right=0;" vertex="1" parent="MG6lyERmRnh1HpZcy8s1-505">
          <mxGeometry width="60" height="40" as="geometry" />
        </mxCell>
        <mxCell id="MG6lyERmRnh1HpZcy8s1-507" value="30" style="shape=partialRectangle;html=1;whiteSpace=wrap;connectable=0;overflow=hidden;fillColor=none;top=0;left=0;bottom=0;right=0;" vertex="1" parent="MG6lyERmRnh1HpZcy8s1-505">
          <mxGeometry x="60" width="60" height="40" as="geometry" />
        </mxCell>
        <mxCell id="MG6lyERmRnh1HpZcy8s1-508" value="20" style="shape=partialRectangle;html=1;whiteSpace=wrap;connectable=0;overflow=hidden;fillColor=none;top=0;left=0;bottom=0;right=0;" vertex="1" parent="MG6lyERmRnh1HpZcy8s1-505">
          <mxGeometry x="120" width="60" height="40" as="geometry" />
        </mxCell>
        <mxCell id="MG6lyERmRnh1HpZcy8s1-509" value="15" style="shape=partialRectangle;html=1;whiteSpace=wrap;connectable=0;overflow=hidden;fillColor=none;top=0;left=0;bottom=0;right=0;" vertex="1" parent="MG6lyERmRnh1HpZcy8s1-505">
          <mxGeometry x="180" width="60" height="40" as="geometry" />
        </mxCell>
        <mxCell id="MG6lyERmRnh1HpZcy8s1-510" value="10" style="shape=partialRectangle;html=1;whiteSpace=wrap;connectable=0;overflow=hidden;fillColor=none;top=0;left=0;bottom=0;right=0;" vertex="1" parent="MG6lyERmRnh1HpZcy8s1-505">
          <mxGeometry x="240" width="60" height="40" as="geometry" />
        </mxCell>
        <mxCell id="MG6lyERmRnh1HpZcy8s1-511" value="8" style="shape=partialRectangle;html=1;whiteSpace=wrap;connectable=0;overflow=hidden;fillColor=none;top=0;left=0;bottom=0;right=0;" vertex="1" parent="MG6lyERmRnh1HpZcy8s1-505">
          <mxGeometry x="300" width="60" height="40" as="geometry" />
        </mxCell>
        <mxCell id="MG6lyERmRnh1HpZcy8s1-512" value="" style="shape=partialRectangle;html=1;whiteSpace=wrap;connectable=0;overflow=hidden;fillColor=none;top=0;left=0;bottom=0;right=0;" vertex="1" parent="MG6lyERmRnh1HpZcy8s1-505">
          <mxGeometry x="360" width="60" height="40" as="geometry" />
        </mxCell>
        <mxCell id="MG6lyERmRnh1HpZcy8s1-513" value="max heap" style="text;html=1;align=center;verticalAlign=middle;resizable=0;points=[];autosize=1;" vertex="1" parent="1">
          <mxGeometry x="-232" y="1699" width="70" height="20" as="geometry" />
        </mxCell>
        <mxCell id="MG6lyERmRnh1HpZcy8s1-516" value="1" style="text;html=1;align=center;verticalAlign=middle;resizable=0;points=[];autosize=1;" vertex="1" parent="1">
          <mxGeometry x="-387" y="2029" width="20" height="20" as="geometry" />
        </mxCell>
        <mxCell id="MG6lyERmRnh1HpZcy8s1-517" value="2" style="text;html=1;align=center;verticalAlign=middle;resizable=0;points=[];autosize=1;" vertex="1" parent="1">
          <mxGeometry x="-327" y="2029" width="20" height="20" as="geometry" />
        </mxCell>
        <mxCell id="MG6lyERmRnh1HpZcy8s1-518" value="3" style="text;html=1;align=center;verticalAlign=middle;resizable=0;points=[];autosize=1;" vertex="1" parent="1">
          <mxGeometry x="-267" y="2029" width="20" height="20" as="geometry" />
        </mxCell>
        <mxCell id="MG6lyERmRnh1HpZcy8s1-519" value="4" style="text;html=1;align=center;verticalAlign=middle;resizable=0;points=[];autosize=1;" vertex="1" parent="1">
          <mxGeometry x="-207" y="2029" width="20" height="20" as="geometry" />
        </mxCell>
        <mxCell id="MG6lyERmRnh1HpZcy8s1-520" value="5" style="text;html=1;align=center;verticalAlign=middle;resizable=0;points=[];autosize=1;" vertex="1" parent="1">
          <mxGeometry x="-147" y="2029" width="20" height="20" as="geometry" />
        </mxCell>
        <mxCell id="MG6lyERmRnh1HpZcy8s1-521" value="6" style="text;html=1;align=center;verticalAlign=middle;resizable=0;points=[];autosize=1;" vertex="1" parent="1">
          <mxGeometry x="-87" y="2029" width="20" height="20" as="geometry" />
        </mxCell>
        <mxCell id="MG6lyERmRnh1HpZcy8s1-522" value="7" style="text;html=1;align=center;verticalAlign=middle;resizable=0;points=[];autosize=1;" vertex="1" parent="1">
          <mxGeometry x="-27" y="2029" width="20" height="20" as="geometry" />
        </mxCell>
        <mxCell id="MG6lyERmRnh1HpZcy8s1-523" value="30" style="ellipse;whiteSpace=wrap;html=1;aspect=fixed;" vertex="1" parent="1">
          <mxGeometry x="269" y="1741" width="40" height="40" as="geometry" />
        </mxCell>
        <mxCell id="MG6lyERmRnh1HpZcy8s1-524" value="" style="endArrow=none;html=1;entryX=0;entryY=1;entryDx=0;entryDy=0;exitX=0.5;exitY=0;exitDx=0;exitDy=0;" edge="1" source="MG6lyERmRnh1HpZcy8s1-525" target="MG6lyERmRnh1HpZcy8s1-523" parent="1">
          <mxGeometry width="50" height="50" relative="1" as="geometry">
            <mxPoint x="239" y="1821" as="sourcePoint" />
            <mxPoint x="269" y="1771" as="targetPoint" />
          </mxGeometry>
        </mxCell>
        <mxCell id="MG6lyERmRnh1HpZcy8s1-525" value="16" style="ellipse;whiteSpace=wrap;html=1;aspect=fixed;" vertex="1" parent="1">
          <mxGeometry x="189" y="1821" width="40" height="40" as="geometry" />
        </mxCell>
        <mxCell id="MG6lyERmRnh1HpZcy8s1-526" value="20" style="ellipse;whiteSpace=wrap;html=1;aspect=fixed;" vertex="1" parent="1">
          <mxGeometry x="359" y="1821" width="40" height="40" as="geometry" />
        </mxCell>
        <mxCell id="MG6lyERmRnh1HpZcy8s1-527" value="" style="endArrow=none;html=1;entryX=1;entryY=1;entryDx=0;entryDy=0;exitX=0.5;exitY=0;exitDx=0;exitDy=0;exitPerimeter=0;" edge="1" source="MG6lyERmRnh1HpZcy8s1-526" target="MG6lyERmRnh1HpZcy8s1-523" parent="1">
          <mxGeometry width="50" height="50" relative="1" as="geometry">
            <mxPoint x="379" y="1831" as="sourcePoint" />
            <mxPoint x="284.85786437626894" y="1785.142135623731" as="targetPoint" />
          </mxGeometry>
        </mxCell>
        <mxCell id="MG6lyERmRnh1HpZcy8s1-528" value="15" style="ellipse;whiteSpace=wrap;html=1;aspect=fixed;" vertex="1" parent="1">
          <mxGeometry x="139" y="1891" width="40" height="40" as="geometry" />
        </mxCell>
        <mxCell id="MG6lyERmRnh1HpZcy8s1-529" value="10" style="ellipse;whiteSpace=wrap;html=1;aspect=fixed;" vertex="1" parent="1">
          <mxGeometry x="229" y="1891" width="40" height="40" as="geometry" />
        </mxCell>
        <mxCell id="MG6lyERmRnh1HpZcy8s1-530" value="8" style="ellipse;whiteSpace=wrap;html=1;aspect=fixed;" vertex="1" parent="1">
          <mxGeometry x="319" y="1891" width="40" height="40" as="geometry" />
        </mxCell>
        <mxCell id="MG6lyERmRnh1HpZcy8s1-531" value="" style="endArrow=none;html=1;entryX=0;entryY=1;entryDx=0;entryDy=0;" edge="1" target="MG6lyERmRnh1HpZcy8s1-525" parent="1">
          <mxGeometry width="50" height="50" relative="1" as="geometry">
            <mxPoint x="169" y="1891" as="sourcePoint" />
            <mxPoint x="209" y="1861" as="targetPoint" />
          </mxGeometry>
        </mxCell>
        <mxCell id="MG6lyERmRnh1HpZcy8s1-532" value="" style="endArrow=none;html=1;entryX=1;entryY=1;entryDx=0;entryDy=0;exitX=0.325;exitY=-0.075;exitDx=0;exitDy=0;exitPerimeter=0;" edge="1" source="MG6lyERmRnh1HpZcy8s1-529" target="MG6lyERmRnh1HpZcy8s1-525" parent="1">
          <mxGeometry width="50" height="50" relative="1" as="geometry">
            <mxPoint x="179" y="1901" as="sourcePoint" />
            <mxPoint x="204.85786437626894" y="1865.142135623731" as="targetPoint" />
          </mxGeometry>
        </mxCell>
        <mxCell id="MG6lyERmRnh1HpZcy8s1-533" value="" style="endArrow=none;html=1;entryX=0;entryY=1;entryDx=0;entryDy=0;exitX=0.5;exitY=0;exitDx=0;exitDy=0;" edge="1" source="MG6lyERmRnh1HpZcy8s1-530" target="MG6lyERmRnh1HpZcy8s1-526" parent="1">
          <mxGeometry width="50" height="50" relative="1" as="geometry">
            <mxPoint x="199" y="1921" as="sourcePoint" />
            <mxPoint x="224.85786437626894" y="1885.142135623731" as="targetPoint" />
          </mxGeometry>
        </mxCell>
        <mxCell id="MG6lyERmRnh1HpZcy8s1-534" value="" style="shape=table;html=1;whiteSpace=wrap;startSize=0;container=1;collapsible=0;childLayout=tableLayout;" vertex="1" parent="1">
          <mxGeometry x="79" y="1981" width="420" height="40" as="geometry" />
        </mxCell>
        <mxCell id="MG6lyERmRnh1HpZcy8s1-535" value="" style="shape=partialRectangle;html=1;whiteSpace=wrap;collapsible=0;dropTarget=0;pointerEvents=0;fillColor=none;top=0;left=0;bottom=0;right=0;points=[[0,0.5],[1,0.5]];portConstraint=eastwest;" vertex="1" parent="MG6lyERmRnh1HpZcy8s1-534">
          <mxGeometry width="420" height="40" as="geometry" />
        </mxCell>
        <mxCell id="MG6lyERmRnh1HpZcy8s1-536" value="30" style="shape=partialRectangle;html=1;whiteSpace=wrap;connectable=0;overflow=hidden;fillColor=none;top=0;left=0;bottom=0;right=0;" vertex="1" parent="MG6lyERmRnh1HpZcy8s1-535">
          <mxGeometry width="60" height="40" as="geometry" />
        </mxCell>
        <mxCell id="MG6lyERmRnh1HpZcy8s1-537" value="16" style="shape=partialRectangle;html=1;whiteSpace=wrap;connectable=0;overflow=hidden;fillColor=none;top=0;left=0;bottom=0;right=0;" vertex="1" parent="MG6lyERmRnh1HpZcy8s1-535">
          <mxGeometry x="60" width="60" height="40" as="geometry" />
        </mxCell>
        <mxCell id="MG6lyERmRnh1HpZcy8s1-538" value="20" style="shape=partialRectangle;html=1;whiteSpace=wrap;connectable=0;overflow=hidden;fillColor=none;top=0;left=0;bottom=0;right=0;" vertex="1" parent="MG6lyERmRnh1HpZcy8s1-535">
          <mxGeometry x="120" width="60" height="40" as="geometry" />
        </mxCell>
        <mxCell id="MG6lyERmRnh1HpZcy8s1-539" value="15" style="shape=partialRectangle;html=1;whiteSpace=wrap;connectable=0;overflow=hidden;fillColor=none;top=0;left=0;bottom=0;right=0;" vertex="1" parent="MG6lyERmRnh1HpZcy8s1-535">
          <mxGeometry x="180" width="60" height="40" as="geometry" />
        </mxCell>
        <mxCell id="MG6lyERmRnh1HpZcy8s1-540" value="10" style="shape=partialRectangle;html=1;whiteSpace=wrap;connectable=0;overflow=hidden;fillColor=none;top=0;left=0;bottom=0;right=0;" vertex="1" parent="MG6lyERmRnh1HpZcy8s1-535">
          <mxGeometry x="240" width="60" height="40" as="geometry" />
        </mxCell>
        <mxCell id="MG6lyERmRnh1HpZcy8s1-541" value="8" style="shape=partialRectangle;html=1;whiteSpace=wrap;connectable=0;overflow=hidden;fillColor=none;top=0;left=0;bottom=0;right=0;" vertex="1" parent="MG6lyERmRnh1HpZcy8s1-535">
          <mxGeometry x="300" width="60" height="40" as="geometry" />
        </mxCell>
        <mxCell id="MG6lyERmRnh1HpZcy8s1-542" value="50" style="shape=partialRectangle;html=1;whiteSpace=wrap;connectable=0;overflow=hidden;fillColor=none;top=0;left=0;bottom=0;right=0;" vertex="1" parent="MG6lyERmRnh1HpZcy8s1-535">
          <mxGeometry x="360" width="60" height="40" as="geometry" />
        </mxCell>
        <mxCell id="MG6lyERmRnh1HpZcy8s1-543" value="max heap" style="text;html=1;align=center;verticalAlign=middle;resizable=0;points=[];autosize=1;" vertex="1" parent="1">
          <mxGeometry x="250" y="1704" width="70" height="20" as="geometry" />
        </mxCell>
        <mxCell id="MG6lyERmRnh1HpZcy8s1-544" value="1" style="text;html=1;align=center;verticalAlign=middle;resizable=0;points=[];autosize=1;" vertex="1" parent="1">
          <mxGeometry x="95" y="2026" width="20" height="20" as="geometry" />
        </mxCell>
        <mxCell id="MG6lyERmRnh1HpZcy8s1-545" value="2" style="text;html=1;align=center;verticalAlign=middle;resizable=0;points=[];autosize=1;" vertex="1" parent="1">
          <mxGeometry x="155" y="2026" width="20" height="20" as="geometry" />
        </mxCell>
        <mxCell id="MG6lyERmRnh1HpZcy8s1-546" value="3" style="text;html=1;align=center;verticalAlign=middle;resizable=0;points=[];autosize=1;" vertex="1" parent="1">
          <mxGeometry x="215" y="2026" width="20" height="20" as="geometry" />
        </mxCell>
        <mxCell id="MG6lyERmRnh1HpZcy8s1-547" value="4" style="text;html=1;align=center;verticalAlign=middle;resizable=0;points=[];autosize=1;" vertex="1" parent="1">
          <mxGeometry x="275" y="2026" width="20" height="20" as="geometry" />
        </mxCell>
        <mxCell id="MG6lyERmRnh1HpZcy8s1-548" value="5" style="text;html=1;align=center;verticalAlign=middle;resizable=0;points=[];autosize=1;" vertex="1" parent="1">
          <mxGeometry x="335" y="2026" width="20" height="20" as="geometry" />
        </mxCell>
        <mxCell id="MG6lyERmRnh1HpZcy8s1-549" value="6" style="text;html=1;align=center;verticalAlign=middle;resizable=0;points=[];autosize=1;" vertex="1" parent="1">
          <mxGeometry x="395" y="2026" width="20" height="20" as="geometry" />
        </mxCell>
        <mxCell id="MG6lyERmRnh1HpZcy8s1-550" value="7" style="text;html=1;align=center;verticalAlign=middle;resizable=0;points=[];autosize=1;" vertex="1" parent="1">
          <mxGeometry x="455" y="2026" width="20" height="20" as="geometry" />
        </mxCell>
        <mxCell id="MG6lyERmRnh1HpZcy8s1-551" value="" style="shape=flexArrow;endArrow=classic;html=1;fontSize=18;" edge="1" parent="1">
          <mxGeometry width="50" height="50" relative="1" as="geometry">
            <mxPoint x="-440" y="1818" as="sourcePoint" />
            <mxPoint x="-360" y="1818" as="targetPoint" />
          </mxGeometry>
        </mxCell>
        <mxCell id="MG6lyERmRnh1HpZcy8s1-552" value="" style="shape=flexArrow;endArrow=classic;html=1;fontSize=18;" edge="1" parent="1">
          <mxGeometry width="50" height="50" relative="1" as="geometry">
            <mxPoint x="-20" y="1820" as="sourcePoint" />
            <mxPoint x="60" y="1820" as="targetPoint" />
          </mxGeometry>
        </mxCell>
        <mxCell id="MG6lyERmRnh1HpZcy8s1-553" value="" style="endArrow=none;html=1;fontSize=18;" edge="1" parent="1">
          <mxGeometry width="50" height="50" relative="1" as="geometry">
            <mxPoint x="440" y="2050" as="sourcePoint" />
            <mxPoint x="440" y="1950" as="targetPoint" />
          </mxGeometry>
        </mxCell>
        <mxCell id="MG6lyERmRnh1HpZcy8s1-554" value="20" style="ellipse;whiteSpace=wrap;html=1;aspect=fixed;" vertex="1" parent="1">
          <mxGeometry x="-660" y="2187" width="40" height="40" as="geometry" />
        </mxCell>
        <mxCell id="MG6lyERmRnh1HpZcy8s1-555" value="" style="endArrow=none;html=1;entryX=0;entryY=1;entryDx=0;entryDy=0;exitX=0.5;exitY=0;exitDx=0;exitDy=0;" edge="1" source="MG6lyERmRnh1HpZcy8s1-556" target="MG6lyERmRnh1HpZcy8s1-554" parent="1">
          <mxGeometry width="50" height="50" relative="1" as="geometry">
            <mxPoint x="-690" y="2267" as="sourcePoint" />
            <mxPoint x="-660" y="2217" as="targetPoint" />
          </mxGeometry>
        </mxCell>
        <mxCell id="MG6lyERmRnh1HpZcy8s1-556" value="16" style="ellipse;whiteSpace=wrap;html=1;aspect=fixed;" vertex="1" parent="1">
          <mxGeometry x="-740" y="2267" width="40" height="40" as="geometry" />
        </mxCell>
        <mxCell id="MG6lyERmRnh1HpZcy8s1-557" value="8" style="ellipse;whiteSpace=wrap;html=1;aspect=fixed;" vertex="1" parent="1">
          <mxGeometry x="-570" y="2267" width="40" height="40" as="geometry" />
        </mxCell>
        <mxCell id="MG6lyERmRnh1HpZcy8s1-558" value="" style="endArrow=none;html=1;entryX=1;entryY=1;entryDx=0;entryDy=0;exitX=0.5;exitY=0;exitDx=0;exitDy=0;exitPerimeter=0;" edge="1" source="MG6lyERmRnh1HpZcy8s1-557" target="MG6lyERmRnh1HpZcy8s1-554" parent="1">
          <mxGeometry width="50" height="50" relative="1" as="geometry">
            <mxPoint x="-550" y="2277" as="sourcePoint" />
            <mxPoint x="-644.1421356237311" y="2231.142135623731" as="targetPoint" />
          </mxGeometry>
        </mxCell>
        <mxCell id="MG6lyERmRnh1HpZcy8s1-559" value="15" style="ellipse;whiteSpace=wrap;html=1;aspect=fixed;" vertex="1" parent="1">
          <mxGeometry x="-790" y="2337" width="40" height="40" as="geometry" />
        </mxCell>
        <mxCell id="MG6lyERmRnh1HpZcy8s1-560" value="10" style="ellipse;whiteSpace=wrap;html=1;aspect=fixed;" vertex="1" parent="1">
          <mxGeometry x="-700" y="2337" width="40" height="40" as="geometry" />
        </mxCell>
        <mxCell id="MG6lyERmRnh1HpZcy8s1-562" value="" style="endArrow=none;html=1;entryX=0;entryY=1;entryDx=0;entryDy=0;" edge="1" target="MG6lyERmRnh1HpZcy8s1-556" parent="1">
          <mxGeometry width="50" height="50" relative="1" as="geometry">
            <mxPoint x="-760" y="2337" as="sourcePoint" />
            <mxPoint x="-720" y="2307" as="targetPoint" />
          </mxGeometry>
        </mxCell>
        <mxCell id="MG6lyERmRnh1HpZcy8s1-563" value="" style="endArrow=none;html=1;entryX=1;entryY=1;entryDx=0;entryDy=0;exitX=0.325;exitY=-0.075;exitDx=0;exitDy=0;exitPerimeter=0;" edge="1" source="MG6lyERmRnh1HpZcy8s1-560" target="MG6lyERmRnh1HpZcy8s1-556" parent="1">
          <mxGeometry width="50" height="50" relative="1" as="geometry">
            <mxPoint x="-750" y="2347" as="sourcePoint" />
            <mxPoint x="-724.1421356237311" y="2311.142135623731" as="targetPoint" />
          </mxGeometry>
        </mxCell>
        <mxCell id="MG6lyERmRnh1HpZcy8s1-565" value="" style="shape=table;html=1;whiteSpace=wrap;startSize=0;container=1;collapsible=0;childLayout=tableLayout;" vertex="1" parent="1">
          <mxGeometry x="-850" y="2427" width="420" height="40" as="geometry" />
        </mxCell>
        <mxCell id="MG6lyERmRnh1HpZcy8s1-566" value="" style="shape=partialRectangle;html=1;whiteSpace=wrap;collapsible=0;dropTarget=0;pointerEvents=0;fillColor=none;top=0;left=0;bottom=0;right=0;points=[[0,0.5],[1,0.5]];portConstraint=eastwest;" vertex="1" parent="MG6lyERmRnh1HpZcy8s1-565">
          <mxGeometry width="420" height="40" as="geometry" />
        </mxCell>
        <mxCell id="MG6lyERmRnh1HpZcy8s1-567" value="20" style="shape=partialRectangle;html=1;whiteSpace=wrap;connectable=0;overflow=hidden;fillColor=none;top=0;left=0;bottom=0;right=0;" vertex="1" parent="MG6lyERmRnh1HpZcy8s1-566">
          <mxGeometry width="60" height="40" as="geometry" />
        </mxCell>
        <mxCell id="MG6lyERmRnh1HpZcy8s1-568" value="16" style="shape=partialRectangle;html=1;whiteSpace=wrap;connectable=0;overflow=hidden;fillColor=none;top=0;left=0;bottom=0;right=0;" vertex="1" parent="MG6lyERmRnh1HpZcy8s1-566">
          <mxGeometry x="60" width="60" height="40" as="geometry" />
        </mxCell>
        <mxCell id="MG6lyERmRnh1HpZcy8s1-569" value="8" style="shape=partialRectangle;html=1;whiteSpace=wrap;connectable=0;overflow=hidden;fillColor=none;top=0;left=0;bottom=0;right=0;" vertex="1" parent="MG6lyERmRnh1HpZcy8s1-566">
          <mxGeometry x="120" width="60" height="40" as="geometry" />
        </mxCell>
        <mxCell id="MG6lyERmRnh1HpZcy8s1-570" value="15" style="shape=partialRectangle;html=1;whiteSpace=wrap;connectable=0;overflow=hidden;fillColor=none;top=0;left=0;bottom=0;right=0;" vertex="1" parent="MG6lyERmRnh1HpZcy8s1-566">
          <mxGeometry x="180" width="60" height="40" as="geometry" />
        </mxCell>
        <mxCell id="MG6lyERmRnh1HpZcy8s1-571" value="10" style="shape=partialRectangle;html=1;whiteSpace=wrap;connectable=0;overflow=hidden;fillColor=none;top=0;left=0;bottom=0;right=0;" vertex="1" parent="MG6lyERmRnh1HpZcy8s1-566">
          <mxGeometry x="240" width="60" height="40" as="geometry" />
        </mxCell>
        <mxCell id="MG6lyERmRnh1HpZcy8s1-572" value="30" style="shape=partialRectangle;html=1;whiteSpace=wrap;connectable=0;overflow=hidden;fillColor=none;top=0;left=0;bottom=0;right=0;" vertex="1" parent="MG6lyERmRnh1HpZcy8s1-566">
          <mxGeometry x="300" width="60" height="40" as="geometry" />
        </mxCell>
        <mxCell id="MG6lyERmRnh1HpZcy8s1-573" value="50" style="shape=partialRectangle;html=1;whiteSpace=wrap;connectable=0;overflow=hidden;fillColor=none;top=0;left=0;bottom=0;right=0;" vertex="1" parent="MG6lyERmRnh1HpZcy8s1-566">
          <mxGeometry x="360" width="60" height="40" as="geometry" />
        </mxCell>
        <mxCell id="MG6lyERmRnh1HpZcy8s1-574" value="max heap" style="text;html=1;align=center;verticalAlign=middle;resizable=0;points=[];autosize=1;" vertex="1" parent="1">
          <mxGeometry x="-679" y="2150" width="70" height="20" as="geometry" />
        </mxCell>
        <mxCell id="MG6lyERmRnh1HpZcy8s1-575" value="1" style="text;html=1;align=center;verticalAlign=middle;resizable=0;points=[];autosize=1;" vertex="1" parent="1">
          <mxGeometry x="-834" y="2472" width="20" height="20" as="geometry" />
        </mxCell>
        <mxCell id="MG6lyERmRnh1HpZcy8s1-576" value="2" style="text;html=1;align=center;verticalAlign=middle;resizable=0;points=[];autosize=1;" vertex="1" parent="1">
          <mxGeometry x="-774" y="2472" width="20" height="20" as="geometry" />
        </mxCell>
        <mxCell id="MG6lyERmRnh1HpZcy8s1-577" value="3" style="text;html=1;align=center;verticalAlign=middle;resizable=0;points=[];autosize=1;" vertex="1" parent="1">
          <mxGeometry x="-714" y="2472" width="20" height="20" as="geometry" />
        </mxCell>
        <mxCell id="MG6lyERmRnh1HpZcy8s1-578" value="4" style="text;html=1;align=center;verticalAlign=middle;resizable=0;points=[];autosize=1;" vertex="1" parent="1">
          <mxGeometry x="-654" y="2472" width="20" height="20" as="geometry" />
        </mxCell>
        <mxCell id="MG6lyERmRnh1HpZcy8s1-579" value="5" style="text;html=1;align=center;verticalAlign=middle;resizable=0;points=[];autosize=1;" vertex="1" parent="1">
          <mxGeometry x="-594" y="2472" width="20" height="20" as="geometry" />
        </mxCell>
        <mxCell id="MG6lyERmRnh1HpZcy8s1-580" value="6" style="text;html=1;align=center;verticalAlign=middle;resizable=0;points=[];autosize=1;" vertex="1" parent="1">
          <mxGeometry x="-534" y="2472" width="20" height="20" as="geometry" />
        </mxCell>
        <mxCell id="MG6lyERmRnh1HpZcy8s1-581" value="7" style="text;html=1;align=center;verticalAlign=middle;resizable=0;points=[];autosize=1;" vertex="1" parent="1">
          <mxGeometry x="-474" y="2472" width="20" height="20" as="geometry" />
        </mxCell>
        <mxCell id="MG6lyERmRnh1HpZcy8s1-582" value="" style="endArrow=none;html=1;fontSize=18;" edge="1" parent="1">
          <mxGeometry width="50" height="50" relative="1" as="geometry">
            <mxPoint x="-550.5" y="2497" as="sourcePoint" />
            <mxPoint x="-550.5" y="2397" as="targetPoint" />
          </mxGeometry>
        </mxCell>
        <mxCell id="MG6lyERmRnh1HpZcy8s1-584" value="10" style="ellipse;whiteSpace=wrap;html=1;aspect=fixed;" vertex="1" parent="1">
          <mxGeometry x="-774" y="2640" width="40" height="40" as="geometry" />
        </mxCell>
        <mxCell id="MG6lyERmRnh1HpZcy8s1-585" value="" style="shape=table;html=1;whiteSpace=wrap;startSize=0;container=1;collapsible=0;childLayout=tableLayout;" vertex="1" parent="1">
          <mxGeometry x="-900" y="2790" width="300" height="40" as="geometry" />
        </mxCell>
        <mxCell id="MG6lyERmRnh1HpZcy8s1-586" value="" style="shape=partialRectangle;html=1;whiteSpace=wrap;collapsible=0;dropTarget=0;pointerEvents=0;fillColor=none;top=0;left=0;bottom=0;right=0;points=[[0,0.5],[1,0.5]];portConstraint=eastwest;" vertex="1" parent="MG6lyERmRnh1HpZcy8s1-585">
          <mxGeometry width="300" height="40" as="geometry" />
        </mxCell>
        <mxCell id="MG6lyERmRnh1HpZcy8s1-587" value="10" style="shape=partialRectangle;html=1;whiteSpace=wrap;connectable=0;overflow=hidden;fillColor=none;top=0;left=0;bottom=0;right=0;" vertex="1" parent="MG6lyERmRnh1HpZcy8s1-586">
          <mxGeometry width="60" height="40" as="geometry" />
        </mxCell>
        <mxCell id="MG6lyERmRnh1HpZcy8s1-588" value="20" style="shape=partialRectangle;html=1;whiteSpace=wrap;connectable=0;overflow=hidden;fillColor=none;top=0;left=0;bottom=0;right=0;" vertex="1" parent="MG6lyERmRnh1HpZcy8s1-586">
          <mxGeometry x="60" width="60" height="40" as="geometry" />
        </mxCell>
        <mxCell id="MG6lyERmRnh1HpZcy8s1-589" value="15" style="shape=partialRectangle;html=1;whiteSpace=wrap;connectable=0;overflow=hidden;fillColor=none;top=0;left=0;bottom=0;right=0;" vertex="1" parent="MG6lyERmRnh1HpZcy8s1-586">
          <mxGeometry x="120" width="60" height="40" as="geometry" />
        </mxCell>
        <mxCell id="MG6lyERmRnh1HpZcy8s1-590" value="30" style="shape=partialRectangle;html=1;whiteSpace=wrap;connectable=0;overflow=hidden;fillColor=none;top=0;left=0;bottom=0;right=0;" vertex="1" parent="MG6lyERmRnh1HpZcy8s1-586">
          <mxGeometry x="180" width="60" height="40" as="geometry" />
        </mxCell>
        <mxCell id="MG6lyERmRnh1HpZcy8s1-591" value="40" style="shape=partialRectangle;html=1;whiteSpace=wrap;connectable=0;overflow=hidden;fillColor=none;top=0;left=0;bottom=0;right=0;" vertex="1" parent="MG6lyERmRnh1HpZcy8s1-586">
          <mxGeometry x="240" width="60" height="40" as="geometry" />
        </mxCell>
        <mxCell id="MG6lyERmRnh1HpZcy8s1-592" value="" style="endArrow=none;html=1;fontSize=18;" edge="1" parent="1">
          <mxGeometry width="50" height="50" relative="1" as="geometry">
            <mxPoint x="-840" y="2860" as="sourcePoint" />
            <mxPoint x="-840" y="2760" as="targetPoint" />
          </mxGeometry>
        </mxCell>
        <mxCell id="MG6lyERmRnh1HpZcy8s1-593" value="20" style="ellipse;whiteSpace=wrap;html=1;aspect=fixed;" vertex="1" parent="1">
          <mxGeometry x="-433" y="2630" width="40" height="40" as="geometry" />
        </mxCell>
        <mxCell id="MG6lyERmRnh1HpZcy8s1-594" value="" style="endArrow=none;html=1;fontSize=18;" edge="1" parent="1">
          <mxGeometry width="50" height="50" relative="1" as="geometry">
            <mxPoint x="-460" y="2690" as="sourcePoint" />
            <mxPoint x="-428" y="2660" as="targetPoint" />
          </mxGeometry>
        </mxCell>
        <mxCell id="MG6lyERmRnh1HpZcy8s1-595" value="10" style="ellipse;whiteSpace=wrap;html=1;aspect=fixed;" vertex="1" parent="1">
          <mxGeometry x="-488" y="2688" width="40" height="40" as="geometry" />
        </mxCell>
        <mxCell id="MG6lyERmRnh1HpZcy8s1-596" value="" style="shape=table;html=1;whiteSpace=wrap;startSize=0;container=1;collapsible=0;childLayout=tableLayout;" vertex="1" parent="1">
          <mxGeometry x="-520" y="2790" width="120" height="40" as="geometry" />
        </mxCell>
        <mxCell id="MG6lyERmRnh1HpZcy8s1-597" value="" style="shape=partialRectangle;html=1;whiteSpace=wrap;collapsible=0;dropTarget=0;pointerEvents=0;fillColor=none;top=0;left=0;bottom=0;right=0;points=[[0,0.5],[1,0.5]];portConstraint=eastwest;" vertex="1" parent="MG6lyERmRnh1HpZcy8s1-596">
          <mxGeometry width="120" height="40" as="geometry" />
        </mxCell>
        <mxCell id="MG6lyERmRnh1HpZcy8s1-598" value="20" style="shape=partialRectangle;html=1;whiteSpace=wrap;connectable=0;overflow=hidden;fillColor=none;top=0;left=0;bottom=0;right=0;" vertex="1" parent="MG6lyERmRnh1HpZcy8s1-597">
          <mxGeometry width="60" height="40" as="geometry" />
        </mxCell>
        <mxCell id="MG6lyERmRnh1HpZcy8s1-599" value="10" style="shape=partialRectangle;html=1;whiteSpace=wrap;connectable=0;overflow=hidden;fillColor=none;top=0;left=0;bottom=0;right=0;" vertex="1" parent="MG6lyERmRnh1HpZcy8s1-597">
          <mxGeometry x="60" width="60" height="40" as="geometry" />
        </mxCell>
        <mxCell id="MG6lyERmRnh1HpZcy8s1-600" value="20" style="ellipse;whiteSpace=wrap;html=1;aspect=fixed;" vertex="1" parent="1">
          <mxGeometry x="-223" y="2630" width="40" height="40" as="geometry" />
        </mxCell>
        <mxCell id="MG6lyERmRnh1HpZcy8s1-601" value="" style="endArrow=none;html=1;fontSize=18;" edge="1" parent="1">
          <mxGeometry width="50" height="50" relative="1" as="geometry">
            <mxPoint x="-250" y="2690" as="sourcePoint" />
            <mxPoint x="-218" y="2660" as="targetPoint" />
          </mxGeometry>
        </mxCell>
        <mxCell id="MG6lyERmRnh1HpZcy8s1-602" value="10" style="ellipse;whiteSpace=wrap;html=1;aspect=fixed;" vertex="1" parent="1">
          <mxGeometry x="-278" y="2688" width="40" height="40" as="geometry" />
        </mxCell>
        <mxCell id="MG6lyERmRnh1HpZcy8s1-603" value="" style="shape=table;html=1;whiteSpace=wrap;startSize=0;container=1;collapsible=0;childLayout=tableLayout;" vertex="1" parent="1">
          <mxGeometry x="-294" y="2790" width="180" height="40" as="geometry" />
        </mxCell>
        <mxCell id="MG6lyERmRnh1HpZcy8s1-604" value="" style="shape=partialRectangle;html=1;whiteSpace=wrap;collapsible=0;dropTarget=0;pointerEvents=0;fillColor=none;top=0;left=0;bottom=0;right=0;points=[[0,0.5],[1,0.5]];portConstraint=eastwest;" vertex="1" parent="MG6lyERmRnh1HpZcy8s1-603">
          <mxGeometry width="180" height="40" as="geometry" />
        </mxCell>
        <mxCell id="MG6lyERmRnh1HpZcy8s1-605" value="20" style="shape=partialRectangle;html=1;whiteSpace=wrap;connectable=0;overflow=hidden;fillColor=none;top=0;left=0;bottom=0;right=0;" vertex="1" parent="MG6lyERmRnh1HpZcy8s1-604">
          <mxGeometry width="60" height="40" as="geometry" />
        </mxCell>
        <mxCell id="MG6lyERmRnh1HpZcy8s1-606" value="10" style="shape=partialRectangle;html=1;whiteSpace=wrap;connectable=0;overflow=hidden;fillColor=none;top=0;left=0;bottom=0;right=0;" vertex="1" parent="MG6lyERmRnh1HpZcy8s1-604">
          <mxGeometry x="60" width="60" height="40" as="geometry" />
        </mxCell>
        <mxCell id="MG6lyERmRnh1HpZcy8s1-607" value="15" style="shape=partialRectangle;html=1;whiteSpace=wrap;connectable=0;overflow=hidden;fillColor=none;top=0;left=0;bottom=0;right=0;" vertex="1" parent="MG6lyERmRnh1HpZcy8s1-604">
          <mxGeometry x="120" width="60" height="40" as="geometry" />
        </mxCell>
        <mxCell id="MG6lyERmRnh1HpZcy8s1-608" value="" style="endArrow=none;html=1;fontSize=18;entryX=1;entryY=1;entryDx=0;entryDy=0;" edge="1" parent="1" target="MG6lyERmRnh1HpZcy8s1-600">
          <mxGeometry width="50" height="50" relative="1" as="geometry">
            <mxPoint x="-150" y="2700" as="sourcePoint" />
            <mxPoint x="-208" y="2670" as="targetPoint" />
          </mxGeometry>
        </mxCell>
        <mxCell id="MG6lyERmRnh1HpZcy8s1-609" value="15" style="ellipse;whiteSpace=wrap;html=1;aspect=fixed;" vertex="1" parent="1">
          <mxGeometry x="-167" y="2688" width="40" height="40" as="geometry" />
        </mxCell>
        <mxCell id="MG6lyERmRnh1HpZcy8s1-610" value="20" style="ellipse;whiteSpace=wrap;html=1;aspect=fixed;" vertex="1" parent="1">
          <mxGeometry x="-763" y="2940" width="40" height="40" as="geometry" />
        </mxCell>
        <mxCell id="MG6lyERmRnh1HpZcy8s1-611" value="" style="endArrow=none;html=1;fontSize=18;" edge="1" parent="1">
          <mxGeometry width="50" height="50" relative="1" as="geometry">
            <mxPoint x="-790" y="3000" as="sourcePoint" />
            <mxPoint x="-758" y="2970" as="targetPoint" />
          </mxGeometry>
        </mxCell>
        <mxCell id="MG6lyERmRnh1HpZcy8s1-612" value="10" style="ellipse;whiteSpace=wrap;html=1;aspect=fixed;" vertex="1" parent="1">
          <mxGeometry x="-818" y="2998" width="40" height="40" as="geometry" />
        </mxCell>
        <mxCell id="MG6lyERmRnh1HpZcy8s1-613" value="" style="shape=table;html=1;whiteSpace=wrap;startSize=0;container=1;collapsible=0;childLayout=tableLayout;" vertex="1" parent="1">
          <mxGeometry x="-866" y="3120" width="240" height="40" as="geometry" />
        </mxCell>
        <mxCell id="MG6lyERmRnh1HpZcy8s1-614" value="" style="shape=partialRectangle;html=1;whiteSpace=wrap;collapsible=0;dropTarget=0;pointerEvents=0;fillColor=none;top=0;left=0;bottom=0;right=0;points=[[0,0.5],[1,0.5]];portConstraint=eastwest;" vertex="1" parent="MG6lyERmRnh1HpZcy8s1-613">
          <mxGeometry width="240" height="40" as="geometry" />
        </mxCell>
        <mxCell id="MG6lyERmRnh1HpZcy8s1-615" value="20" style="shape=partialRectangle;html=1;whiteSpace=wrap;connectable=0;overflow=hidden;fillColor=none;top=0;left=0;bottom=0;right=0;" vertex="1" parent="MG6lyERmRnh1HpZcy8s1-614">
          <mxGeometry width="60" height="40" as="geometry" />
        </mxCell>
        <mxCell id="MG6lyERmRnh1HpZcy8s1-616" value="10" style="shape=partialRectangle;html=1;whiteSpace=wrap;connectable=0;overflow=hidden;fillColor=none;top=0;left=0;bottom=0;right=0;" vertex="1" parent="MG6lyERmRnh1HpZcy8s1-614">
          <mxGeometry x="60" width="60" height="40" as="geometry" />
        </mxCell>
        <mxCell id="MG6lyERmRnh1HpZcy8s1-617" value="15" style="shape=partialRectangle;html=1;whiteSpace=wrap;connectable=0;overflow=hidden;fillColor=none;top=0;left=0;bottom=0;right=0;" vertex="1" parent="MG6lyERmRnh1HpZcy8s1-614">
          <mxGeometry x="120" width="60" height="40" as="geometry" />
        </mxCell>
        <mxCell id="MG6lyERmRnh1HpZcy8s1-626" value="30" style="shape=partialRectangle;html=1;whiteSpace=wrap;connectable=0;overflow=hidden;fillColor=none;top=0;left=0;bottom=0;right=0;" vertex="1" parent="MG6lyERmRnh1HpZcy8s1-614">
          <mxGeometry x="180" width="60" height="40" as="geometry" />
        </mxCell>
        <mxCell id="MG6lyERmRnh1HpZcy8s1-618" value="" style="endArrow=none;html=1;fontSize=18;entryX=1;entryY=1;entryDx=0;entryDy=0;" edge="1" target="MG6lyERmRnh1HpZcy8s1-610" parent="1">
          <mxGeometry width="50" height="50" relative="1" as="geometry">
            <mxPoint x="-690" y="3010" as="sourcePoint" />
            <mxPoint x="-748" y="2980" as="targetPoint" />
          </mxGeometry>
        </mxCell>
        <mxCell id="MG6lyERmRnh1HpZcy8s1-619" value="15" style="ellipse;whiteSpace=wrap;html=1;aspect=fixed;" vertex="1" parent="1">
          <mxGeometry x="-707" y="2998" width="40" height="40" as="geometry" />
        </mxCell>
        <mxCell id="MG6lyERmRnh1HpZcy8s1-620" value="" style="endArrow=none;html=1;fontSize=18;" edge="1" parent="1">
          <mxGeometry width="50" height="50" relative="1" as="geometry">
            <mxPoint x="-850" y="3060" as="sourcePoint" />
            <mxPoint x="-816" y="3030" as="targetPoint" />
          </mxGeometry>
        </mxCell>
        <mxCell id="MG6lyERmRnh1HpZcy8s1-622" value="30" style="ellipse;whiteSpace=wrap;html=1;aspect=fixed;" vertex="1" parent="1">
          <mxGeometry x="-878" y="3050" width="40" height="40" as="geometry" />
        </mxCell>
        <mxCell id="MG6lyERmRnh1HpZcy8s1-623" value="" style="curved=1;endArrow=classic;html=1;fontSize=18;exitX=0;exitY=0;exitDx=0;exitDy=0;" edge="1" parent="1">
          <mxGeometry width="50" height="50" relative="1" as="geometry">
            <mxPoint x="-871.1421356237311" y="3059.857864376269" as="sourcePoint" />
            <mxPoint x="-820" y="3010" as="targetPoint" />
            <Array as="points">
              <mxPoint x="-887" y="3044" />
              <mxPoint x="-860" y="3010" />
            </Array>
          </mxGeometry>
        </mxCell>
        <mxCell id="MG6lyERmRnh1HpZcy8s1-625" value="" style="curved=1;endArrow=classic;html=1;fontSize=18;exitX=0;exitY=0;exitDx=0;exitDy=0;" edge="1" parent="1">
          <mxGeometry width="50" height="50" relative="1" as="geometry">
            <mxPoint x="-815.1421356237311" y="3009.8578643762685" as="sourcePoint" />
            <mxPoint x="-764" y="2960" as="targetPoint" />
            <Array as="points">
              <mxPoint x="-831" y="2994" />
              <mxPoint x="-804" y="2960" />
            </Array>
          </mxGeometry>
        </mxCell>
        <mxCell id="MG6lyERmRnh1HpZcy8s1-627" value="" style="shape=flexArrow;endArrow=classic;html=1;fontSize=18;" edge="1" parent="1">
          <mxGeometry width="50" height="50" relative="1" as="geometry">
            <mxPoint x="-600" y="3050" as="sourcePoint" />
            <mxPoint x="-530" y="3050" as="targetPoint" />
            <Array as="points">
              <mxPoint x="-570" y="3050" />
            </Array>
          </mxGeometry>
        </mxCell>
        <mxCell id="MG6lyERmRnh1HpZcy8s1-628" value="30" style="ellipse;whiteSpace=wrap;html=1;aspect=fixed;" vertex="1" parent="1">
          <mxGeometry x="-351" y="2940" width="40" height="40" as="geometry" />
        </mxCell>
        <mxCell id="MG6lyERmRnh1HpZcy8s1-629" value="" style="endArrow=none;html=1;fontSize=18;" edge="1" parent="1">
          <mxGeometry width="50" height="50" relative="1" as="geometry">
            <mxPoint x="-378" y="3000" as="sourcePoint" />
            <mxPoint x="-346" y="2970" as="targetPoint" />
          </mxGeometry>
        </mxCell>
        <mxCell id="MG6lyERmRnh1HpZcy8s1-630" value="20" style="ellipse;whiteSpace=wrap;html=1;aspect=fixed;" vertex="1" parent="1">
          <mxGeometry x="-406" y="2998" width="40" height="40" as="geometry" />
        </mxCell>
        <mxCell id="MG6lyERmRnh1HpZcy8s1-631" value="" style="shape=table;html=1;whiteSpace=wrap;startSize=0;container=1;collapsible=0;childLayout=tableLayout;" vertex="1" parent="1">
          <mxGeometry x="-454" y="3120" width="240" height="40" as="geometry" />
        </mxCell>
        <mxCell id="MG6lyERmRnh1HpZcy8s1-632" value="" style="shape=partialRectangle;html=1;whiteSpace=wrap;collapsible=0;dropTarget=0;pointerEvents=0;fillColor=none;top=0;left=0;bottom=0;right=0;points=[[0,0.5],[1,0.5]];portConstraint=eastwest;" vertex="1" parent="MG6lyERmRnh1HpZcy8s1-631">
          <mxGeometry width="240" height="40" as="geometry" />
        </mxCell>
        <mxCell id="MG6lyERmRnh1HpZcy8s1-633" value="30" style="shape=partialRectangle;html=1;whiteSpace=wrap;connectable=0;overflow=hidden;fillColor=none;top=0;left=0;bottom=0;right=0;" vertex="1" parent="MG6lyERmRnh1HpZcy8s1-632">
          <mxGeometry width="60" height="40" as="geometry" />
        </mxCell>
        <mxCell id="MG6lyERmRnh1HpZcy8s1-634" value="20" style="shape=partialRectangle;html=1;whiteSpace=wrap;connectable=0;overflow=hidden;fillColor=none;top=0;left=0;bottom=0;right=0;" vertex="1" parent="MG6lyERmRnh1HpZcy8s1-632">
          <mxGeometry x="60" width="60" height="40" as="geometry" />
        </mxCell>
        <mxCell id="MG6lyERmRnh1HpZcy8s1-635" value="15" style="shape=partialRectangle;html=1;whiteSpace=wrap;connectable=0;overflow=hidden;fillColor=none;top=0;left=0;bottom=0;right=0;" vertex="1" parent="MG6lyERmRnh1HpZcy8s1-632">
          <mxGeometry x="120" width="60" height="40" as="geometry" />
        </mxCell>
        <mxCell id="MG6lyERmRnh1HpZcy8s1-636" value="10" style="shape=partialRectangle;html=1;whiteSpace=wrap;connectable=0;overflow=hidden;fillColor=none;top=0;left=0;bottom=0;right=0;" vertex="1" parent="MG6lyERmRnh1HpZcy8s1-632">
          <mxGeometry x="180" width="60" height="40" as="geometry" />
        </mxCell>
        <mxCell id="MG6lyERmRnh1HpZcy8s1-637" value="" style="endArrow=none;html=1;fontSize=18;entryX=1;entryY=1;entryDx=0;entryDy=0;" edge="1" target="MG6lyERmRnh1HpZcy8s1-628" parent="1">
          <mxGeometry width="50" height="50" relative="1" as="geometry">
            <mxPoint x="-278" y="3010" as="sourcePoint" />
            <mxPoint x="-336" y="2980" as="targetPoint" />
          </mxGeometry>
        </mxCell>
        <mxCell id="MG6lyERmRnh1HpZcy8s1-638" value="15" style="ellipse;whiteSpace=wrap;html=1;aspect=fixed;" vertex="1" parent="1">
          <mxGeometry x="-295" y="2998" width="40" height="40" as="geometry" />
        </mxCell>
        <mxCell id="MG6lyERmRnh1HpZcy8s1-639" value="" style="endArrow=none;html=1;fontSize=18;" edge="1" parent="1">
          <mxGeometry width="50" height="50" relative="1" as="geometry">
            <mxPoint x="-438" y="3060" as="sourcePoint" />
            <mxPoint x="-404" y="3030" as="targetPoint" />
          </mxGeometry>
        </mxCell>
        <mxCell id="MG6lyERmRnh1HpZcy8s1-640" value="10" style="ellipse;whiteSpace=wrap;html=1;aspect=fixed;" vertex="1" parent="1">
          <mxGeometry x="-466" y="3050" width="40" height="40" as="geometry" />
        </mxCell>
        <mxCell id="MG6lyERmRnh1HpZcy8s1-643" value="30" style="ellipse;whiteSpace=wrap;html=1;aspect=fixed;" vertex="1" parent="1">
          <mxGeometry x="-742" y="3300" width="40" height="40" as="geometry" />
        </mxCell>
        <mxCell id="MG6lyERmRnh1HpZcy8s1-644" value="" style="endArrow=none;html=1;fontSize=18;" edge="1" parent="1">
          <mxGeometry width="50" height="50" relative="1" as="geometry">
            <mxPoint x="-769" y="3360" as="sourcePoint" />
            <mxPoint x="-737" y="3330" as="targetPoint" />
          </mxGeometry>
        </mxCell>
        <mxCell id="MG6lyERmRnh1HpZcy8s1-645" value="20" style="ellipse;whiteSpace=wrap;html=1;aspect=fixed;" vertex="1" parent="1">
          <mxGeometry x="-797" y="3358" width="40" height="40" as="geometry" />
        </mxCell>
        <mxCell id="MG6lyERmRnh1HpZcy8s1-646" value="" style="shape=table;html=1;whiteSpace=wrap;startSize=0;container=1;collapsible=0;childLayout=tableLayout;" vertex="1" parent="1">
          <mxGeometry x="-870" y="3507" width="300" height="40" as="geometry" />
        </mxCell>
        <mxCell id="MG6lyERmRnh1HpZcy8s1-647" value="" style="shape=partialRectangle;html=1;whiteSpace=wrap;collapsible=0;dropTarget=0;pointerEvents=0;fillColor=none;top=0;left=0;bottom=0;right=0;points=[[0,0.5],[1,0.5]];portConstraint=eastwest;" vertex="1" parent="MG6lyERmRnh1HpZcy8s1-646">
          <mxGeometry width="300" height="40" as="geometry" />
        </mxCell>
        <mxCell id="MG6lyERmRnh1HpZcy8s1-648" value="30" style="shape=partialRectangle;html=1;whiteSpace=wrap;connectable=0;overflow=hidden;fillColor=none;top=0;left=0;bottom=0;right=0;" vertex="1" parent="MG6lyERmRnh1HpZcy8s1-647">
          <mxGeometry width="60" height="40" as="geometry" />
        </mxCell>
        <mxCell id="MG6lyERmRnh1HpZcy8s1-649" value="20" style="shape=partialRectangle;html=1;whiteSpace=wrap;connectable=0;overflow=hidden;fillColor=none;top=0;left=0;bottom=0;right=0;" vertex="1" parent="MG6lyERmRnh1HpZcy8s1-647">
          <mxGeometry x="60" width="60" height="40" as="geometry" />
        </mxCell>
        <mxCell id="MG6lyERmRnh1HpZcy8s1-650" value="15" style="shape=partialRectangle;html=1;whiteSpace=wrap;connectable=0;overflow=hidden;fillColor=none;top=0;left=0;bottom=0;right=0;" vertex="1" parent="MG6lyERmRnh1HpZcy8s1-647">
          <mxGeometry x="120" width="60" height="40" as="geometry" />
        </mxCell>
        <mxCell id="MG6lyERmRnh1HpZcy8s1-651" value="10" style="shape=partialRectangle;html=1;whiteSpace=wrap;connectable=0;overflow=hidden;fillColor=none;top=0;left=0;bottom=0;right=0;" vertex="1" parent="MG6lyERmRnh1HpZcy8s1-647">
          <mxGeometry x="180" width="60" height="40" as="geometry" />
        </mxCell>
        <mxCell id="MG6lyERmRnh1HpZcy8s1-672" value="40" style="shape=partialRectangle;html=1;whiteSpace=wrap;connectable=0;overflow=hidden;fillColor=none;top=0;left=0;bottom=0;right=0;" vertex="1" parent="MG6lyERmRnh1HpZcy8s1-647">
          <mxGeometry x="240" width="60" height="40" as="geometry" />
        </mxCell>
        <mxCell id="MG6lyERmRnh1HpZcy8s1-652" value="" style="endArrow=none;html=1;fontSize=18;entryX=1;entryY=1;entryDx=0;entryDy=0;" edge="1" target="MG6lyERmRnh1HpZcy8s1-643" parent="1">
          <mxGeometry width="50" height="50" relative="1" as="geometry">
            <mxPoint x="-669" y="3370" as="sourcePoint" />
            <mxPoint x="-727" y="3340" as="targetPoint" />
          </mxGeometry>
        </mxCell>
        <mxCell id="MG6lyERmRnh1HpZcy8s1-653" value="15" style="ellipse;whiteSpace=wrap;html=1;aspect=fixed;" vertex="1" parent="1">
          <mxGeometry x="-686" y="3358" width="40" height="40" as="geometry" />
        </mxCell>
        <mxCell id="MG6lyERmRnh1HpZcy8s1-654" value="" style="endArrow=none;html=1;fontSize=18;" edge="1" parent="1">
          <mxGeometry width="50" height="50" relative="1" as="geometry">
            <mxPoint x="-829" y="3420" as="sourcePoint" />
            <mxPoint x="-795" y="3390" as="targetPoint" />
          </mxGeometry>
        </mxCell>
        <mxCell id="MG6lyERmRnh1HpZcy8s1-655" value="10" style="ellipse;whiteSpace=wrap;html=1;aspect=fixed;" vertex="1" parent="1">
          <mxGeometry x="-857" y="3410" width="40" height="40" as="geometry" />
        </mxCell>
        <mxCell id="MG6lyERmRnh1HpZcy8s1-657" value="" style="curved=1;endArrow=classic;html=1;fontSize=18;exitX=0;exitY=0;exitDx=0;exitDy=0;entryX=1;entryY=0;entryDx=0;entryDy=0;" edge="1" parent="1" target="MG6lyERmRnh1HpZcy8s1-645">
          <mxGeometry width="50" height="50" relative="1" as="geometry">
            <mxPoint x="-729.1421356237311" y="3409.9978643762684" as="sourcePoint" />
            <mxPoint x="-678" y="3360.14" as="targetPoint" />
            <Array as="points">
              <mxPoint x="-718" y="3394" />
              <mxPoint x="-718" y="3360.14" />
            </Array>
          </mxGeometry>
        </mxCell>
        <mxCell id="MG6lyERmRnh1HpZcy8s1-658" value="" style="shape=flexArrow;endArrow=classic;html=1;fontSize=18;" edge="1" parent="1">
          <mxGeometry width="50" height="50" relative="1" as="geometry">
            <mxPoint x="-579" y="3410" as="sourcePoint" />
            <mxPoint x="-509" y="3410" as="targetPoint" />
            <Array as="points">
              <mxPoint x="-549" y="3410" />
            </Array>
          </mxGeometry>
        </mxCell>
        <mxCell id="MG6lyERmRnh1HpZcy8s1-659" value="40" style="ellipse;whiteSpace=wrap;html=1;aspect=fixed;" vertex="1" parent="1">
          <mxGeometry x="-330" y="3300" width="40" height="40" as="geometry" />
        </mxCell>
        <mxCell id="MG6lyERmRnh1HpZcy8s1-660" value="" style="endArrow=none;html=1;fontSize=18;" edge="1" parent="1">
          <mxGeometry width="50" height="50" relative="1" as="geometry">
            <mxPoint x="-357" y="3360" as="sourcePoint" />
            <mxPoint x="-325" y="3330" as="targetPoint" />
          </mxGeometry>
        </mxCell>
        <mxCell id="MG6lyERmRnh1HpZcy8s1-661" value="30" style="ellipse;whiteSpace=wrap;html=1;aspect=fixed;" vertex="1" parent="1">
          <mxGeometry x="-385" y="3358" width="40" height="40" as="geometry" />
        </mxCell>
        <mxCell id="MG6lyERmRnh1HpZcy8s1-662" value="" style="shape=table;html=1;whiteSpace=wrap;startSize=0;container=1;collapsible=0;childLayout=tableLayout;" vertex="1" parent="1">
          <mxGeometry x="-459" y="3507" width="300" height="40" as="geometry" />
        </mxCell>
        <mxCell id="MG6lyERmRnh1HpZcy8s1-663" value="" style="shape=partialRectangle;html=1;whiteSpace=wrap;collapsible=0;dropTarget=0;pointerEvents=0;fillColor=none;top=0;left=0;bottom=0;right=0;points=[[0,0.5],[1,0.5]];portConstraint=eastwest;" vertex="1" parent="MG6lyERmRnh1HpZcy8s1-662">
          <mxGeometry width="300" height="40" as="geometry" />
        </mxCell>
        <mxCell id="MG6lyERmRnh1HpZcy8s1-664" value="40" style="shape=partialRectangle;html=1;whiteSpace=wrap;connectable=0;overflow=hidden;fillColor=none;top=0;left=0;bottom=0;right=0;" vertex="1" parent="MG6lyERmRnh1HpZcy8s1-663">
          <mxGeometry width="60" height="40" as="geometry" />
        </mxCell>
        <mxCell id="MG6lyERmRnh1HpZcy8s1-665" value="30" style="shape=partialRectangle;html=1;whiteSpace=wrap;connectable=0;overflow=hidden;fillColor=none;top=0;left=0;bottom=0;right=0;" vertex="1" parent="MG6lyERmRnh1HpZcy8s1-663">
          <mxGeometry x="60" width="60" height="40" as="geometry" />
        </mxCell>
        <mxCell id="MG6lyERmRnh1HpZcy8s1-666" value="15" style="shape=partialRectangle;html=1;whiteSpace=wrap;connectable=0;overflow=hidden;fillColor=none;top=0;left=0;bottom=0;right=0;" vertex="1" parent="MG6lyERmRnh1HpZcy8s1-663">
          <mxGeometry x="120" width="60" height="40" as="geometry" />
        </mxCell>
        <mxCell id="MG6lyERmRnh1HpZcy8s1-667" value="10" style="shape=partialRectangle;html=1;whiteSpace=wrap;connectable=0;overflow=hidden;fillColor=none;top=0;left=0;bottom=0;right=0;" vertex="1" parent="MG6lyERmRnh1HpZcy8s1-663">
          <mxGeometry x="180" width="60" height="40" as="geometry" />
        </mxCell>
        <mxCell id="MG6lyERmRnh1HpZcy8s1-678" value="20" style="shape=partialRectangle;html=1;whiteSpace=wrap;connectable=0;overflow=hidden;fillColor=none;top=0;left=0;bottom=0;right=0;" vertex="1" parent="MG6lyERmRnh1HpZcy8s1-663">
          <mxGeometry x="240" width="60" height="40" as="geometry" />
        </mxCell>
        <mxCell id="MG6lyERmRnh1HpZcy8s1-668" value="" style="endArrow=none;html=1;fontSize=18;entryX=1;entryY=1;entryDx=0;entryDy=0;" edge="1" target="MG6lyERmRnh1HpZcy8s1-659" parent="1">
          <mxGeometry width="50" height="50" relative="1" as="geometry">
            <mxPoint x="-257" y="3370" as="sourcePoint" />
            <mxPoint x="-315" y="3340" as="targetPoint" />
          </mxGeometry>
        </mxCell>
        <mxCell id="MG6lyERmRnh1HpZcy8s1-669" value="15" style="ellipse;whiteSpace=wrap;html=1;aspect=fixed;" vertex="1" parent="1">
          <mxGeometry x="-274" y="3358" width="40" height="40" as="geometry" />
        </mxCell>
        <mxCell id="MG6lyERmRnh1HpZcy8s1-670" value="" style="endArrow=none;html=1;fontSize=18;" edge="1" parent="1">
          <mxGeometry width="50" height="50" relative="1" as="geometry">
            <mxPoint x="-417" y="3420" as="sourcePoint" />
            <mxPoint x="-383" y="3390" as="targetPoint" />
          </mxGeometry>
        </mxCell>
        <mxCell id="MG6lyERmRnh1HpZcy8s1-671" value="10" style="ellipse;whiteSpace=wrap;html=1;aspect=fixed;" vertex="1" parent="1">
          <mxGeometry x="-445" y="3410" width="40" height="40" as="geometry" />
        </mxCell>
        <mxCell id="MG6lyERmRnh1HpZcy8s1-673" value="" style="endArrow=none;html=1;fontSize=18;entryX=1;entryY=1;entryDx=0;entryDy=0;" edge="1" parent="1" target="MG6lyERmRnh1HpZcy8s1-645">
          <mxGeometry width="50" height="50" relative="1" as="geometry">
            <mxPoint x="-740" y="3420" as="sourcePoint" />
            <mxPoint x="-785" y="3400" as="targetPoint" />
          </mxGeometry>
        </mxCell>
        <mxCell id="MG6lyERmRnh1HpZcy8s1-674" value="40" style="ellipse;whiteSpace=wrap;html=1;aspect=fixed;" vertex="1" parent="1">
          <mxGeometry x="-750" y="3410" width="40" height="40" as="geometry" />
        </mxCell>
        <mxCell id="MG6lyERmRnh1HpZcy8s1-675" value="" style="curved=1;endArrow=classic;html=1;fontSize=18;exitX=0;exitY=0;exitDx=0;exitDy=0;" edge="1" parent="1">
          <mxGeometry width="50" height="50" relative="1" as="geometry">
            <mxPoint x="-790.1421356237311" y="3357.9978643762684" as="sourcePoint" />
            <mxPoint x="-739" y="3308.14" as="targetPoint" />
            <Array as="points">
              <mxPoint x="-806" y="3342.14" />
              <mxPoint x="-779" y="3308.14" />
            </Array>
          </mxGeometry>
        </mxCell>
        <mxCell id="MG6lyERmRnh1HpZcy8s1-676" value="" style="endArrow=none;html=1;fontSize=18;entryX=1;entryY=1;entryDx=0;entryDy=0;" edge="1" parent="1" target="MG6lyERmRnh1HpZcy8s1-661">
          <mxGeometry width="50" height="50" relative="1" as="geometry">
            <mxPoint x="-330" y="3420" as="sourcePoint" />
            <mxPoint x="-373" y="3400" as="targetPoint" />
          </mxGeometry>
        </mxCell>
        <mxCell id="MG6lyERmRnh1HpZcy8s1-677" value="20" style="ellipse;whiteSpace=wrap;html=1;aspect=fixed;" vertex="1" parent="1">
          <mxGeometry x="-343" y="3410" width="40" height="40" as="geometry" />
        </mxCell>
        <mxCell id="MG6lyERmRnh1HpZcy8s1-679" value="步骤1" style="text;html=1;align=center;verticalAlign=middle;resizable=0;points=[];autosize=1;fontSize=18;" vertex="1" parent="1">
          <mxGeometry x="-800" y="2835" width="60" height="30" as="geometry" />
        </mxCell>
        <mxCell id="MG6lyERmRnh1HpZcy8s1-681" value="步骤2" style="text;html=1;align=center;verticalAlign=middle;resizable=0;points=[];autosize=1;fontSize=18;" vertex="1" parent="1">
          <mxGeometry x="-480" y="2835" width="60" height="30" as="geometry" />
        </mxCell>
        <mxCell id="MG6lyERmRnh1HpZcy8s1-682" value="步骤3" style="text;html=1;align=center;verticalAlign=middle;resizable=0;points=[];autosize=1;fontSize=18;" vertex="1" parent="1">
          <mxGeometry x="-234" y="2835" width="60" height="30" as="geometry" />
        </mxCell>
        <mxCell id="MG6lyERmRnh1HpZcy8s1-683" value="步骤4" style="text;html=1;align=center;verticalAlign=middle;resizable=0;points=[];autosize=1;fontSize=18;" vertex="1" parent="1">
          <mxGeometry x="-594" y="3180" width="60" height="30" as="geometry" />
        </mxCell>
        <mxCell id="MG6lyERmRnh1HpZcy8s1-684" value="步骤5" style="text;html=1;align=center;verticalAlign=middle;resizable=0;points=[];autosize=1;fontSize=18;" vertex="1" parent="1">
          <mxGeometry x="-594" y="3580" width="60" height="30" as="geometry" />
        </mxCell>
      </root>
    </mxGraphModel>
  </diagram>
</mxfile>
